G04 (created by PCBNEW-RS274X (2011-05-25)-stable) date Thu 09 Aug 2012 09:53:34 PM CST*
G01*
G70*
G90*
%MOIN*%
G04 Gerber Fmt 3.4, Leading zero omitted, Abs format*
%FSLAX34Y34*%
G04 APERTURE LIST*
%ADD10C,0.006000*%
%ADD11C,0.012000*%
%ADD12C,0.075000*%
%ADD13O,0.138700X0.079300*%
%ADD14R,0.080000X0.080000*%
%ADD15C,0.080000*%
%ADD16C,0.086000*%
%ADD17R,0.075000X0.075000*%
G04 APERTURE END LIST*
G54D10*
G54D11*
X28443Y-24624D02*
X28843Y-25424D01*
X28843Y-24624D02*
X28443Y-25424D01*
X29071Y-25424D02*
X29071Y-24890D01*
X29071Y-24624D02*
X29042Y-24662D01*
X29071Y-24700D01*
X29099Y-24662D01*
X29071Y-24624D01*
X29071Y-24700D01*
X29357Y-24890D02*
X29357Y-25424D01*
X29357Y-24967D02*
X29385Y-24929D01*
X29443Y-24890D01*
X29528Y-24890D01*
X29585Y-24929D01*
X29614Y-25005D01*
X29614Y-25424D01*
X30243Y-25348D02*
X30214Y-25386D01*
X30128Y-25424D01*
X30071Y-25424D01*
X29986Y-25386D01*
X29928Y-25310D01*
X29900Y-25233D01*
X29871Y-25081D01*
X29871Y-24967D01*
X29900Y-24814D01*
X29928Y-24738D01*
X29986Y-24662D01*
X30071Y-24624D01*
X30128Y-24624D01*
X30214Y-24662D01*
X30243Y-24700D01*
X30500Y-25424D02*
X30500Y-24624D01*
X30757Y-25424D02*
X30757Y-25005D01*
X30728Y-24929D01*
X30671Y-24890D01*
X30586Y-24890D01*
X30528Y-24929D01*
X30500Y-24967D01*
X31271Y-25386D02*
X31214Y-25424D01*
X31100Y-25424D01*
X31043Y-25386D01*
X31014Y-25310D01*
X31014Y-25005D01*
X31043Y-24929D01*
X31100Y-24890D01*
X31214Y-24890D01*
X31271Y-24929D01*
X31300Y-25005D01*
X31300Y-25081D01*
X31014Y-25157D01*
X31728Y-24624D02*
X31728Y-25195D01*
X31700Y-25310D01*
X31643Y-25386D01*
X31557Y-25424D01*
X31500Y-25424D01*
X32014Y-25424D02*
X32014Y-24890D01*
X32014Y-24624D02*
X31985Y-24662D01*
X32014Y-24700D01*
X32042Y-24662D01*
X32014Y-24624D01*
X32014Y-24700D01*
X32557Y-25424D02*
X32557Y-25005D01*
X32528Y-24929D01*
X32471Y-24890D01*
X32357Y-24890D01*
X32300Y-24929D01*
X32557Y-25386D02*
X32500Y-25424D01*
X32357Y-25424D01*
X32300Y-25386D01*
X32271Y-25310D01*
X32271Y-25233D01*
X32300Y-25157D01*
X32357Y-25119D01*
X32500Y-25119D01*
X32557Y-25081D01*
X32843Y-24890D02*
X32843Y-25424D01*
X32843Y-24967D02*
X32871Y-24929D01*
X32929Y-24890D01*
X33014Y-24890D01*
X33071Y-24929D01*
X33100Y-25005D01*
X33100Y-25424D01*
G54D12*
X24000Y-28500D03*
X24000Y-27500D03*
X26000Y-28500D03*
X26000Y-27500D03*
X28000Y-28500D03*
X28000Y-27500D03*
G54D13*
X20000Y-21500D03*
X20000Y-20500D03*
X20000Y-19500D03*
X20000Y-18500D03*
X20000Y-17500D03*
X20000Y-16500D03*
X36000Y-16500D03*
X36000Y-17500D03*
X36000Y-18500D03*
X36000Y-19500D03*
X36000Y-20500D03*
X36000Y-21500D03*
X36000Y-14500D03*
X36000Y-15500D03*
X20000Y-15500D03*
X20000Y-14500D03*
X36000Y-22500D03*
X36000Y-23500D03*
X20000Y-23500D03*
X20000Y-22500D03*
X36000Y-30000D03*
X36000Y-31000D03*
G54D14*
X19800Y-30900D03*
G54D15*
X19800Y-29900D03*
X20800Y-30900D03*
X20800Y-29900D03*
X21800Y-30900D03*
X21800Y-29900D03*
G54D12*
X35293Y-28000D03*
G54D10*
G36*
X36530Y-28707D02*
X36000Y-29237D01*
X35470Y-28707D01*
X36000Y-28177D01*
X36530Y-28707D01*
X36530Y-28707D01*
G37*
G54D12*
X36707Y-28000D03*
G54D16*
X28000Y-30000D03*
X28000Y-31000D03*
X26000Y-30000D03*
X26000Y-31000D03*
X24000Y-30000D03*
X24000Y-31000D03*
G54D17*
X27000Y-24000D03*
G54D12*
X27000Y-23000D03*
X27000Y-22000D03*
X27000Y-21000D03*
X27000Y-20000D03*
X27000Y-19000D03*
X27000Y-18000D03*
X27000Y-17000D03*
X27000Y-16000D03*
X27000Y-15000D03*
X24000Y-15000D03*
X24000Y-16000D03*
X24000Y-17000D03*
X24000Y-18000D03*
X24000Y-19000D03*
X24000Y-20000D03*
X24000Y-21000D03*
X24000Y-22000D03*
X24000Y-23000D03*
X24000Y-24000D03*
G54D17*
X32000Y-22000D03*
G54D12*
X32000Y-21000D03*
X32000Y-20000D03*
X32000Y-19000D03*
X32000Y-18000D03*
X32000Y-17000D03*
X32000Y-16000D03*
X32000Y-15000D03*
X29000Y-15000D03*
X29000Y-16000D03*
X29000Y-17000D03*
X29000Y-18000D03*
X29000Y-19000D03*
X29000Y-20000D03*
X29000Y-21000D03*
X29000Y-22000D03*
G54D15*
X31016Y-30287D03*
X31016Y-29500D03*
X31016Y-28713D03*
X32984Y-30287D03*
X32984Y-29500D03*
X32984Y-28713D03*
M02*
