G04 (created by PCBNEW (2011-nov-30)-testing) date Wed 12 Sep 2012 01:04:55 AM CST*
%MOIN*%
G04 Gerber Fmt 3.4, Leading zero omitted, Abs format*
%FSLAX34Y34*%
G01*
G70*
G90*
G04 APERTURE LIST*
%ADD10C,0.006*%
%ADD11C,0.08*%
%ADD12C,0.075*%
%ADD13R,0.08X0.08*%
%ADD14C,0.086*%
G04 APERTURE END LIST*
G54D10*
G54D11*
X27500Y-28000D03*
X28500Y-28000D03*
X29500Y-28000D03*
X29500Y-17500D03*
X28500Y-17500D03*
X27500Y-17500D03*
X22293Y-25293D03*
X23000Y-26000D03*
X23707Y-26707D03*
X33293Y-26707D03*
X34000Y-26000D03*
X34707Y-25293D03*
G54D10*
G36*
X29000Y-21177D02*
X29530Y-21707D01*
X29000Y-22237D01*
X28470Y-21707D01*
X29000Y-21177D01*
X29000Y-21177D01*
G37*
G54D12*
X29707Y-21000D03*
X29000Y-20293D03*
X27500Y-22500D03*
X27500Y-19500D03*
G54D13*
X20000Y-24500D03*
G54D11*
X20000Y-23500D03*
G54D13*
X37000Y-24500D03*
G54D11*
X37000Y-23500D03*
G54D13*
X20000Y-22500D03*
G54D11*
X20000Y-21500D03*
X20000Y-20500D03*
X20000Y-19500D03*
X20000Y-18500D03*
X20000Y-17500D03*
G54D13*
X37000Y-22500D03*
G54D11*
X37000Y-21500D03*
X37000Y-20500D03*
X37000Y-19500D03*
X37000Y-18500D03*
X37000Y-17500D03*
G54D14*
X28500Y-25500D03*
X28500Y-24500D03*
M02*
