G04 (created by PCBNEW (2011-nov-30)-testing) date Wed 12 Sep 2012 12:51:24 AM CST*
%MOIN*%
G04 Gerber Fmt 3.4, Leading zero omitted, Abs format*
%FSLAX34Y34*%
G01*
G70*
G90*
G04 APERTURE LIST*
%ADD10C,0.006*%
%ADD11C,0.06*%
%ADD12C,0.055*%
%ADD13R,0.06X0.06*%
%ADD14C,0.066*%
%ADD15C,0.01*%
G04 APERTURE END LIST*
G54D10*
G54D11*
X27500Y-28000D03*
X28500Y-28000D03*
X29500Y-28000D03*
X29500Y-17500D03*
X28500Y-17500D03*
X27500Y-17500D03*
X22293Y-25293D03*
X23000Y-26000D03*
X23707Y-26707D03*
X33293Y-26707D03*
X34000Y-26000D03*
X34707Y-25293D03*
G54D10*
G36*
X29000Y-21318D02*
X29389Y-21707D01*
X29000Y-22096D01*
X28611Y-21707D01*
X29000Y-21318D01*
X29000Y-21318D01*
G37*
G54D12*
X29707Y-21000D03*
X29000Y-20293D03*
X27500Y-22500D03*
X27500Y-19500D03*
G54D13*
X20000Y-24500D03*
G54D11*
X20000Y-23500D03*
G54D13*
X37000Y-24500D03*
G54D11*
X37000Y-23500D03*
G54D13*
X20000Y-22500D03*
G54D11*
X20000Y-21500D03*
X20000Y-20500D03*
X20000Y-19500D03*
X20000Y-18500D03*
X20000Y-17500D03*
G54D13*
X37000Y-22500D03*
G54D11*
X37000Y-21500D03*
X37000Y-20500D03*
X37000Y-19500D03*
X37000Y-18500D03*
X37000Y-17500D03*
G54D14*
X28500Y-25500D03*
X28500Y-24500D03*
G54D15*
X32340Y-20293D02*
X29000Y-20293D01*
X36547Y-24500D02*
X32340Y-20293D01*
X37000Y-24500D02*
X36547Y-24500D01*
X28698Y-22010D02*
X28698Y-22009D01*
X28698Y-24302D02*
X28698Y-22010D01*
X28500Y-24500D02*
X28698Y-24302D01*
X29000Y-21707D02*
X28698Y-22009D01*
X32207Y-25293D02*
X29500Y-28000D01*
X34707Y-25293D02*
X32207Y-25293D01*
X20000Y-23640D02*
X22327Y-25967D01*
X20000Y-23500D02*
X20000Y-23640D01*
X23067Y-26707D02*
X23707Y-26707D01*
X22327Y-25967D02*
X23067Y-26707D01*
X25610Y-19390D02*
X27500Y-17500D01*
X25610Y-22684D02*
X25610Y-19390D01*
X22327Y-25967D02*
X25610Y-22684D01*
X22293Y-21793D02*
X22293Y-25293D01*
X20000Y-19500D02*
X22293Y-21793D01*
X26500Y-19500D02*
X26500Y-26000D01*
X28500Y-17500D02*
X26500Y-19500D01*
X23000Y-26000D02*
X26500Y-26000D01*
X26500Y-26000D02*
X28500Y-28000D01*
M02*
