M48
;DRILL file {Pcbnew (2011-nov-30)-testing} date Wed 12 Sep 2012 12:51:30 AM CST
;FORMAT={2:3/ absolute / inch / suppress leading zeros}
FMAT,2
INCH,TZ
T1C0.032
T2C0.040
%
G90
G05
M72
T1
X2229Y2529
X2300Y2600
X2371Y2671
X2750Y1750
X2750Y1950
X2750Y2250
X2750Y2800
X2850Y1750
X2850Y2450
X2850Y2550
X2850Y2800
X2900Y2029
X2900Y2171
X2950Y1750
X2950Y2800
X2971Y2100
X3329Y2671
X3400Y2600
X3471Y2529
T2
X2000Y1750
X2000Y1850
X2000Y1950
X2000Y2050
X2000Y2150
X2000Y2250
X2000Y2350
X2000Y2450
X3700Y1750
X3700Y1850
X3700Y1950
X3700Y2050
X3700Y2150
X3700Y2250
X3700Y2350
X3700Y2450
T0
M30
