<?xml version="1.0" standalone="no"?>
 <!DOCTYPE svg PUBLIC "-//W3C//DTD SVG 1.1//EN" 
 "http://www.w3.org/Graphics/SVG/1.1/DTD/svg11.dtd"> 
<svg xmlns="http://www.w3.org/2000/svg" version="1.1" 
    width="6.08838cm" height="4.58978cm" viewBox="0 0 23970 18070 ">
<title>SVG Picture created as swarmIR-brd.svg date 2012/10/26 22:29:31 </title>
  <desc>Picture generated by PCBNEW </desc>
<g style="fill:#000000; fill-opacity:1;stroke:#000000; stroke-opacity:1;
stroke-linecap:round; stroke-linejoin:round; "
 transform="translate(0 0) scale(1 1)">
</g>
<g style="fill:#9F0000; fill-opacity:0.0; 
stroke:#9F0000; stroke-width:74; stroke-opacity:1; 
stroke-linecap:round; stroke-linejoin:round;">
<path d="M17176 1212
L17162 1231
L17120 1249
L17092 1249
L17049 1231
L17021 1193
L17007 1156
L16993 1081
L16993 1024
L17007 949
L17021 912
L17049 874
L17092 855
L17120 855
L17162 874
L17176 893
" />
<path d="M17288 893
L17302 874
L17330 855
L17401 855
L17429 874
L17443 893
L17457 931
L17457 968
L17443 1024
L17274 1249
L17457 1249
" />
<path d="M17808 1249
L17808 987
" />
<path d="M17808 855
L17794 874
L17808 893
L17822 874
L17808 855
L17808 893
" />
<path d="M17934 1231
L17962 1249
L18018 1249
L18047 1231
L18061 1193
L18061 1174
L18047 1137
L18018 1118
L17976 1118
L17948 1099
L17934 1062
L17934 1043
L17948 1006
L17976 987
L18018 987
L18047 1006
" />
<path d="M18412 1249
L18412 855
" />
<path d="M18412 1006
L18440 987
L18497 987
L18525 1006
L18539 1024
L18553 1062
L18553 1174
L18539 1212
L18525 1231
L18497 1249
L18440 1249
L18412 1231
" />
<path d="M18806 1249
L18806 1043
L18792 1006
L18764 987
L18707 987
L18679 1006
" />
<path d="M18806 1231
L18778 1249
L18707 1249
L18679 1231
L18665 1193
L18665 1156
L18679 1118
L18707 1099
L18778 1099
L18806 1081
" />
<path d="M19073 1231
L19045 1249
L18988 1249
L18960 1231
L18946 1212
L18932 1174
L18932 1062
L18946 1024
L18960 1006
L18988 987
L19045 987
L19073 1006
" />
<path d="M19199 1249
L19199 855
" />
<path d="M19227 1099
L19312 1249
" />
<path d="M19312 987
L19199 1137
" />
<path d="M19410 987
L19466 1249
L19523 1062
L19579 1249
L19635 987
" />
<path d="M19874 1249
L19874 1043
L19860 1006
L19832 987
L19775 987
L19747 1006
" />
<path d="M19874 1231
L19846 1249
L19775 1249
L19747 1231
L19733 1193
L19733 1156
L19747 1118
L19775 1099
L19846 1099
L19874 1081
" />
<path d="M20014 1249
L20014 987
" />
<path d="M20014 1062
L20028 1024
L20042 1006
L20070 987
L20099 987
" />
<path d="M20324 1249
L20324 855
" />
<path d="M20324 1231
L20296 1249
L20239 1249
L20211 1231
L20197 1212
L20183 1174
L20183 1062
L20197 1024
L20211 1006
L20239 987
L20296 987
L20324 1006
" />
<path d="M20450 1231
L20478 1249
L20534 1249
L20563 1231
L20577 1193
L20577 1174
L20563 1137
L20534 1118
L20492 1118
L20464 1099
L20450 1062
L20450 1043
L20464 1006
L20492 987
L20534 987
L20563 1006
" />
</g>
<g style="fill:#FFFF00; fill-opacity:0.0; 
stroke:#FFFF00; stroke-width:150; stroke-opacity:1; 
stroke-linecap:round; stroke-linejoin:round;">
<path d="M2985 2690
L2985 11090
" />
<path d="M5485 13590
L18385 13590
" />
<path d="M5485 13590
L2985 11090
" />
<path d="M20985 2690
L20985 10990
" />
<path d="M18385 13590
L20985 10990
" />
</g>
<g style="fill:#009F9F; fill-opacity:0.0; 
stroke:#009F9F; stroke-width:39; stroke-opacity:1; 
stroke-linecap:round; stroke-linejoin:round;">
<path d="M3263 3562
L3278 3534
L3293 3520
L3323 3506
L3338 3506
L3368 3520
L3383 3534
L3398 3562
L3398 3619
L3383 3647
L3368 3661
L3338 3675
L3323 3675
L3293 3661
L3278 3647
L3263 3619
L3263 3562
L3248 3534
L3233 3520
L3203 3506
L3143 3506
L3113 3520
L3098 3534
L3083 3562
L3083 3619
L3098 3647
L3113 3661
L3143 3675
L3203 3675
L3233 3661
L3248 3647
L3263 3619
" />
<path d="M3083 4534
L3083 4590
L3098 4619
L3113 4633
L3158 4661
L3218 4675
L3338 4675
L3368 4661
L3383 4647
L3398 4619
L3398 4562
L3383 4534
L3368 4520
L3338 4506
L3263 4506
L3233 4520
L3218 4534
L3203 4562
L3203 4619
L3218 4647
L3233 4661
L3263 4675
" />
<path d="M3083 5534
L3083 5365
" />
<path d="M3083 5449
L3398 5449
L3353 5421
L3323 5393
L3308 5365
" />
<path d="M3398 5716
L3398 5745
L3383 5773
L3368 5787
L3338 5801
L3278 5815
L3203 5815
L3143 5801
L3113 5787
L3098 5773
L3083 5745
L3083 5716
L3098 5688
L3113 5674
L3143 5660
L3203 5646
L3278 5646
L3338 5660
L3368 5674
L3383 5688
L3398 5716
" />
<path d="M3398 6647
L3398 6590
L3383 6562
L3368 6548
L3323 6520
L3263 6506
L3143 6506
L3113 6520
L3098 6534
L3083 6562
L3083 6619
L3098 6647
L3113 6661
L3143 6675
L3218 6675
L3248 6661
L3263 6647
L3278 6619
L3278 6562
L3263 6534
L3248 6520
L3218 6506
" />
<path d="M3083 7675
L3083 7506
" />
<path d="M3083 7590
L3398 7590
L3353 7562
L3323 7534
L3308 7506
" />
<path d="M3398 8576
L3398 8605
L3383 8633
L3368 8647
L3338 8661
L3278 8675
L3203 8675
L3143 8661
L3113 8647
L3098 8633
L3083 8605
L3083 8576
L3098 8548
L3113 8534
L3143 8520
L3203 8506
L3278 8506
L3338 8520
L3368 8534
L3383 8548
L3398 8576
" />
<path d="M3423 9264
L3108 9362
L3423 9461
" />
<path d="M3123 9686
L3108 9658
L3108 9601
L3123 9573
L3138 9559
L3168 9545
L3258 9545
L3288 9559
L3303 9573
L3318 9601
L3318 9658
L3303 9686
" />
<path d="M3123 9939
L3108 9911
L3108 9854
L3123 9826
L3138 9812
L3168 9798
L3258 9798
L3288 9812
L3303 9826
L3318 9854
L3318 9911
L3303 9939
" />
<path d="M3408 10366
L3423 10338
L3423 10296
L3408 10253
L3378 10225
L3348 10211
L3288 10197
L3243 10197
L3183 10211
L3153 10225
L3123 10253
L3108 10296
L3108 10324
L3123 10366
L3138 10380
L3243 10380
L3243 10324
" />
<path d="M3108 10506
L3423 10506
L3108 10675
L3423 10675
" />
<path d="M3108 10815
L3423 10815
L3423 10885
L3408 10928
L3378 10956
L3348 10970
L3288 10984
L3243 10984
L3183 10970
L3153 10956
L3123 10928
L3108 10885
L3108 10815
" />
<path d="M20887 3621
L20887 3790
" />
<path d="M20887 3706
L20572 3706
L20617 3734
L20647 3762
L20662 3790
" />
<path d="M20602 3509
L20587 3495
L20572 3467
L20572 3396
L20587 3368
L20602 3354
L20632 3340
L20662 3340
L20707 3354
L20887 3523
L20887 3340
" />
<path d="M20887 4621
L20887 4790
" />
<path d="M20887 4706
L20572 4706
L20617 4734
L20647 4762
L20662 4790
" />
<path d="M20572 4523
L20572 4340
L20692 4439
L20692 4396
L20707 4368
L20722 4354
L20752 4340
L20827 4340
L20857 4354
L20872 4368
L20887 4396
L20887 4481
L20872 4509
L20857 4523
" />
<path d="M20887 5646
L20887 5815
" />
<path d="M20887 5731
L20572 5731
L20617 5759
L20647 5787
L20662 5815
" />
<path d="M20677 5393
L20887 5393
" />
<path d="M20557 5464
L20782 5534
L20782 5351
" />
<path d="M20887 6621
L20887 6790
" />
<path d="M20887 6706
L20572 6706
L20617 6734
L20647 6762
L20662 6790
" />
<path d="M20572 6354
L20572 6495
L20722 6509
L20707 6495
L20692 6467
L20692 6396
L20707 6368
L20722 6354
L20752 6340
L20827 6340
L20857 6354
L20872 6368
L20887 6396
L20887 6467
L20872 6495
L20857 6509
" />
<path d="M20887 7571
L20887 7740
" />
<path d="M20887 7656
L20572 7656
L20617 7684
L20647 7712
L20662 7740
" />
<path d="M20572 7318
L20572 7375
L20587 7403
L20602 7417
L20647 7445
L20707 7459
L20827 7459
L20857 7445
L20872 7431
L20887 7403
L20887 7346
L20872 7318
L20857 7304
L20827 7290
L20752 7290
L20722 7304
L20707 7318
L20692 7346
L20692 7403
L20707 7431
L20722 7445
L20752 7459
" />
<path d="M20887 8702
L20737 8801
" />
<path d="M20887 8871
L20572 8871
L20572 8758
L20587 8730
L20602 8716
L20632 8702
L20677 8702
L20707 8716
L20722 8730
L20737 8758
L20737 8871
" />
<path d="M20872 8590
L20887 8562
L20887 8506
L20872 8477
L20842 8463
L20827 8463
L20797 8477
L20782 8506
L20782 8548
L20767 8576
L20737 8590
L20722 8590
L20692 8576
L20677 8548
L20677 8506
L20692 8477
" />
<path d="M20677 8379
L20677 8267
" />
<path d="M20572 8337
L20842 8337
L20872 8323
L20887 8295
L20887 8267
" />
<path d="M20572 9941
L20887 9843
L20572 9744
" />
<path d="M20872 9519
L20887 9547
L20887 9604
L20872 9632
L20857 9646
L20827 9660
L20737 9660
L20707 9646
L20692 9632
L20677 9604
L20677 9547
L20692 9519
" />
<path d="M20872 9266
L20887 9294
L20887 9351
L20872 9379
L20857 9393
L20827 9407
L20737 9407
L20707 9393
L20692 9379
L20677 9351
L20677 9294
L20692 9266
" />
<path d="M20587 10839
L20572 10867
L20572 10909
L20587 10952
L20617 10980
L20647 10994
L20707 11008
L20752 11008
L20812 10994
L20842 10980
L20872 10952
L20887 10909
L20887 10881
L20872 10839
L20857 10825
L20752 10825
L20752 10881
" />
<path d="M20887 10699
L20572 10699
L20887 10530
L20572 10530
" />
<path d="M20887 10390
L20572 10390
L20572 10320
L20587 10277
L20617 10249
L20647 10235
L20707 10221
L20752 10221
L20812 10235
L20842 10249
L20872 10277
L20887 10320
L20887 10390
" />
</g>
<g style="fill:#FFFF00; fill-opacity:0.0; 
stroke:#FFFF00; stroke-width:150; stroke-opacity:1; 
stroke-linecap:round; stroke-linejoin:round;">
<path d="M2985 2690
L20985 2690
" />
</g>
<g style="fill:#009F9F; fill-opacity:0.0; 
stroke:#009F9F; stroke-width:120; stroke-opacity:1; 
stroke-linecap:round; stroke-linejoin:round;">
<path d="M17684 15211
L18028 15554
L18088 15575
L18128 15574
L18189 15554
L18270 15474
L18290 15412
L18290 15373
L18271 15312
L17927 14968
" />
<path d="M18452 14726
L18735 15008
" />
<path d="M18189 14665
L18392 15069
L18655 14806
" />
<path d="M17393 17076
L17635 16834
" />
<path d="M17939 17379
L17514 16955
" />
<path d="M18160 17117
L18241 17076
L18342 16975
L18362 16914
L18363 16874
L18342 16814
L18301 16773
L18241 16753
L18201 16753
L18140 16773
L18040 16834
L17978 16854
L17938 16854
L17877 16834
L17837 16794
L17817 16733
L17816 16692
L17838 16632
L17938 16531
L18019 16490
" />
<path d="M18261 16208
L18342 16127
L18402 16106
L18484 16107
L18584 16168
L18726 16309
L18786 16410
L18786 16490
L18766 16552
L18685 16632
L18625 16652
L18544 16652
L18443 16592
L18301 16451
L18241 16349
L18241 16268
L18261 16208
" />
<path d="M19049 16268
L18625 15844
L18786 15683
L18847 15661
L18888 15662
L18948 15682
L19009 15743
L19029 15804
L19030 15844
L19008 15905
L18847 16066
" />
<path d="M19696 15622
L19453 15864
" />
<path d="M19575 15743
L19151 15319
L19171 15420
L19170 15501
L19150 15561
" />
<path d="M19696 15137
L19634 15157
L19595 15157
L19534 15138
L19513 15117
L19494 15056
L19493 15016
L19514 14955
L19595 14874
L19655 14854
L19696 14854
L19756 14874
L19776 14895
L19797 14955
L19796 14995
L19776 15056
L19696 15137
L19675 15198
L19675 15238
L19695 15299
L19776 15380
L19837 15400
L19877 15400
L19938 15379
L20019 15299
L20039 15238
L20039 15198
L20019 15138
L19938 15056
L19878 15036
L19837 15036
L19776 15056
" />
<path d="M19817 14652
L20079 14390
L20099 14693
L20160 14632
L20220 14612
L20261 14612
L20322 14633
L20423 14734
L20443 14794
L20442 14834
L20423 14895
L20301 15017
L20240 15036
L20201 15036
" />
<path d="M20503 14329
L20442 14350
L20402 14350
L20341 14330
L20321 14309
L20301 14249
L20300 14208
L20322 14148
L20402 14067
L20462 14046
L20503 14046
L20563 14067
L20584 14087
L20604 14148
L20604 14188
L20584 14249
L20503 14329
L20483 14391
L20483 14430
L20503 14491
L20584 14573
L20645 14592
L20684 14592
L20746 14572
L20826 14491
L20846 14430
L20847 14390
L20826 14330
L20745 14249
L20685 14228
L20645 14229
L20584 14249
" />
<path d="M6089 13839
L5746 14183
L5725 14243
L5726 14283
L5746 14344
L5826 14425
L5888 14445
L5927 14445
L5988 14426
L6332 14082
" />
<path d="M6473 14304
L6514 14304
L6574 14324
L6675 14426
L6696 14486
L6696 14527
L6675 14587
L6635 14627
L6555 14668
L6069 14668
L6332 14930
" />
<path d="M4423 13973
L4665 14215
" />
<path d="M4120 14519
L4544 14094
" />
<path d="M4382 14740
L4423 14821
L4524 14922
L4585 14942
L4625 14943
L4685 14922
L4726 14881
L4746 14821
L4746 14781
L4726 14720
L4665 14620
L4645 14558
L4645 14518
L4665 14457
L4705 14417
L4766 14397
L4807 14396
L4867 14418
L4968 14518
L5009 14599
" />
<path d="M5291 14841
L5372 14922
L5393 14982
L5392 15064
L5331 15164
L5190 15306
L5089 15366
L5009 15366
L4947 15346
L4867 15265
L4847 15205
L4847 15124
L4907 15023
L5048 14881
L5150 14821
L5231 14821
L5291 14841
" />
<path d="M5231 15629
L5655 15205
L5816 15366
L5838 15427
L5837 15468
L5817 15528
L5756 15589
L5695 15609
L5655 15610
L5594 15588
L5433 15427
" />
<path d="M5877 16276
L5635 16033
" />
<path d="M5756 16155
L6180 15731
L6079 15751
L5998 15750
L5938 15730
" />
<path d="M6362 16276
L6342 16214
L6342 16175
L6361 16114
L6382 16093
L6443 16074
L6483 16073
L6544 16094
L6625 16175
L6645 16235
L6645 16276
L6625 16336
L6604 16356
L6544 16377
L6504 16376
L6443 16356
L6362 16276
L6301 16255
L6261 16255
L6200 16275
L6119 16356
L6099 16417
L6099 16457
L6120 16518
L6200 16599
L6261 16619
L6301 16619
L6361 16599
L6443 16518
L6463 16458
L6463 16417
L6443 16356
" />
<path d="M6847 16397
L7109 16659
L6806 16679
L6867 16740
L6887 16800
L6887 16841
L6866 16902
L6765 17003
L6705 17023
L6665 17022
L6604 17003
L6482 16881
L6463 16820
L6463 16781
" />
<path d="M7170 17083
L7149 17022
L7149 16982
L7169 16921
L7190 16901
L7250 16881
L7291 16880
L7351 16902
L7432 16982
L7453 17042
L7453 17083
L7432 17143
L7412 17164
L7351 17184
L7311 17184
L7250 17164
L7170 17083
L7108 17063
L7069 17063
L7008 17083
L6926 17164
L6907 17225
L6907 17264
L6927 17326
L7008 17406
L7069 17426
L7109 17427
L7169 17406
L7250 17325
L7271 17265
L7270 17225
L7250 17164
" />
<path d="M11528 983
L11528 1469
L11556 1526
L11585 1554
L11642 1583
L11756 1583
L11814 1554
L11842 1526
L11871 1469
L11871 983
" />
<path d="M12100 983
L12471 983
L12271 1211
L12357 1211
L12414 1240
L12443 1269
L12471 1326
L12471 1469
L12443 1526
L12414 1554
L12357 1583
L12185 1583
L12128 1554
L12100 1526
" />
<path d="M9747 258
L10090 258
" />
<path d="M9919 858
L9919 258
" />
<path d="M10261 829
L10347 858
L10490 858
L10547 829
L10576 801
L10604 744
L10604 686
L10576 629
L10547 601
L10490 572
L10376 544
L10318 515
L10290 486
L10261 429
L10261 372
L10290 315
L10318 286
L10376 258
L10518 258
L10604 286
" />
<path d="M10975 258
L11089 258
L11147 286
L11204 344
L11232 458
L11232 658
L11204 772
L11147 829
L11089 858
L10975 858
L10918 829
L10861 772
L10832 658
L10832 458
L10861 344
L10918 286
L10975 258
" />
<path d="M11490 858
L11490 258
L11718 258
L11776 286
L11804 315
L11833 372
L11833 458
L11804 515
L11776 544
L11718 572
L11490 572
" />
<path d="M12404 858
L12061 858
" />
<path d="M12233 858
L12233 258
L12176 344
L12118 401
L12061 429
" />
<path d="M12747 515
L12689 486
L12661 458
L12632 401
L12632 372
L12661 315
L12689 286
L12747 258
L12861 258
L12918 286
L12947 315
L12975 372
L12975 401
L12947 458
L12918 486
L12861 515
L12747 515
L12689 544
L12661 572
L12632 629
L12632 744
L12661 801
L12689 829
L12747 858
L12861 858
L12918 829
L12947 801
L12975 744
L12975 629
L12947 572
L12918 544
L12861 515
" />
<path d="M13175 258
L13546 258
L13346 486
L13432 486
L13489 515
L13518 544
L13546 601
L13546 744
L13518 801
L13489 829
L13432 858
L13260 858
L13203 829
L13175 801
" />
<path d="M13889 515
L13831 486
L13803 458
L13774 401
L13774 372
L13803 315
L13831 286
L13889 258
L14003 258
L14060 286
L14089 315
L14117 372
L14117 401
L14089 458
L14060 486
L14003 515
L13889 515
L13831 544
L13803 572
L13774 629
L13774 744
L13803 801
L13831 829
L13889 858
L14003 858
L14060 829
L14089 801
L14117 744
L14117 629
L14089 572
L14060 544
L14003 515
" />
<path d="M978 8747
L1464 8747
L1521 8719
L1549 8690
L1578 8633
L1578 8519
L1549 8461
L1521 8433
L1464 8404
L978 8404
" />
<path d="M978 7832
L978 8118
L1264 8147
L1235 8118
L1206 8061
L1206 7918
L1235 7861
L1264 7832
L1321 7804
L1464 7804
L1521 7832
L1549 7861
L1578 7918
L1578 8061
L1549 8118
L1521 8147
" />
<path d="M103 10553
L103 10210
" />
<path d="M703 10381
L103 10381
" />
<path d="M674 10039
L703 9953
L703 9810
L674 9753
L646 9724
L589 9696
L531 9696
L474 9724
L446 9753
L417 9810
L389 9924
L360 9982
L331 10010
L274 10039
L217 10039
L160 10010
L131 9982
L103 9924
L103 9782
L131 9696
" />
<path d="M103 9325
L103 9211
L131 9153
L189 9096
L303 9068
L503 9068
L617 9096
L674 9153
L703 9211
L703 9325
L674 9382
L617 9439
L503 9468
L303 9468
L189 9439
L131 9382
L103 9325
" />
<path d="M703 8810
L103 8810
L103 8582
L131 8524
L160 8496
L217 8467
L303 8467
L360 8496
L389 8524
L417 8582
L417 8810
" />
<path d="M703 7896
L703 8239
" />
<path d="M703 8067
L103 8067
L189 8124
L246 8182
L274 8239
" />
<path d="M360 7553
L331 7611
L303 7639
L246 7668
L217 7668
L160 7639
L131 7611
L103 7553
L103 7439
L131 7382
L160 7353
L217 7325
L246 7325
L303 7353
L331 7382
L360 7439
L360 7553
L389 7611
L417 7639
L474 7668
L589 7668
L646 7639
L674 7611
L703 7553
L703 7439
L674 7382
L646 7353
L589 7325
L474 7325
L417 7353
L389 7382
L360 7439
" />
<path d="M103 7125
L103 6754
L331 6954
L331 6868
L360 6811
L389 6782
L446 6754
L589 6754
L646 6782
L674 6811
L703 6868
L703 7040
L674 7097
L646 7125
" />
<path d="M360 6411
L331 6469
L303 6497
L246 6526
L217 6526
L160 6497
L131 6469
L103 6411
L103 6297
L131 6240
L160 6211
L217 6183
L246 6183
L303 6211
L331 6240
L360 6297
L360 6411
L389 6469
L417 6497
L474 6526
L589 6526
L646 6497
L674 6469
L703 6411
L703 6297
L674 6240
L646 6211
L589 6183
L474 6183
L417 6211
L389 6240
L360 6297
" />
<path d="M22128 8647
L22614 8647
L22671 8619
L22699 8590
L22728 8533
L22728 8419
L22699 8361
L22671 8333
L22614 8304
L22128 8304
" />
<path d="M22128 7761
L22128 7875
L22156 7932
L22185 7961
L22271 8018
L22385 8047
L22614 8047
L22671 8018
L22699 7990
L22728 7932
L22728 7818
L22699 7761
L22671 7732
L22614 7704
L22471 7704
L22414 7732
L22385 7761
L22356 7818
L22356 7932
L22385 7990
L22414 8018
L22471 8047
" />
<path d="M23153 10503
L23153 10160
" />
<path d="M23753 10331
L23153 10331
" />
<path d="M23724 9989
L23753 9903
L23753 9760
L23724 9703
L23696 9674
L23639 9646
L23581 9646
L23524 9674
L23496 9703
L23467 9760
L23439 9874
L23410 9932
L23381 9960
L23324 9989
L23267 9989
L23210 9960
L23181 9932
L23153 9874
L23153 9732
L23181 9646
" />
<path d="M23153 9275
L23153 9161
L23181 9103
L23239 9046
L23353 9018
L23553 9018
L23667 9046
L23724 9103
L23753 9161
L23753 9275
L23724 9332
L23667 9389
L23553 9418
L23353 9418
L23239 9389
L23181 9332
L23153 9275
" />
<path d="M23753 8760
L23153 8760
L23153 8532
L23181 8474
L23210 8446
L23267 8417
L23353 8417
L23410 8446
L23439 8474
L23467 8532
L23467 8760
" />
<path d="M23753 7846
L23753 8189
" />
<path d="M23753 8017
L23153 8017
L23239 8074
L23296 8132
L23324 8189
" />
<path d="M23410 7503
L23381 7561
L23353 7589
L23296 7618
L23267 7618
L23210 7589
L23181 7561
L23153 7503
L23153 7389
L23181 7332
L23210 7303
L23267 7275
L23296 7275
L23353 7303
L23381 7332
L23410 7389
L23410 7503
L23439 7561
L23467 7589
L23524 7618
L23639 7618
L23696 7589
L23724 7561
L23753 7503
L23753 7389
L23724 7332
L23696 7303
L23639 7275
L23524 7275
L23467 7303
L23439 7332
L23410 7389
" />
<path d="M23153 7075
L23153 6704
L23381 6904
L23381 6818
L23410 6761
L23439 6732
L23496 6704
L23639 6704
L23696 6732
L23724 6761
L23753 6818
L23753 6990
L23724 7047
L23696 7075
" />
<path d="M23410 6361
L23381 6419
L23353 6447
L23296 6476
L23267 6476
L23210 6447
L23181 6419
L23153 6361
L23153 6247
L23181 6190
L23210 6161
L23267 6133
L23296 6133
L23353 6161
L23381 6190
L23410 6247
L23410 6361
L23439 6419
L23467 6447
L23524 6476
L23639 6476
L23696 6447
L23724 6419
L23753 6361
L23753 6247
L23724 6190
L23696 6161
L23639 6133
L23524 6133
L23467 6161
L23439 6190
L23410 6247
" />
<path d="M11528 14608
L11528 15094
L11556 15151
L11585 15179
L11642 15208
L11756 15208
L11814 15179
L11842 15151
L11871 15094
L11871 14608
" />
<path d="M12471 15208
L12128 15208
" />
<path d="M12300 15208
L12300 14608
L12243 14694
L12185 14751
L12128 14779
" />
<path d="M9597 15483
L9940 15483
" />
<path d="M9769 16083
L9769 15483
" />
<path d="M10111 16054
L10197 16083
L10340 16083
L10397 16054
L10426 16026
L10454 15969
L10454 15911
L10426 15854
L10397 15826
L10340 15797
L10226 15769
L10168 15740
L10140 15711
L10111 15654
L10111 15597
L10140 15540
L10168 15511
L10226 15483
L10368 15483
L10454 15511
" />
<path d="M10825 15483
L10939 15483
L10997 15511
L11054 15569
L11082 15683
L11082 15883
L11054 15997
L10997 16054
L10939 16083
L10825 16083
L10768 16054
L10711 15997
L10682 15883
L10682 15683
L10711 15569
L10768 15511
L10825 15483
" />
<path d="M11340 16083
L11340 15483
L11568 15483
L11626 15511
L11654 15540
L11683 15597
L11683 15683
L11654 15740
L11626 15769
L11568 15797
L11340 15797
" />
<path d="M12254 16083
L11911 16083
" />
<path d="M12083 16083
L12083 15483
L12026 15569
L11968 15626
L11911 15654
" />
<path d="M12597 15740
L12539 15711
L12511 15683
L12482 15626
L12482 15597
L12511 15540
L12539 15511
L12597 15483
L12711 15483
L12768 15511
L12797 15540
L12825 15597
L12825 15626
L12797 15683
L12768 15711
L12711 15740
L12597 15740
L12539 15769
L12511 15797
L12482 15854
L12482 15969
L12511 16026
L12539 16054
L12597 16083
L12711 16083
L12768 16054
L12797 16026
L12825 15969
L12825 15854
L12797 15797
L12768 15769
L12711 15740
" />
<path d="M13025 15483
L13396 15483
L13196 15711
L13282 15711
L13339 15740
L13368 15769
L13396 15826
L13396 15969
L13368 16026
L13339 16054
L13282 16083
L13110 16083
L13053 16054
L13025 16026
" />
<path d="M13739 15740
L13681 15711
L13653 15683
L13624 15626
L13624 15597
L13653 15540
L13681 15511
L13739 15483
L13853 15483
L13910 15511
L13939 15540
L13967 15597
L13967 15626
L13939 15683
L13910 15711
L13853 15740
L13739 15740
L13681 15769
L13653 15797
L13624 15854
L13624 15969
L13653 16026
L13681 16054
L13739 16083
L13853 16083
L13910 16054
L13939 16026
L13967 15969
L13967 15854
L13939 15797
L13910 15769
L13853 15740
" />
</g>
<g style="fill:#009F9F; fill-opacity:0.0; 
stroke:#009F9F; stroke-width:80; stroke-opacity:1; 
stroke-linecap:round; stroke-linejoin:round;">
<path d="M15800 1808
L15759 1822
L15706 1822
L15625 1822
L15584 1836
L15557 1863
" />
<path d="M15638 1916
L15597 1930
L15544 1930
L15476 1890
L15382 1795
L15341 1728
L15341 1674
L15355 1634
L15409 1579
L15450 1566
L15503 1566
L15570 1606
L15665 1701
L15706 1768
L15706 1822
L15692 1862
L15638 1916
" />
<path d="M16029 1525
L15867 1687
" />
<path d="M15947 1607
L15664 1324
L15678 1391
L15678 1445
L15664 1485
" />
<path d="M14410 2320
L14127 2037
L14424 2144
L14316 1848
L14598 2131
" />
<path d="M14504 1660
L14558 1605
L14598 1592
L14652 1592
L14719 1632
L14814 1727
L14854 1794
L14854 1848
L14841 1888
L14786 1943
L14746 1956
L14692 1956
L14625 1916
L14531 1821
L14490 1754
L14490 1700
L14504 1660
" />
<path d="M15002 1700
L15056 1673
L15124 1605
L15137 1565
L15137 1538
L15124 1498
L15097 1471
L15057 1458
L15029 1457
L14989 1470
L14921 1511
L14881 1525
L14854 1525
L14813 1511
L14786 1484
L14773 1444
L14773 1417
L14786 1377
L14854 1309
L14908 1282
" />
<path d="M15245 1187
L15150 1282
" />
<path d="M15298 1431
L15016 1148
L15151 1013
" />
<path d="M15392 1040
L15487 945
" />
<path d="M15676 1053
L15541 1188
L15258 905
L15393 770
" />
<path d="M15474 690
L15636 528
" />
<path d="M15837 892
L15554 609
" />
<path d="M15972 811
L16188 595
" />
<path d="M16228 501
L15945 218
L16390 339
L16107 56
" />
</g>
<g style="fill:#009F9F; fill-opacity:0.0; 
stroke:#009F9F; stroke-width:50; stroke-opacity:1; 
stroke-linecap:round; stroke-linejoin:round;">
<path d="M10086 12651
L9967 12734
" />
<path d="M10086 12793
L9836 12793
L9836 12698
L9848 12674
L9860 12663
L9884 12651
L9920 12651
L9943 12663
L9955 12674
L9967 12698
L9967 12793
" />
<path d="M10086 12413
L10086 12555
" />
<path d="M10086 12484
L9836 12484
L9872 12508
L9896 12532
L9908 12555
" />
<path d="M9836 12258
L9836 12234
L9848 12210
L9860 12198
L9884 12186
L9931 12175
L9991 12175
L10039 12186
L10062 12198
L10074 12210
L10086 12234
L10086 12258
L10074 12282
L10062 12294
L10039 12305
L9991 12317
L9931 12317
L9884 12305
L9860 12294
L9848 12282
L9836 12258
" />
<path d="M9286 3832
L9167 3915
" />
<path d="M9286 3974
L9036 3974
L9036 3879
L9048 3855
L9060 3844
L9084 3832
L9120 3832
L9143 3844
L9155 3855
L9167 3879
L9167 3974
" />
<path d="M9286 3713
L9286 3665
L9274 3641
L9262 3629
L9227 3605
L9179 3594
L9084 3594
L9060 3605
L9048 3617
L9036 3641
L9036 3689
L9048 3713
L9060 3724
L9084 3736
L9143 3736
L9167 3724
L9179 3713
L9191 3689
L9191 3641
L9179 3617
L9167 3605
L9143 3594
" />
<path d="M6843 5491
L6760 5372
" />
<path d="M6701 5491
L6701 5241
L6796 5241
L6820 5253
L6831 5265
L6843 5289
L6843 5325
L6831 5348
L6820 5360
L6796 5372
L6701 5372
" />
<path d="M6986 5348
L6962 5336
L6951 5325
L6939 5301
L6939 5289
L6951 5265
L6962 5253
L6986 5241
L7034 5241
L7058 5253
L7070 5265
L7081 5289
L7081 5301
L7070 5325
L7058 5336
L7034 5348
L6986 5348
L6962 5360
L6951 5372
L6939 5396
L6939 5444
L6951 5467
L6962 5479
L6986 5491
L7034 5491
L7058 5479
L7070 5467
L7081 5444
L7081 5396
L7070 5372
L7058 5360
L7034 5348
" />
<path d="M17043 5491
L16960 5372
" />
<path d="M16901 5491
L16901 5241
L16996 5241
L17020 5253
L17031 5265
L17043 5289
L17043 5325
L17031 5348
L17020 5360
L16996 5372
L16901 5372
" />
<path d="M17127 5241
L17293 5241
L17186 5491
" />
</g>
<g style="fill:#009F9F; fill-opacity:0.0; 
stroke:#009F9F; stroke-width:80; stroke-opacity:1; 
stroke-linecap:round; stroke-linejoin:round;">
<path d="M10308 8173
L10046 8340
" />
<path d="M10308 8459
L9758 8459
L9758 8268
L9784 8221
L9810 8197
L9862 8173
L9941 8173
L9993 8197
L10020 8221
L10046 8268
L10046 8459
" />
<path d="M9758 7721
L9758 7959
L10020 7983
L9993 7959
L9967 7911
L9967 7792
L9993 7745
L10020 7721
L10072 7697
L10203 7697
L10255 7721
L10281 7745
L10308 7792
L10308 7911
L10281 7959
L10255 7983
" />
<path d="M11802 10313
L11635 10051
" />
<path d="M11516 10313
L11516 9763
L11707 9763
L11754 9789
L11778 9815
L11802 9867
L11802 9946
L11778 9998
L11754 10025
L11707 10051
L11516 10051
" />
<path d="M12230 9763
L12135 9763
L12087 9789
L12064 9815
L12016 9894
L11992 9998
L11992 10208
L12016 10260
L12040 10286
L12087 10313
L12183 10313
L12230 10286
L12254 10260
L12278 10208
L12278 10077
L12254 10025
L12230 9998
L12183 9972
L12087 9972
L12040 9998
L12016 10025
L11992 10077
" />
<path d="M12002 6413
L11835 6151
" />
<path d="M11716 6413
L11716 5863
L11907 5863
L11954 5889
L11978 5915
L12002 5967
L12002 6046
L11978 6098
L11954 6125
L11907 6151
L11716 6151
" />
<path d="M12168 5863
L12478 5863
L12311 6072
L12383 6072
L12430 6098
L12454 6125
L12478 6177
L12478 6308
L12454 6360
L12430 6386
L12383 6413
L12240 6413
L12192 6386
L12168 6360
" />
<path d="M15002 11813
L14835 11551
" />
<path d="M14716 11813
L14716 11263
L14907 11263
L14954 11289
L14978 11315
L15002 11367
L15002 11446
L14978 11498
L14954 11525
L14907 11551
L14716 11551
" />
<path d="M15478 11813
L15192 11813
" />
<path d="M15335 11813
L15335 11263
L15287 11341
L15240 11394
L15192 11420
" />
<path d="M9002 11813
L8835 11551
" />
<path d="M8716 11813
L8716 11263
L8907 11263
L8954 11289
L8978 11315
L9002 11367
L9002 11446
L8978 11498
L8954 11525
L8907 11551
L8716 11551
" />
<path d="M9430 11446
L9430 11813
" />
<path d="M9311 11236
L9192 11629
L9502 11629
" />
<path d="M14108 8373
L13846 8540
" />
<path d="M14108 8659
L13558 8659
L13558 8468
L13584 8421
L13610 8397
L13662 8373
L13741 8373
L13793 8397
L13820 8421
L13846 8468
L13846 8659
" />
<path d="M13610 8183
L13584 8159
L13558 8111
L13558 7992
L13584 7945
L13610 7921
L13662 7897
L13715 7897
L13793 7921
L14108 8207
L14108 7897
" />
</g>
<g style="fill:#009F9F; fill-opacity:0.0; 
stroke:#009F9F; stroke-width:60; stroke-opacity:1; 
stroke-linecap:round; stroke-linejoin:round;">
<path d="M2206 10212
L1906 10212
L1906 10097
L1921 10069
L1935 10054
L1964 10040
L2006 10040
L2035 10054
L2049 10069
L2064 10097
L2064 10212
" />
<path d="M2206 9754
L2206 9926
" />
<path d="M2206 9840
L1906 9840
L1949 9869
L1978 9897
L1992 9926
" />
<path d="M21906 10462
L21606 10462
L21606 10347
L21621 10319
L21635 10304
L21664 10290
L21706 10290
L21735 10304
L21749 10319
L21764 10347
L21764 10462
" />
<path d="M21606 10190
L21606 9990
L21906 10119
" />
<path d="M1206 10237
L906 10237
L906 10122
L921 10094
L935 10079
L964 10065
L1006 10065
L1035 10079
L1049 10094
L1064 10122
L1064 10237
" />
<path d="M906 9794
L906 9937
L1049 9951
L1035 9937
L1021 9908
L1021 9837
L1035 9808
L1049 9794
L1078 9779
L1149 9779
L1178 9794
L1192 9808
L1206 9837
L1206 9908
L1192 9937
L1178 9951
" />
<path d="M22931 10462
L22631 10462
L22631 10347
L22646 10319
L22660 10304
L22689 10290
L22731 10290
L22760 10304
L22774 10319
L22789 10347
L22789 10462
" />
<path d="M22631 10190
L22631 10004
L22746 10104
L22746 10062
L22760 10033
L22774 10019
L22803 10004
L22874 10004
L22903 10019
L22917 10033
L22931 10062
L22931 10147
L22917 10176
L22903 10190
" />
</g>
<g style="fill:#009F9F; fill-opacity:0.0; 
stroke:#009F9F; stroke-width:80; stroke-opacity:1; 
stroke-linecap:round; stroke-linejoin:round;">
<path d="M2547 6385
L2147 6385
L2147 6232
L2166 6194
L2185 6175
L2223 6156
L2280 6156
L2318 6175
L2337 6194
L2356 6232
L2356 6385
" />
<path d="M2185 6004
L2166 5985
L2147 5947
L2147 5851
L2166 5813
L2185 5794
L2223 5775
L2261 5775
L2318 5794
L2547 6023
L2547 5775
" />
<path d="M23622 5785
L23222 5785
L23222 5632
L23241 5594
L23260 5575
L23298 5556
L23355 5556
L23393 5575
L23412 5594
L23431 5632
L23431 5785
" />
<path d="M23355 5213
L23622 5213
" />
<path d="M23203 5309
L23489 5404
L23489 5156
" />
<path d="M4297 6385
L3897 6385
L3897 6232
L3916 6194
L3935 6175
L3973 6156
L4030 6156
L4068 6175
L4087 6194
L4106 6232
L4106 6385
" />
<path d="M3897 5813
L3897 5890
L3916 5928
L3935 5947
L3992 5985
L4068 6004
L4221 6004
L4259 5985
L4278 5966
L4297 5928
L4297 5851
L4278 5813
L4259 5794
L4221 5775
L4125 5775
L4087 5794
L4068 5813
L4049 5851
L4049 5928
L4068 5966
L4087 5985
L4125 6004
" />
<path d="M22097 5785
L21697 5785
L21697 5632
L21716 5594
L21735 5575
L21773 5556
L21830 5556
L21868 5575
L21887 5594
L21906 5632
L21906 5785
" />
<path d="M21868 5328
L21849 5366
L21830 5385
L21792 5404
L21773 5404
L21735 5385
L21716 5366
L21697 5328
L21697 5251
L21716 5213
L21735 5194
L21773 5175
L21792 5175
L21830 5194
L21849 5213
L21868 5251
L21868 5328
L21887 5366
L21906 5385
L21945 5404
L22021 5404
L22059 5385
L22078 5366
L22097 5328
L22097 5251
L22078 5213
L22059 5194
L22021 5175
L21945 5175
L21906 5194
L21887 5213
L21868 5251
" />
</g>
<g style="fill:#009F9F; fill-opacity:0.0; 
stroke:#009F9F; stroke-width:35; stroke-opacity:1; 
stroke-linecap:round; stroke-linejoin:round;">
<path d="M11763 6811
L11763 6511
L11835 6511
L11878 6526
L11906 6554
L11921 6583
L11935 6640
L11935 6683
L11921 6740
L11906 6769
L11878 6797
L11835 6811
L11763 6811
" />
<path d="M12221 6811
L12049 6811
" />
<path d="M12135 6811
L12135 6511
L12106 6554
L12078 6583
L12049 6597
" />
<path d="M11792 9811
L11649 9811
L11649 9511
" />
<path d="M11892 9654
L11992 9654
" />
<path d="M12035 9811
L11892 9811
L11892 9511
L12035 9511
" />
<path d="M12163 9811
L12163 9511
L12235 9511
L12278 9526
L12306 9554
L12321 9583
L12335 9640
L12335 9683
L12321 9740
L12306 9769
L12278 9797
L12235 9811
L12163 9811
" />
</g>
<g style="fill:#009F9F; fill-opacity:0.0; 
stroke:#009F9F; stroke-width:50; stroke-opacity:1; 
stroke-linecap:round; stroke-linejoin:round;">
<path d="M16763 6911
L16763 6611
L16835 6611
L16878 6626
L16906 6654
L16921 6683
L16935 6740
L16935 6783
L16921 6840
L16906 6869
L16878 6897
L16835 6911
L16763 6911
" />
<path d="M17049 6640
L17063 6626
L17092 6611
L17163 6611
L17192 6626
L17206 6640
L17221 6669
L17221 6697
L17206 6740
L17035 6911
L17221 6911
" />
<path d="M16792 5911
L16649 5911
L16649 5611
" />
<path d="M16892 5754
L16992 5754
" />
<path d="M17035 5911
L16892 5911
L16892 5611
L17035 5611
" />
<path d="M17163 5911
L17163 5611
L17235 5611
L17278 5626
L17306 5654
L17321 5683
L17335 5740
L17335 5783
L17321 5840
L17306 5869
L17278 5897
L17235 5911
L17163 5911
" />
<path d="M6763 6911
L6763 6611
L6835 6611
L6878 6626
L6906 6654
L6921 6683
L6935 6740
L6935 6783
L6921 6840
L6906 6869
L6878 6897
L6835 6911
L6763 6911
" />
<path d="M7035 6611
L7221 6611
L7121 6726
L7163 6726
L7192 6740
L7206 6754
L7221 6783
L7221 6854
L7206 6883
L7192 6897
L7163 6911
L7078 6911
L7049 6897
L7035 6883
" />
<path d="M6792 5911
L6649 5911
L6649 5611
" />
<path d="M6892 5754
L6992 5754
" />
<path d="M7035 5911
L6892 5911
L6892 5611
L7035 5611
" />
<path d="M7163 5911
L7163 5611
L7235 5611
L7278 5626
L7306 5654
L7321 5683
L7335 5740
L7335 5783
L7321 5840
L7306 5869
L7278 5897
L7235 5911
L7163 5911
" />
<path d="M9706 4112
L9406 4112
L9406 4040
L9421 3997
L9449 3969
L9478 3954
L9535 3940
L9578 3940
L9635 3954
L9664 3969
L9692 3997
L9706 4040
L9706 4112
" />
<path d="M9506 3683
L9706 3683
" />
<path d="M9392 3754
L9606 3826
L9606 3640
" />
<path d="M10706 4083
L10706 4226
L10406 4226
" />
<path d="M10549 3983
L10549 3883
" />
<path d="M10706 3840
L10706 3983
L10406 3983
L10406 3840
" />
<path d="M10706 3712
L10406 3712
L10406 3640
L10421 3597
L10449 3569
L10478 3554
L10535 3540
L10578 3540
L10635 3554
L10664 3569
L10692 3597
L10706 3640
L10706 3712
" />
<path d="M13606 12712
L13306 12712
L13306 12640
L13321 12597
L13349 12569
L13378 12554
L13435 12540
L13478 12540
L13535 12554
L13564 12569
L13592 12597
L13606 12640
L13606 12712
" />
<path d="M13306 12269
L13306 12412
L13449 12426
L13435 12412
L13421 12383
L13421 12312
L13435 12283
L13449 12269
L13478 12254
L13549 12254
L13578 12269
L13592 12283
L13606 12312
L13606 12383
L13592 12412
L13578 12426
" />
<path d="M14606 12683
L14606 12826
L14306 12826
" />
<path d="M14449 12583
L14449 12483
" />
<path d="M14606 12440
L14606 12583
L14306 12583
L14306 12440
" />
<path d="M14606 12312
L14306 12312
L14306 12240
L14321 12197
L14349 12169
L14378 12154
L14435 12140
L14478 12140
L14535 12154
L14564 12169
L14592 12197
L14606 12240
L14606 12312
" />
<path d="M7035 4082
L7021 4096
L6978 4110
L6949 4110
L6906 4096
L6878 4068
L6863 4039
L6849 3982
L6849 3939
L6863 3882
L6878 3853
L6906 3825
L6949 3810
L6978 3810
L7021 3825
L7035 3839
" />
<path d="M7321 4110
L7149 4110
" />
<path d="M7235 4110
L7235 3810
L7206 3853
L7178 3882
L7149 3896
" />
<path d="M6794 2911
L6794 3111
" />
<path d="M6734 2797
L6675 3011
L6829 3011
" />
<path d="M6901 2811
L7067 2811
L6960 3111
" />
<path d="M7270 2911
L7270 3111
" />
<path d="M7163 2911
L7163 3069
L7174 3097
L7198 3111
L7234 3111
L7258 3097
L7270 3083
" />
<path d="M7472 2954
L7389 2954
" />
<path d="M7389 3111
L7389 2811
L7508 2811
" />
</g>
<g style="fill:#009F9F; fill-opacity:0.0; 
stroke:#009F9F; stroke-width:80; stroke-opacity:1; 
stroke-linecap:round; stroke-linejoin:round;">
</g>
<g style="fill:#009F9F; fill-opacity:0.0; 
stroke:#009F9F; stroke-width:75; stroke-opacity:1; 
stroke-linecap:round; stroke-linejoin:round;">
<path d="M7871 3497
L8100 3497
" />
<path d="M7986 3611
L7986 3383
" />
</g>
<g style="fill:#009F9F; fill-opacity:0.0; 
stroke:#009F9F; stroke-width:80; stroke-opacity:1; 
stroke-linecap:round; stroke-linejoin:round;">
</g>
<g style="fill:#009F9F; fill-opacity:0.0; 
stroke:#009F9F; stroke-width:50; stroke-opacity:1; 
stroke-linecap:round; stroke-linejoin:round;">
<path d="M16935 4082
L16921 4096
L16878 4110
L16849 4110
L16806 4096
L16778 4068
L16763 4039
L16749 3982
L16749 3939
L16763 3882
L16778 3853
L16806 3825
L16849 3810
L16878 3810
L16921 3825
L16935 3839
" />
<path d="M17049 3839
L17063 3825
L17092 3810
L17163 3810
L17192 3825
L17206 3839
L17221 3868
L17221 3896
L17206 3939
L17035 4110
L17221 4110
" />
<path d="M16694 2911
L16694 3111
" />
<path d="M16634 2797
L16575 3011
L16729 3011
" />
<path d="M16801 2811
L16967 2811
L16860 3111
" />
<path d="M17170 2911
L17170 3111
" />
<path d="M17063 2911
L17063 3069
L17074 3097
L17098 3111
L17134 3111
L17158 3097
L17170 3083
" />
<path d="M17372 2954
L17289 2954
" />
<path d="M17289 3111
L17289 2811
L17408 2811
" />
</g>
<g style="fill:#009F9F; fill-opacity:0.0; 
stroke:#009F9F; stroke-width:80; stroke-opacity:1; 
stroke-linecap:round; stroke-linejoin:round;">
</g>
<g style="fill:#009F9F; fill-opacity:0.0; 
stroke:#009F9F; stroke-width:75; stroke-opacity:1; 
stroke-linecap:round; stroke-linejoin:round;">
<path d="M17771 3497
L18000 3497
" />
<path d="M17886 3611
L17886 3383
" />
</g>
<g style="fill:#009F9F; fill-opacity:0.0; 
stroke:#009F9F; stroke-width:80; stroke-opacity:1; 
stroke-linecap:round; stroke-linejoin:round;">
</g>
<g style="fill:#009F9F; fill-opacity:0.0; 
stroke:#009F9F; stroke-width:150; stroke-opacity:1; 
stroke-linecap:round; stroke-linejoin:round;">
<path d="M17385 13604 A1414 1414 0.0 0 0 18799 12190 " />
<path d="M15759 12402
L17173 13816
" />
<path d="M17173 13816
L19011 11978
" />
<path d="M19011 11978
L17597 10564
" />
<path d="M17597 10564
L15759 12402
" />
<path d="M5071 12190 A1414 1414 0.0 0 0 6485 13604 " />
<path d="M6273 10564
L4859 11978
" />
<path d="M4859 11978
L6697 13816
" />
<path d="M6697 13816
L8111 12402
" />
<path d="M8111 12402
L6273 10564
" />
<path d="M12984.8 2490.15 A1414 1414 0.0 0 0 10985.2 2490.15 " />
<path d="M13285 4490
L13285 2490
" />
<path d="M13285 2490
L10685 2490
" />
<path d="M10685 2490
L10685 4490
" />
<path d="M10685 4490
L13285 4490
" />
<path d="M6285.15 7190.15 A1414 1414 0.0 0 0 6285.15 9189.85 " />
<path d="M8285 6890
L6285 6890
" />
<path d="M6285 6890
L6285 9490
" />
<path d="M6285 9490
L8285 9490
" />
<path d="M8285 9490
L8285 6890
" />
<path d="M17684.8 9189.85 A1414 1414 0.0 0 0 17684.8 7190.15 " />
<path d="M15685 9490
L17685 9490
" />
<path d="M17685 9490
L17685 6890
" />
<path d="M17685 6890
L15685 6890
" />
<path d="M15685 6890
L15685 9490
" />
<path d="M10985.2 13889.8 A1414 1414 0.0 0 0 12984.8 13889.8 " />
<path d="M10685 11890
L10685 13890
" />
<path d="M10685 13890
L13285 13890
" />
<path d="M13285 13890
L13285 11890
" />
<path d="M13285 11890
L10685 11890
" />
</g>
<g style="fill:#009F9F; fill-opacity:0.0; 
stroke:#009F9F; stroke-width:120; stroke-opacity:1; 
stroke-linecap:round; stroke-linejoin:round;">
<path d="M13931 3229
L13931 5351
" />
<path d="M13931 5351
L14285 5704
" />
<path d="M14285 5704
L14992 5704
" />
<path d="M14992 5704
L15699 4997
" />
<path d="M15699 4997
L15699 3583
" />
<path d="M15699 3583
L14992 2876
" />
<path d="M14992 2876
L14285 2876
" />
<path d="M14285 2876
L13931 3229
" />
</g>
<g style="fill:#009F9F; fill-opacity:0.0; 
stroke:#009F9F; stroke-width:50; stroke-opacity:1; 
stroke-linecap:round; stroke-linejoin:round;">
<circle cx="10285" cy="13140" r="50" /> 
<path d="M10285 12690
L10285 13090
" />
<path d="M10285 13090
L9685 13090
" />
<path d="M9685 13090
L9685 12690
" />
<path d="M9685 12290
L9685 11890
" />
<path d="M9685 11890
L10285 11890
" />
<path d="M10285 11890
L10285 12290
" />
<circle cx="9485" cy="4440" r="50" /> 
<path d="M9485 3990
L9485 4390
" />
<path d="M9485 4390
L8885 4390
" />
<path d="M8885 4390
L8885 3990
" />
<path d="M8885 3590
L8885 3190
" />
<path d="M8885 3190
L9485 3190
" />
<path d="M9485 3190
L9485 3590
" />
<circle cx="7535" cy="5090" r="50" /> 
<path d="M7085 5090
L7485 5090
" />
<path d="M7485 5090
L7485 5690
" />
<path d="M7485 5690
L7085 5690
" />
<path d="M6685 5690
L6285 5690
" />
<path d="M6285 5690
L6285 5090
" />
<path d="M6285 5090
L6685 5090
" />
<circle cx="17735" cy="5090" r="50" /> 
<path d="M17285 5090
L17685 5090
" />
<path d="M17685 5090
L17685 5690
" />
<path d="M17685 5690
L17285 5690
" />
<path d="M16885 5690
L16485 5690
" />
<path d="M16485 5690
L16485 5090
" />
<path d="M16485 5090
L16885 5090
" />
</g>
<g style="fill:#009F9F; fill-opacity:0.0; 
stroke:#009F9F; stroke-width:150; stroke-opacity:1; 
stroke-linecap:round; stroke-linejoin:round;">
<path d="M9085 8190
L9085 7190
" />
<circle cx="9085" cy="8190" r="559" /> 
<path d="M11985 11090
L10985 11090
" />
<circle cx="11985" cy="11090" r="559" /> 
<path d="M11985 5190
L12985 5190
" />
<circle cx="11985" cy="5190" r="559" /> 
<path d="M14985 10590
L15985 10590
" />
<circle cx="14985" cy="10590" r="559" /> 
<path d="M9085 10590
L8085 10590
" />
<circle cx="9085" cy="10590" r="559" /> 
<path d="M14885 8190
L14885 9190
" />
<circle cx="14885" cy="8190" r="559" /> 
</g>
<g style="fill:#009F9F; fill-opacity:0.0; 
stroke:#009F9F; stroke-width:60; stroke-opacity:1; 
stroke-linecap:round; stroke-linejoin:round;">
<path d="M4485 11090
L3485 11090
" />
<path d="M3485 11090
L3485 9090
" />
<path d="M3485 9090
L4485 9090
" />
<path d="M4485 9090
L4485 11090
" />
<path d="M19485 11090
L18485 11090
" />
<path d="M18485 11090
L18485 9090
" />
<path d="M18485 9090
L19485 9090
" />
<path d="M19485 9090
L19485 11090
" />
<path d="M5485 11090
L4485 11090
" />
<path d="M4485 11090
L4485 9090
" />
<path d="M4485 9090
L5485 9090
" />
<path d="M5485 9090
L5485 11090
" />
<path d="M20485 11090
L19485 11090
" />
<path d="M19485 11090
L19485 9090
" />
<path d="M19485 9090
L20485 9090
" />
<path d="M20485 9090
L20485 11090
" />
</g>
<g style="fill:#009F9F; fill-opacity:0.0; 
stroke:#009F9F; stroke-width:120; stroke-opacity:1; 
stroke-linecap:round; stroke-linejoin:round;">
<path d="M4485 9090
L3485 9090
" />
<path d="M3485 9090
L3485 3090
" />
<path d="M3485 3090
L4485 3090
" />
<path d="M4485 3090
L4485 9090
" />
<path d="M4485 8090
L3485 8090
" />
<path d="M20485 9090
L19485 9090
" />
<path d="M19485 9090
L19485 3090
" />
<path d="M19485 3090
L20485 3090
" />
<path d="M20485 3090
L20485 9090
" />
<path d="M20485 8090
L19485 8090
" />
<path d="M5485 9090
L4485 9090
" />
<path d="M4485 9090
L4485 3090
" />
<path d="M4485 3090
L5485 3090
" />
<path d="M5485 3090
L5485 9090
" />
<path d="M5485 8090
L4485 8090
" />
<path d="M19485 9090
L18485 9090
" />
<path d="M18485 9090
L18485 3090
" />
<path d="M18485 3090
L19485 3090
" />
<path d="M19485 3090
L19485 9090
" />
<path d="M19485 8090
L18485 8090
" />
</g>
<g style="fill:#009F9F; fill-opacity:0.0; 
stroke:#009F9F; stroke-width:80; stroke-opacity:1; 
stroke-linecap:round; stroke-linejoin:round;">
<path d="M13105 8940
L13105 7440
" />
</g>
<g style="fill:#009F9F; fill-opacity:0.0; 
stroke:#009F9F; stroke-width:30; stroke-opacity:1; 
stroke-linecap:round; stroke-linejoin:round;">
<circle cx="12085" cy="8190" r="707" /> 
</g>
<g style="fill:#009F9F; fill-opacity:0.0; 
stroke:#009F9F; stroke-width:100; stroke-opacity:1; 
stroke-linecap:round; stroke-linejoin:round;">
<path d="M13084.6 7439.47 A1250 1250 0.0 1 0 13084.6 8940.53 " />
</g>
<g style="fill:#009F9F; fill-opacity:0.0; 
stroke:#009F9F; stroke-width:60; stroke-opacity:1; 
stroke-linecap:round; stroke-linejoin:round;">
<path d="M12085 7740 A450 450 0.0 0 0 11635 8190 " />
<path d="M12085 8640 A450 450 0.0 0 0 12535 8190 " />
<path d="M12085 7540 A650 650 0.0 0 0 11435 8190 " />
<path d="M12085 8840 A650 650 0.0 0 0 12735 8190 " />
<path d="M12085 7340 A850 850 0.0 0 0 11235 8190 " />
<path d="M12085 9040 A850 850 0.0 0 0 12935 8190 " />
</g>
<g style="fill:#009F9F; fill-opacity:0.0; 
stroke:#009F9F; stroke-width:26; stroke-opacity:1; 
stroke-linecap:round; stroke-linejoin:round;">
<path d="M16789 6172
L16789 6044
" />
<path d="M16789 6044
L16592 6044
" />
<path d="M16592 6172
L16592 6044
" />
<path d="M16789 6172
L16592 6172
" />
<path d="M16789 6417
L16789 6358
" />
<path d="M16789 6358
L16690 6358
" />
<path d="M16690 6417
L16690 6358
" />
<path d="M16789 6417
L16690 6417
" />
<path d="M16789 6222
L16789 6163
" />
<path d="M16789 6163
L16690 6163
" />
<path d="M16690 6222
L16690 6163
" />
<path d="M16789 6222
L16690 6222
" />
<path d="M16789 6368
L16789 6212
" />
<path d="M16789 6212
L16720 6212
" />
<path d="M16720 6368
L16720 6212
" />
<path d="M16789 6368
L16720 6368
" />
<path d="M17378 6172
L17378 6044
" />
<path d="M17378 6044
L17181 6044
" />
<path d="M17181 6172
L17181 6044
" />
<path d="M17378 6172
L17181 6172
" />
<path d="M17378 6536
L17378 6408
" />
<path d="M17378 6408
L17181 6408
" />
<path d="M17181 6536
L17181 6408
" />
<path d="M17378 6536
L17181 6536
" />
<path d="M17280 6222
L17280 6163
" />
<path d="M17280 6163
L17181 6163
" />
<path d="M17181 6222
L17181 6163
" />
<path d="M17280 6222
L17181 6222
" />
<path d="M17280 6417
L17280 6358
" />
<path d="M17280 6358
L17181 6358
" />
<path d="M17181 6417
L17181 6358
" />
<path d="M17280 6417
L17181 6417
" />
<path d="M17250 6368
L17250 6212
" />
<path d="M17250 6212
L17181 6212
" />
<path d="M17181 6368
L17181 6212
" />
<path d="M17250 6368
L17181 6368
" />
<path d="M16985 6329
L16985 6251
" />
<path d="M16985 6251
L16907 6251
" />
<path d="M16907 6329
L16907 6251
" />
<path d="M16985 6329
L16907 6329
" />
<path d="M16789 6526
L16789 6408
" />
<path d="M16789 6408
L16671 6408
" />
<path d="M16671 6526
L16671 6408
" />
<path d="M16789 6526
L16671 6526
" />
<path d="M16621 6536
L16621 6447
" />
<path d="M16621 6447
L16592 6447
" />
<path d="M16592 6536
L16592 6447
" />
<path d="M16621 6536
L16592 6536
" />
</g>
<g style="fill:#009F9F; fill-opacity:0.0; 
stroke:#009F9F; stroke-width:40; stroke-opacity:1; 
stroke-linecap:round; stroke-linejoin:round;">
<path d="M16779 6064
L17191 6064
" />
<path d="M17181 6516
L16621 6516
" />
</g>
<g style="fill:#009F9F; fill-opacity:0.0; 
stroke:#009F9F; stroke-width:20; stroke-opacity:1; 
stroke-linecap:round; stroke-linejoin:round;">
<circle cx="16651" cy="6467" r="28" /> 
</g>
<g style="fill:#009F9F; fill-opacity:0.0; 
stroke:#009F9F; stroke-width:40; stroke-opacity:1; 
stroke-linecap:round; stroke-linejoin:round;">
<path d="M16592 6427 A137 137 0.0 0 0 16592 6153 " />
<path d="M17378 6153 A137 137 0.0 0 0 17378 6427 " />
</g>
<g style="fill:#009F9F; fill-opacity:0.0; 
stroke:#009F9F; stroke-width:26; stroke-opacity:1; 
stroke-linecap:round; stroke-linejoin:round;">
<path d="M6789 6172
L6789 6044
" />
<path d="M6789 6044
L6592 6044
" />
<path d="M6592 6172
L6592 6044
" />
<path d="M6789 6172
L6592 6172
" />
<path d="M6789 6417
L6789 6358
" />
<path d="M6789 6358
L6690 6358
" />
<path d="M6690 6417
L6690 6358
" />
<path d="M6789 6417
L6690 6417
" />
<path d="M6789 6222
L6789 6163
" />
<path d="M6789 6163
L6690 6163
" />
<path d="M6690 6222
L6690 6163
" />
<path d="M6789 6222
L6690 6222
" />
<path d="M6789 6368
L6789 6212
" />
<path d="M6789 6212
L6720 6212
" />
<path d="M6720 6368
L6720 6212
" />
<path d="M6789 6368
L6720 6368
" />
<path d="M7378 6172
L7378 6044
" />
<path d="M7378 6044
L7181 6044
" />
<path d="M7181 6172
L7181 6044
" />
<path d="M7378 6172
L7181 6172
" />
<path d="M7378 6536
L7378 6408
" />
<path d="M7378 6408
L7181 6408
" />
<path d="M7181 6536
L7181 6408
" />
<path d="M7378 6536
L7181 6536
" />
<path d="M7280 6222
L7280 6163
" />
<path d="M7280 6163
L7181 6163
" />
<path d="M7181 6222
L7181 6163
" />
<path d="M7280 6222
L7181 6222
" />
<path d="M7280 6417
L7280 6358
" />
<path d="M7280 6358
L7181 6358
" />
<path d="M7181 6417
L7181 6358
" />
<path d="M7280 6417
L7181 6417
" />
<path d="M7250 6368
L7250 6212
" />
<path d="M7250 6212
L7181 6212
" />
<path d="M7181 6368
L7181 6212
" />
<path d="M7250 6368
L7181 6368
" />
<path d="M6985 6329
L6985 6251
" />
<path d="M6985 6251
L6907 6251
" />
<path d="M6907 6329
L6907 6251
" />
<path d="M6985 6329
L6907 6329
" />
<path d="M6789 6526
L6789 6408
" />
<path d="M6789 6408
L6671 6408
" />
<path d="M6671 6526
L6671 6408
" />
<path d="M6789 6526
L6671 6526
" />
<path d="M6621 6536
L6621 6447
" />
<path d="M6621 6447
L6592 6447
" />
<path d="M6592 6536
L6592 6447
" />
<path d="M6621 6536
L6592 6536
" />
</g>
<g style="fill:#009F9F; fill-opacity:0.0; 
stroke:#009F9F; stroke-width:40; stroke-opacity:1; 
stroke-linecap:round; stroke-linejoin:round;">
<path d="M6779 6064
L7191 6064
" />
<path d="M7181 6516
L6621 6516
" />
</g>
<g style="fill:#009F9F; fill-opacity:0.0; 
stroke:#009F9F; stroke-width:20; stroke-opacity:1; 
stroke-linecap:round; stroke-linejoin:round;">
<circle cx="6651" cy="6467" r="28" /> 
</g>
<g style="fill:#009F9F; fill-opacity:0.0; 
stroke:#009F9F; stroke-width:40; stroke-opacity:1; 
stroke-linecap:round; stroke-linejoin:round;">
<path d="M6592 6427 A137 137 0.0 0 0 6592 6153 " />
<path d="M7378 6153 A137 137 0.0 0 0 7378 6427 " />
</g>
<g style="fill:#009F9F; fill-opacity:0.0; 
stroke:#009F9F; stroke-width:26; stroke-opacity:1; 
stroke-linecap:round; stroke-linejoin:round;">
<path d="M10203 3694
L10331 3694
" />
<path d="M10331 3694
L10331 3497
" />
<path d="M10203 3497
L10331 3497
" />
<path d="M10203 3694
L10203 3497
" />
<path d="M9958 3694
L10017 3694
" />
<path d="M10017 3694
L10017 3595
" />
<path d="M9958 3595
L10017 3595
" />
<path d="M9958 3694
L9958 3595
" />
<path d="M10153 3694
L10212 3694
" />
<path d="M10212 3694
L10212 3595
" />
<path d="M10153 3595
L10212 3595
" />
<path d="M10153 3694
L10153 3595
" />
<path d="M10007 3694
L10163 3694
" />
<path d="M10163 3694
L10163 3625
" />
<path d="M10007 3625
L10163 3625
" />
<path d="M10007 3694
L10007 3625
" />
<path d="M10203 4283
L10331 4283
" />
<path d="M10331 4283
L10331 4086
" />
<path d="M10203 4086
L10331 4086
" />
<path d="M10203 4283
L10203 4086
" />
<path d="M9839 4283
L9967 4283
" />
<path d="M9967 4283
L9967 4086
" />
<path d="M9839 4086
L9967 4086
" />
<path d="M9839 4283
L9839 4086
" />
<path d="M10153 4185
L10212 4185
" />
<path d="M10212 4185
L10212 4086
" />
<path d="M10153 4086
L10212 4086
" />
<path d="M10153 4185
L10153 4086
" />
<path d="M9958 4185
L10017 4185
" />
<path d="M10017 4185
L10017 4086
" />
<path d="M9958 4086
L10017 4086
" />
<path d="M9958 4185
L9958 4086
" />
<path d="M10007 4155
L10163 4155
" />
<path d="M10163 4155
L10163 4086
" />
<path d="M10007 4086
L10163 4086
" />
<path d="M10007 4155
L10007 4086
" />
<path d="M10046 3890
L10124 3890
" />
<path d="M10124 3890
L10124 3812
" />
<path d="M10046 3812
L10124 3812
" />
<path d="M10046 3890
L10046 3812
" />
<path d="M9849 3694
L9967 3694
" />
<path d="M9967 3694
L9967 3576
" />
<path d="M9849 3576
L9967 3576
" />
<path d="M9849 3694
L9849 3576
" />
<path d="M9839 3526
L9928 3526
" />
<path d="M9928 3526
L9928 3497
" />
<path d="M9839 3497
L9928 3497
" />
<path d="M9839 3526
L9839 3497
" />
</g>
<g style="fill:#009F9F; fill-opacity:0.0; 
stroke:#009F9F; stroke-width:40; stroke-opacity:1; 
stroke-linecap:round; stroke-linejoin:round;">
<path d="M10311 3684
L10311 4096
" />
<path d="M9859 4086
L9859 3526
" />
</g>
<g style="fill:#009F9F; fill-opacity:0.0; 
stroke:#009F9F; stroke-width:20; stroke-opacity:1; 
stroke-linecap:round; stroke-linejoin:round;">
<circle cx="9908" cy="3556" r="28" /> 
</g>
<g style="fill:#009F9F; fill-opacity:0.0; 
stroke:#009F9F; stroke-width:40; stroke-opacity:1; 
stroke-linecap:round; stroke-linejoin:round;">
<path d="M9948 3497 A137 137 0.0 0 0 10222 3497 " />
<path d="M10222 4283 A137 137 0.0 0 0 9948 4283 " />
</g>
<g style="fill:#009F9F; fill-opacity:0.0; 
stroke:#009F9F; stroke-width:26; stroke-opacity:1; 
stroke-linecap:round; stroke-linejoin:round;">
<path d="M14103 12294
L14231 12294
" />
<path d="M14231 12294
L14231 12097
" />
<path d="M14103 12097
L14231 12097
" />
<path d="M14103 12294
L14103 12097
" />
<path d="M13858 12294
L13917 12294
" />
<path d="M13917 12294
L13917 12195
" />
<path d="M13858 12195
L13917 12195
" />
<path d="M13858 12294
L13858 12195
" />
<path d="M14053 12294
L14112 12294
" />
<path d="M14112 12294
L14112 12195
" />
<path d="M14053 12195
L14112 12195
" />
<path d="M14053 12294
L14053 12195
" />
<path d="M13907 12294
L14063 12294
" />
<path d="M14063 12294
L14063 12225
" />
<path d="M13907 12225
L14063 12225
" />
<path d="M13907 12294
L13907 12225
" />
<path d="M14103 12883
L14231 12883
" />
<path d="M14231 12883
L14231 12686
" />
<path d="M14103 12686
L14231 12686
" />
<path d="M14103 12883
L14103 12686
" />
<path d="M13739 12883
L13867 12883
" />
<path d="M13867 12883
L13867 12686
" />
<path d="M13739 12686
L13867 12686
" />
<path d="M13739 12883
L13739 12686
" />
<path d="M14053 12785
L14112 12785
" />
<path d="M14112 12785
L14112 12686
" />
<path d="M14053 12686
L14112 12686
" />
<path d="M14053 12785
L14053 12686
" />
<path d="M13858 12785
L13917 12785
" />
<path d="M13917 12785
L13917 12686
" />
<path d="M13858 12686
L13917 12686
" />
<path d="M13858 12785
L13858 12686
" />
<path d="M13907 12755
L14063 12755
" />
<path d="M14063 12755
L14063 12686
" />
<path d="M13907 12686
L14063 12686
" />
<path d="M13907 12755
L13907 12686
" />
<path d="M13946 12490
L14024 12490
" />
<path d="M14024 12490
L14024 12412
" />
<path d="M13946 12412
L14024 12412
" />
<path d="M13946 12490
L13946 12412
" />
<path d="M13749 12294
L13867 12294
" />
<path d="M13867 12294
L13867 12176
" />
<path d="M13749 12176
L13867 12176
" />
<path d="M13749 12294
L13749 12176
" />
<path d="M13739 12126
L13828 12126
" />
<path d="M13828 12126
L13828 12097
" />
<path d="M13739 12097
L13828 12097
" />
<path d="M13739 12126
L13739 12097
" />
</g>
<g style="fill:#009F9F; fill-opacity:0.0; 
stroke:#009F9F; stroke-width:40; stroke-opacity:1; 
stroke-linecap:round; stroke-linejoin:round;">
<path d="M14211 12284
L14211 12696
" />
<path d="M13759 12686
L13759 12126
" />
</g>
<g style="fill:#009F9F; fill-opacity:0.0; 
stroke:#009F9F; stroke-width:20; stroke-opacity:1; 
stroke-linecap:round; stroke-linejoin:round;">
<circle cx="13808" cy="12156" r="28" /> 
</g>
<g style="fill:#009F9F; fill-opacity:0.0; 
stroke:#009F9F; stroke-width:40; stroke-opacity:1; 
stroke-linecap:round; stroke-linejoin:round;">
<path d="M13848 12097 A137 137 0.0 0 0 14122 12097 " />
<path d="M14122 12883 A137 137 0.0 0 0 13848 12883 " />
</g>
<g style="fill:#009F9F; fill-opacity:0.0; 
stroke:#009F9F; stroke-width:50; stroke-opacity:1; 
stroke-linecap:round; stroke-linejoin:round;">
<circle cx="7085" cy="3490" r="1001" /> 
<circle cx="16985" cy="3490" r="1001" /> 
</g>
<g style="fill:#7F7F00; fill-opacity:0.0; 
stroke:#7F7F00; stroke-width:60; stroke-opacity:1; 
stroke-linecap:round; stroke-linejoin:round;">
</g>
<g style="fill:#7F7F00; fill-opacity:1.0; 
stroke:#7F7F00; stroke-width:60; stroke-opacity:1; 
stroke-linecap:round; stroke-linejoin:round;">
<circle cx="16678" cy="12897" r="270" /> 
<circle cx="17385" cy="12190" r="270" /> 
<circle cx="18092" cy="11483" r="270" /> 
<circle cx="5778" cy="11483" r="270" /> 
<circle cx="6485" cy="12190" r="270" /> 
<circle cx="7192" cy="12897" r="270" /> 
<circle cx="12985" cy="3490" r="270" /> 
<circle cx="11985" cy="3490" r="270" /> 
<circle cx="10985" cy="3490" r="270" /> 
<circle cx="7285" cy="7190" r="270" /> 
<circle cx="7285" cy="8190" r="270" /> 
<circle cx="7285" cy="9190" r="270" /> 
<circle cx="16685" cy="9190" r="270" /> 
<circle cx="16685" cy="8190" r="270" /> 
<circle cx="16685" cy="7190" r="270" /> 
<circle cx="10985" cy="12890" r="270" /> 
<circle cx="11985" cy="12890" r="270" /> 
<circle cx="12985" cy="12890" r="270" /> 
<polyline style="fill-rule:evenodd;"
points="14285,4651
14631,4997
14285,5343
13939,4997
14285,4651
" /> 
<circle cx="14992" cy="4290" r="245" /> 
<circle cx="14285" cy="3583" r="245" /> 
</g>
<g style="fill:#9F0000; fill-opacity:1.0; 
stroke:#9F0000; stroke-width:60; stroke-opacity:1; 
stroke-linecap:round; stroke-linejoin:round;">
<polyline style="fill-rule:evenodd;"
points="10230,13010
9740,13010
9740,12720
10230,12720
10230,13010
" /> 
<polyline style="fill-rule:evenodd;"
points="10230,12260
9740,12260
9740,11970
10230,11970
10230,12260
" /> 
<polyline style="fill-rule:evenodd;"
points="9430,4310
8940,4310
8940,4020
9430,4020
9430,4310
" /> 
<polyline style="fill-rule:evenodd;"
points="9430,3560
8940,3560
8940,3270
9430,3270
9430,3560
" /> 
<polyline style="fill-rule:evenodd;"
points="7405,5145
7405,5635
7115,5635
7115,5145
7405,5145
" /> 
<polyline style="fill-rule:evenodd;"
points="6655,5145
6655,5635
6365,5635
6365,5145
6655,5145
" /> 
<polyline style="fill-rule:evenodd;"
points="17605,5145
17605,5635
17315,5635
17315,5145
17605,5145
" /> 
<polyline style="fill-rule:evenodd;"
points="16855,5145
16855,5635
16565,5635
16565,5145
16855,5145
" /> 
</g>
<g style="fill:#7F7F00; fill-opacity:1.0; 
stroke:#7F7F00; stroke-width:60; stroke-opacity:1; 
stroke-linecap:round; stroke-linejoin:round;">
<circle cx="9085" cy="8190" r="245" /> 
<circle cx="9085" cy="7190" r="245" /> 
<circle cx="11985" cy="11090" r="245" /> 
<circle cx="10985" cy="11090" r="245" /> 
<circle cx="11985" cy="5190" r="245" /> 
<circle cx="12985" cy="5190" r="245" /> 
<circle cx="14985" cy="10590" r="245" /> 
<circle cx="15985" cy="10590" r="245" /> 
<circle cx="9085" cy="10590" r="245" /> 
<circle cx="8085" cy="10590" r="245" /> 
<circle cx="14885" cy="8190" r="245" /> 
<circle cx="14885" cy="9190" r="245" /> 
<polyline style="fill-rule:evenodd;"
points="4255,10860
3715,10860
3715,10320
4255,10320
4255,10860
" /> 
<circle cx="3985" cy="9590" r="270" /> 
<polyline style="fill-rule:evenodd;"
points="19255,10860
18715,10860
18715,10320
19255,10320
19255,10860
" /> 
<circle cx="18985" cy="9590" r="270" /> 
<polyline style="fill-rule:evenodd;"
points="5255,10860
4715,10860
4715,10320
5255,10320
5255,10860
" /> 
<circle cx="4985" cy="9590" r="270" /> 
<polyline style="fill-rule:evenodd;"
points="20255,10860
19715,10860
19715,10320
20255,10320
20255,10860
" /> 
<circle cx="19985" cy="9590" r="270" /> 
<polyline style="fill-rule:evenodd;"
points="4255,8860
3715,8860
3715,8320
4255,8320
4255,8860
" /> 
<circle cx="3985" cy="7590" r="270" /> 
<circle cx="3985" cy="6590" r="270" /> 
<circle cx="3985" cy="5590" r="270" /> 
<circle cx="3985" cy="4590" r="270" /> 
<circle cx="3985" cy="3590" r="270" /> 
<polyline style="fill-rule:evenodd;"
points="20255,8860
19715,8860
19715,8320
20255,8320
20255,8860
" /> 
<circle cx="19985" cy="7590" r="270" /> 
<circle cx="19985" cy="6590" r="270" /> 
<circle cx="19985" cy="5590" r="270" /> 
<circle cx="19985" cy="4590" r="270" /> 
<circle cx="19985" cy="3590" r="270" /> 
<polyline style="fill-rule:evenodd;"
points="5255,8860
4715,8860
4715,8320
5255,8320
5255,8860
" /> 
<circle cx="4985" cy="7590" r="270" /> 
<circle cx="4985" cy="6590" r="270" /> 
<circle cx="4985" cy="5590" r="270" /> 
<circle cx="4985" cy="4590" r="270" /> 
<circle cx="4985" cy="3590" r="270" /> 
<polyline style="fill-rule:evenodd;"
points="19255,8860
18715,8860
18715,8320
19255,8320
19255,8860
" /> 
<circle cx="18985" cy="7590" r="270" /> 
<circle cx="18985" cy="6590" r="270" /> 
<circle cx="18985" cy="5590" r="270" /> 
<circle cx="18985" cy="4590" r="270" /> 
<circle cx="18985" cy="3590" r="270" /> 
<circle cx="11485" cy="8190" r="300" /> 
<circle cx="12485" cy="8190" r="300" /> 
</g>
<g style="fill:#9F0000; fill-opacity:1.0; 
stroke:#9F0000; stroke-width:60; stroke-opacity:1; 
stroke-linecap:round; stroke-linejoin:round;">
<polyline style="fill-rule:evenodd;"
points="17604,6084
17604,6496
17192,6496
17192,6084
17604,6084
" /> 
<polyline style="fill-rule:evenodd;"
points="16778,6084
16778,6496
16366,6496
16366,6084
16778,6084
" /> 
<polyline style="fill-rule:evenodd;"
points="7604,6084
7604,6496
7192,6496
7192,6084
7604,6084
" /> 
<polyline style="fill-rule:evenodd;"
points="6778,6084
6778,6496
6366,6496
6366,6084
6778,6084
" /> 
<polyline style="fill-rule:evenodd;"
points="10291,4509
9879,4509
9879,4097
10291,4097
10291,4509
" /> 
<polyline style="fill-rule:evenodd;"
points="10291,3683
9879,3683
9879,3271
10291,3271
10291,3683
" /> 
<polyline style="fill-rule:evenodd;"
points="14191,13109
13779,13109
13779,12697
14191,12697
14191,13109
" /> 
<polyline style="fill-rule:evenodd;"
points="14191,12283
13779,12283
13779,11871
14191,11871
14191,12283
" /> 
</g>
<g style="fill:#7F7F00; fill-opacity:1.0; 
stroke:#7F7F00; stroke-width:60; stroke-opacity:1; 
stroke-linecap:round; stroke-linejoin:round;">
<polyline style="fill-rule:evenodd;"
points="7830,3245
7830,3735
7340,3735
7340,3245
7830,3245
" /> 
<circle cx="6585" cy="3490" r="245" /> 
<polyline style="fill-rule:evenodd;"
points="17730,3245
17730,3735
17240,3735
17240,3245
17730,3245
" /> 
<circle cx="16485" cy="3490" r="245" /> 
</g>
<g style="fill:#BFBFBF; fill-opacity:1.0; 
stroke:#BFBFBF; stroke-width:60; stroke-opacity:1; 
stroke-linecap:round; stroke-linejoin:round;">
<circle cx="13585" cy="6090" r="245" /> 
<circle cx="9085" cy="4890" r="245" /> 
<circle cx="9785" cy="8890" r="245" /> 
<circle cx="14685" cy="12890" r="245" /> 
<circle cx="9885" cy="6290" r="245" /> 
<circle cx="9885" cy="4890" r="245" /> 
</g>
<g style="fill:#9F0000; fill-opacity:1.0; 
stroke:#9F0000; stroke-width:100; stroke-opacity:1; 
stroke-linecap:round; stroke-linejoin:round;">
<path d="M18985 8590
L19985 8590
" />
<path d="M18985 7590
L19985 7590
" />
<path d="M18985 6590
L19985 6590
" />
<path d="M18985 5590
L19985 5590
" />
<path d="M18985 3590
L19985 3590
" />
<path d="M3985 7590
L4985 7590
" />
</g>
<g style="fill:#009F00; fill-opacity:1.0; 
stroke:#009F00; stroke-width:100; stroke-opacity:1; 
stroke-linecap:round; stroke-linejoin:round;">
<path d="M14285 4997
L14285 6390
" />
<path d="M14285 6390
L12485 8190
" />
<path d="M16485 3490
L16485 4190
" />
<path d="M15785 9790
L14985 10590
" />
<path d="M15785 4890
L15785 9790
" />
<path d="M16485 4190
L15785 4890
" />
</g>
<g style="fill:#9F0000; fill-opacity:1.0; 
stroke:#9F0000; stroke-width:100; stroke-opacity:1; 
stroke-linecap:round; stroke-linejoin:round;">
<path d="M14985 10590
L13885 10590
" />
<path d="M13885 10590
L11485 8190
" />
<path d="M6510 5390
L6510 6228
" />
<path d="M6510 6228
L6572 6290
" />
<path d="M10085 3477
L9247 3477
" />
<path d="M9247 3477
L9185 3415
" />
<path d="M9985 12115
L13947 12115
" />
<path d="M13947 12115
L13985 12077
" />
<path d="M16710 5390
L16710 6152
" />
<path d="M16710 6152
L16572 6290
" />
<path d="M12985 12890
L12485 12390
" />
<path d="M7599 12490
L7192 12897
" />
<path d="M10485 12490
L7599 12490
" />
<path d="M10585 12390
L10485 12490
" />
<path d="M12485 12390
L10585 12390
" />
</g>
<g style="fill:#009F00; fill-opacity:1.0; 
stroke:#009F00; stroke-width:100; stroke-opacity:1; 
stroke-linecap:round; stroke-linejoin:round;">
<path d="M16685 7190
L17685 8190
" />
<path d="M17685 11076
L18092 11483
" />
<path d="M17685 8190
L17685 11076
" />
<path d="M10985 3490
L11585 2890
" />
</g>
<g style="fill:#9F0000; fill-opacity:1.0; 
stroke:#9F0000; stroke-width:100; stroke-opacity:1; 
stroke-linecap:round; stroke-linejoin:round;">
<path d="M14685 7190
L16685 7190
" />
<path d="M13585 6090
L14685 7190
" />
</g>
<g style="fill:#009F00; fill-opacity:1.0; 
stroke:#009F00; stroke-width:100; stroke-opacity:1; 
stroke-linecap:round; stroke-linejoin:round;">
<path d="M13585 3390
L13585 6090
" />
<path d="M13085 2890
L13585 3390
" />
<path d="M11585 2890
L13085 2890
" />
<path d="M8085 10590
L8085 12004
" />
<path d="M8085 12004
L7192 12897
" />
<path d="M7285 9190
L7285 9790
" />
<path d="M7285 9790
L8085 10590
" />
<path d="M7585 3490
L7985 3890
" />
<path d="M7985 8490
L7285 9190
" />
<path d="M7985 3890
L7985 8490
" />
</g>
<g style="fill:#9F0000; fill-opacity:1.0; 
stroke:#9F0000; stroke-width:100; stroke-opacity:1; 
stroke-linecap:round; stroke-linejoin:round;">
<path d="M7585 3490
L8185 2890
" />
<path d="M10385 2890
L10985 3490
" />
<path d="M8185 2890
L10385 2890
" />
</g>
<g style="fill:#009F00; fill-opacity:1.0; 
stroke:#009F00; stroke-width:100; stroke-opacity:1; 
stroke-linecap:round; stroke-linejoin:round;">
<path d="M9085 4890
L9085 7190
" />
</g>
<g style="fill:#9F0000; fill-opacity:1.0; 
stroke:#9F0000; stroke-width:100; stroke-opacity:1; 
stroke-linecap:round; stroke-linejoin:round;">
<path d="M9185 4165
L9185 4790
" />
<path d="M9185 4790
L9085 4890
" />
</g>
<g style="fill:#009F00; fill-opacity:1.0; 
stroke:#009F00; stroke-width:100; stroke-opacity:1; 
stroke-linecap:round; stroke-linejoin:round;">
<path d="M7285 7190
L5785 8690
" />
<path d="M5785 11476
L5778 11483
" />
<path d="M5785 8690
L5785 11476
" />
</g>
<g style="fill:#9F0000; fill-opacity:1.0; 
stroke:#9F0000; stroke-width:100; stroke-opacity:1; 
stroke-linecap:round; stroke-linejoin:round;">
<path d="M4985 5590
L5085 5590
" />
<path d="M6285 7190
L7285 7190
" />
<path d="M5885 6790
L6285 7190
" />
<path d="M5885 6390
L5885 6790
" />
<path d="M5085 5590
L5885 6390
" />
<path d="M9085 7190
L7285 7190
" />
<path d="M3985 5590
L4985 5590
" />
</g>
<g style="fill:#009F00; fill-opacity:1.0; 
stroke:#009F00; stroke-width:100; stroke-opacity:1; 
stroke-linecap:round; stroke-linejoin:round;">
<path d="M10985 11090
L10985 12890
" />
</g>
<g style="fill:#9F0000; fill-opacity:1.0; 
stroke:#9F0000; stroke-width:100; stroke-opacity:1; 
stroke-linecap:round; stroke-linejoin:round;">
<path d="M10985 12890
L10010 12890
" />
<path d="M10010 12890
L9985 12865
" />
<path d="M4985 6590
L5085 6590
" />
<path d="M9685 9790
L10985 11090
" />
<path d="M6585 9790
L9685 9790
" />
<path d="M5785 8990
L6585 9790
" />
<path d="M5785 7290
L5785 8990
" />
<path d="M5085 6590
L5785 7290
" />
<path d="M3985 6590
L4985 6590
" />
<path d="M17460 5390
L17685 5390
" />
<path d="M17585 9190
L16685 9190
" />
<path d="M17985 8790
L17585 9190
" />
<path d="M17985 5690
L17985 8790
" />
<path d="M17685 5390
L17985 5690
" />
</g>
<g style="fill:#009F00; fill-opacity:1.0; 
stroke:#009F00; stroke-width:100; stroke-opacity:1; 
stroke-linecap:round; stroke-linejoin:round;">
<path d="M16685 9190
L16685 12890
" />
<path d="M16685 12890
L16678 12897
" />
</g>
<g style="fill:#9F0000; fill-opacity:1.0; 
stroke:#9F0000; stroke-width:100; stroke-opacity:1; 
stroke-linecap:round; stroke-linejoin:round;">
<path d="M16685 9190
L14885 9190
" />
<path d="M17460 5390
L17460 5065
" />
<path d="M5485 4090
L4985 3590
" />
<path d="M6885 4090
L5485 4090
" />
<path d="M8185 5390
L6885 4090
" />
<path d="M11285 5390
L8185 5390
" />
<path d="M11685 5790
L11285 5390
" />
<path d="M12185 5790
L11685 5790
" />
<path d="M12485 5490
L12185 5790
" />
<path d="M12485 4890
L12485 5490
" />
<path d="M12785 4590
L12485 4890
" />
<path d="M13285 4590
L12785 4590
" />
<path d="M13585 4890
L13285 4590
" />
<path d="M13585 5290
L13585 4890
" />
<path d="M14085 5790
L13585 5290
" />
<path d="M14685 5790
L14085 5790
" />
<path d="M15585 4890
L14685 5790
" />
<path d="M17285 4890
L15585 4890
" />
<path d="M17460 5065
L17285 4890
" />
<path d="M3985 3590
L4985 3590
" />
</g>
<g style="fill:#009F00; fill-opacity:1.0; 
stroke:#009F00; stroke-width:100; stroke-opacity:1; 
stroke-linecap:round; stroke-linejoin:round;">
<path d="M12985 3490
L12985 5190
" />
</g>
<g style="fill:#9F0000; fill-opacity:1.0; 
stroke:#9F0000; stroke-width:100; stroke-opacity:1; 
stroke-linecap:round; stroke-linejoin:round;">
<path d="M12985 5190
L12985 5890
" />
<path d="M7585 5390
L7260 5390
" />
<path d="M8085 5890
L7585 5390
" />
<path d="M11085 5890
L8085 5890
" />
<path d="M11485 6290
L11085 5890
" />
<path d="M12585 6290
L11485 6290
" />
<path d="M12985 5890
L12585 6290
" />
<path d="M7260 5390
L7260 4965
" />
<path d="M6885 4590
L4985 4590
" />
<path d="M7260 4965
L6885 4590
" />
<path d="M3985 4590
L4985 4590
" />
<path d="M6485 12190
L5585 12190
" />
<path d="M4985 11590
L4985 10590
" />
<path d="M5585 12190
L4985 11590
" />
</g>
<g style="fill:#009F00; fill-opacity:1.0; 
stroke:#009F00; stroke-width:100; stroke-opacity:1; 
stroke-linecap:round; stroke-linejoin:round;">
<path d="M16685 8190
L17385 8890
" />
<path d="M17385 8890
L17385 12190
" />
</g>
<g style="fill:#9F0000; fill-opacity:1.0; 
stroke:#9F0000; stroke-width:100; stroke-opacity:1; 
stroke-linecap:round; stroke-linejoin:round;">
<path d="M10985 7690
L9785 8890
" />
<path d="M11685 7690
L10985 7690
" />
<path d="M11985 7990
L11685 7690
" />
<path d="M11985 8404
L11985 7990
" />
<path d="M12471 8890
L11985 8404
" />
<path d="M13785 8890
L12471 8890
" />
<path d="M13985 8690
L13785 8890
" />
<path d="M15785 8690
L13985 8690
" />
<path d="M16285 8190
L15785 8690
" />
<path d="M16685 8190
L16285 8190
" />
<path d="M11985 12890
L11985 12990
" />
<path d="M6485 12890
L6485 12190
" />
<path d="M6985 13390
L6485 12890
" />
<path d="M11585 13390
L6985 13390
" />
<path d="M11985 12990
L11585 13390
" />
</g>
<g style="fill:#009F00; fill-opacity:1.0; 
stroke:#009F00; stroke-width:100; stroke-opacity:1; 
stroke-linecap:round; stroke-linejoin:round;">
<path d="M11985 3490
L11985 4090
" />
</g>
<g style="fill:#9F0000; fill-opacity:1.0; 
stroke:#9F0000; stroke-width:100; stroke-opacity:1; 
stroke-linecap:round; stroke-linejoin:round;">
<path d="M7985 8890
L7285 8190
" />
<path d="M9785 8890
L7985 8890
" />
</g>
<g style="fill:#009F00; fill-opacity:1.0; 
stroke:#009F00; stroke-width:100; stroke-opacity:1; 
stroke-linecap:round; stroke-linejoin:round;">
<path d="M10285 8390
L9785 8890
" />
<path d="M10285 5390
L10285 8390
" />
<path d="M10685 4990
L10285 5390
" />
<path d="M11085 4990
L10685 4990
" />
<path d="M11985 4090
L11085 4990
" />
<path d="M7285 8190
L6485 8990
" />
<path d="M6485 8990
L6485 12190
" />
</g>
<g style="fill:#9F0000; fill-opacity:1.0; 
stroke:#9F0000; stroke-width:100; stroke-opacity:1; 
stroke-linecap:round; stroke-linejoin:round;">
<path d="M3985 10590
L3485 10590
" />
<path d="M5985 2890
L6585 3490
" />
<path d="M3485 2890
L5985 2890
" />
<path d="M3285 3090
L3485 2890
" />
<path d="M3285 10390
L3285 3090
" />
<path d="M3485 10590
L3285 10390
" />
<path d="M3985 10590
L4985 10590
" />
<path d="M18985 4590
L15292 4590
" />
<path d="M15292 4590
L14992 4290
" />
<path d="M18985 4590
L19985 4590
" />
<path d="M17485 3490
L16985 2990
" />
<path d="M14878 2990
L14285 3583
" />
<path d="M16985 2990
L14878 2990
" />
<path d="M19985 10590
L20485 10590
" />
<path d="M18085 2890
L17485 3490
" />
<path d="M20385 2890
L18085 2890
" />
<path d="M20685 3190
L20385 2890
" />
<path d="M20685 10390
L20685 3190
" />
<path d="M20485 10590
L20685 10390
" />
<path d="M18985 10590
L19985 10590
" />
<path d="M11485 11590
L11985 11090
" />
<path d="M10085 11590
L11485 11590
" />
<path d="M9085 10590
L10085 11590
" />
<path d="M17398 6290
L17398 7377
" />
<path d="M15385 7690
L14885 8190
" />
<path d="M17085 7690
L15385 7690
" />
<path d="M17398 7377
L17085 7690
" />
</g>
<g style="fill:#009F00; fill-opacity:1.0; 
stroke:#009F00; stroke-width:100; stroke-opacity:1; 
stroke-linecap:round; stroke-linejoin:round;">
<path d="M14885 8190
L13985 9090
" />
</g>
<g style="fill:#9F0000; fill-opacity:1.0; 
stroke:#9F0000; stroke-width:100; stroke-opacity:1; 
stroke-linecap:round; stroke-linejoin:round;">
<path d="M14672 12903
L13985 12903
" />
<path d="M14685 12890
L14672 12903
" />
</g>
<g style="fill:#009F00; fill-opacity:1.0; 
stroke:#009F00; stroke-width:100; stroke-opacity:1; 
stroke-linecap:round; stroke-linejoin:round;">
<path d="M14685 11790
L14685 12890
" />
<path d="M13985 11090
L14685 11790
" />
<path d="M13985 9090
L13985 11090
" />
</g>
<g style="fill:#9F0000; fill-opacity:1.0; 
stroke:#9F0000; stroke-width:100; stroke-opacity:1; 
stroke-linecap:round; stroke-linejoin:round;">
<path d="M9085 8190
L9885 7390
" />
<path d="M14085 7390
L14885 8190
" />
<path d="M9885 7390
L14085 7390
" />
<path d="M9085 10590
L8585 10090
" />
<path d="M5485 10090
L4985 9590
" />
<path d="M8585 10090
L5485 10090
" />
<path d="M7398 6290
L9885 6290
" />
</g>
<g style="fill:#009F00; fill-opacity:1.0; 
stroke:#009F00; stroke-width:100; stroke-opacity:1; 
stroke-linecap:round; stroke-linejoin:round;">
<path d="M9885 6290
L9885 4890
" />
</g>
<g style="fill:#9F0000; fill-opacity:1.0; 
stroke:#9F0000; stroke-width:100; stroke-opacity:1; 
stroke-linecap:round; stroke-linejoin:round;">
<path d="M10085 4790
L9985 4790
" />
</g>
<g style="fill:#009F00; fill-opacity:1.0; 
stroke:#009F00; stroke-width:100; stroke-opacity:1; 
stroke-linecap:round; stroke-linejoin:round;">
<path d="M9885 7390
L9085 8190
" />
<path d="M9885 4890
L9885 7390
" />
</g>
<g style="fill:#9F0000; fill-opacity:1.0; 
stroke:#9F0000; stroke-width:100; stroke-opacity:1; 
stroke-linecap:round; stroke-linejoin:round;">
<path d="M9985 4790
L9885 4890
" />
<path d="M11785 4990
L11985 5190
" />
<path d="M10285 4990
L11785 4990
" />
<path d="M10085 4790
L10285 4990
" />
<path d="M10085 4303
L10085 4790
" />
</g>
<g style="fill:#009F00; fill-opacity:1.0; 
stroke:#009F00; stroke-width:100; stroke-opacity:1; 
stroke-linecap:round; stroke-linejoin:round;">
<path d="M9085 10590
L9085 8190
" />
</g>
<g style="fill:#9F0000; fill-opacity:1.0; 
stroke:#9F0000; stroke-width:100; stroke-opacity:1; 
stroke-linecap:round; stroke-linejoin:round;">
<path d="M3985 9590
L4985 9590
" />
<path d="M15985 10590
L17985 10590
" />
<path d="M17985 10590
L18985 9590
" />
<path d="M18985 9590
L19985 9590
" />
</g>
<g style="fill:#FFFFFF; fill-opacity:1.0; 
stroke:#FFFFFF; stroke-width:60; stroke-opacity:1; 
stroke-linecap:round; stroke-linejoin:round;">
<circle cx="13585" cy="6090" r="95" /> 
<circle cx="9085" cy="4890" r="95" /> 
<circle cx="9785" cy="8890" r="95" /> 
<circle cx="14685" cy="12890" r="95" /> 
<circle cx="9885" cy="6290" r="95" /> 
<circle cx="9885" cy="4890" r="95" /> 
<circle cx="16678" cy="12897" r="130" /> 
<circle cx="17385" cy="12190" r="130" /> 
<circle cx="18092" cy="11483" r="130" /> 
<circle cx="5778" cy="11483" r="130" /> 
<circle cx="6485" cy="12190" r="130" /> 
<circle cx="7192" cy="12897" r="130" /> 
<circle cx="12985" cy="3490" r="130" /> 
<circle cx="11985" cy="3490" r="130" /> 
<circle cx="10985" cy="3490" r="130" /> 
<circle cx="7285" cy="7190" r="130" /> 
<circle cx="7285" cy="8190" r="130" /> 
<circle cx="7285" cy="9190" r="130" /> 
<circle cx="16685" cy="9190" r="130" /> 
<circle cx="16685" cy="8190" r="130" /> 
<circle cx="16685" cy="7190" r="130" /> 
<circle cx="10985" cy="12890" r="130" /> 
<circle cx="11985" cy="12890" r="130" /> 
<circle cx="12985" cy="12890" r="130" /> 
<circle cx="14285" cy="4997" r="130" /> 
<circle cx="14992" cy="4290" r="130" /> 
<circle cx="14285" cy="3583" r="130" /> 
<circle cx="9085" cy="8190" r="130" /> 
<circle cx="9085" cy="7190" r="130" /> 
<circle cx="11985" cy="11090" r="130" /> 
<circle cx="10985" cy="11090" r="130" /> 
<circle cx="11985" cy="5190" r="130" /> 
<circle cx="12985" cy="5190" r="130" /> 
<circle cx="14985" cy="10590" r="130" /> 
<circle cx="15985" cy="10590" r="130" /> 
<circle cx="9085" cy="10590" r="130" /> 
<circle cx="8085" cy="10590" r="130" /> 
<circle cx="14885" cy="8190" r="130" /> 
<circle cx="14885" cy="9190" r="130" /> 
<circle cx="3985" cy="10590" r="170" /> 
<circle cx="3985" cy="9590" r="170" /> 
<circle cx="18985" cy="10590" r="170" /> 
<circle cx="18985" cy="9590" r="170" /> 
<circle cx="4985" cy="10590" r="170" /> 
<circle cx="4985" cy="9590" r="170" /> 
<circle cx="19985" cy="10590" r="170" /> 
<circle cx="19985" cy="9590" r="170" /> 
<circle cx="3985" cy="8590" r="170" /> 
<circle cx="3985" cy="7590" r="170" /> 
<circle cx="3985" cy="6590" r="170" /> 
<circle cx="3985" cy="5590" r="170" /> 
<circle cx="3985" cy="4590" r="170" /> 
<circle cx="3985" cy="3590" r="170" /> 
<circle cx="19985" cy="8590" r="170" /> 
<circle cx="19985" cy="7590" r="170" /> 
<circle cx="19985" cy="6590" r="170" /> 
<circle cx="19985" cy="5590" r="170" /> 
<circle cx="19985" cy="4590" r="170" /> 
<circle cx="19985" cy="3590" r="170" /> 
<circle cx="4985" cy="8590" r="170" /> 
<circle cx="4985" cy="7590" r="170" /> 
<circle cx="4985" cy="6590" r="170" /> 
<circle cx="4985" cy="5590" r="170" /> 
<circle cx="4985" cy="4590" r="170" /> 
<circle cx="4985" cy="3590" r="170" /> 
<circle cx="18985" cy="8590" r="170" /> 
<circle cx="18985" cy="7590" r="170" /> 
<circle cx="18985" cy="6590" r="170" /> 
<circle cx="18985" cy="5590" r="170" /> 
<circle cx="18985" cy="4590" r="170" /> 
<circle cx="18985" cy="3590" r="170" /> 
<circle cx="11485" cy="8190" r="130" /> 
<circle cx="12485" cy="8190" r="130" /> 
<circle cx="7585" cy="3490" r="130" /> 
<circle cx="6585" cy="3490" r="130" /> 
<circle cx="17485" cy="3490" r="130" /> 
<circle cx="16485" cy="3490" r="130" /> 
</g> 
</svg>
