M48
;DRILL file {PCBnew (2011-05-25)-stable} date Thu 09 Aug 2012 09:52:48 PM CST
;FORMAT={2:3/ absolute / inch / suppress leading zeros}
FMAT,2
INCH,TZ
T1C0.025
T2C0.032
T3C0.039
T4C0.040
%
G90
G05
M72
T1
X2192Y2462
X2503Y1781
X3368Y1794
T2
X2400Y1500
X2400Y1600
X2400Y1700
X2400Y1800
X2400Y1900
X2400Y2000
X2400Y2100
X2400Y2200
X2400Y2300
X2400Y2400
X2400Y2750
X2400Y2850
X2400Y3000
X2400Y3100
X2600Y2750
X2600Y2850
X2600Y3000
X2600Y3100
X2700Y1500
X2700Y1600
X2700Y1700
X2700Y1800
X2700Y1900
X2700Y2000
X2700Y2100
X2700Y2200
X2700Y2300
X2700Y2400
X2800Y2750
X2800Y2850
X2800Y3000
X2800Y3100
X2900Y1500
X2900Y1600
X2900Y1700
X2900Y1800
X2900Y1900
X2900Y2000
X2900Y2100
X2900Y2200
X3102Y2871
X3102Y2950
X3102Y3029
X3200Y1500
X3200Y1600
X3200Y1700
X3200Y1800
X3200Y1900
X3200Y2000
X3200Y2100
X3200Y2200
X3298Y2871
X3298Y2950
X3298Y3029
X3529Y2800
X3600Y2871
X3671Y2800
T3
X2000Y1450
X2000Y1550
X2000Y1650
X2000Y1750
X2000Y1850
X2000Y1950
X2000Y2050
X2000Y2150
X2000Y2250
X2000Y2350
X3600Y1450
X3600Y1550
X3600Y1650
X3600Y1750
X3600Y1850
X3600Y1950
X3600Y2050
X3600Y2150
X3600Y2250
X3600Y2350
X3600Y3000
X3600Y3100
T4
X1980Y2990
X1980Y3090
X2080Y2990
X2080Y3090
X2180Y2990
X2180Y3090
T0
M30
