G04 (created by PCBNEW-RS274X (2011-05-25)-stable) date Thu 09 Aug 2012 09:53:34 PM CST*
G01*
G70*
G90*
%MOIN*%
G04 Gerber Fmt 3.4, Leading zero omitted, Abs format*
%FSLAX34Y34*%
G04 APERTURE LIST*
%ADD10C,0.006000*%
%ADD11C,0.012000*%
%ADD12C,0.055000*%
%ADD13O,0.118700X0.059300*%
%ADD14R,0.060000X0.060000*%
%ADD15C,0.060000*%
%ADD16C,0.066000*%
%ADD17R,0.055000X0.055000*%
%ADD18C,0.035000*%
%ADD19C,0.016000*%
%ADD20C,0.010000*%
G04 APERTURE END LIST*
G54D10*
G54D11*
X33157Y-24624D02*
X32757Y-25424D01*
X32757Y-24624D02*
X33157Y-25424D01*
X32529Y-25424D02*
X32529Y-24890D01*
X32529Y-24624D02*
X32558Y-24662D01*
X32529Y-24700D01*
X32501Y-24662D01*
X32529Y-24624D01*
X32529Y-24700D01*
X32243Y-24890D02*
X32243Y-25424D01*
X32243Y-24967D02*
X32215Y-24929D01*
X32157Y-24890D01*
X32072Y-24890D01*
X32015Y-24929D01*
X31986Y-25005D01*
X31986Y-25424D01*
X31357Y-25348D02*
X31386Y-25386D01*
X31472Y-25424D01*
X31529Y-25424D01*
X31614Y-25386D01*
X31672Y-25310D01*
X31700Y-25233D01*
X31729Y-25081D01*
X31729Y-24967D01*
X31700Y-24814D01*
X31672Y-24738D01*
X31614Y-24662D01*
X31529Y-24624D01*
X31472Y-24624D01*
X31386Y-24662D01*
X31357Y-24700D01*
X31100Y-25424D02*
X31100Y-24624D01*
X30843Y-25424D02*
X30843Y-25005D01*
X30872Y-24929D01*
X30929Y-24890D01*
X31014Y-24890D01*
X31072Y-24929D01*
X31100Y-24967D01*
X30329Y-25386D02*
X30386Y-25424D01*
X30500Y-25424D01*
X30557Y-25386D01*
X30586Y-25310D01*
X30586Y-25005D01*
X30557Y-24929D01*
X30500Y-24890D01*
X30386Y-24890D01*
X30329Y-24929D01*
X30300Y-25005D01*
X30300Y-25081D01*
X30586Y-25157D01*
X29872Y-24624D02*
X29872Y-25195D01*
X29900Y-25310D01*
X29957Y-25386D01*
X30043Y-25424D01*
X30100Y-25424D01*
X29586Y-25424D02*
X29586Y-24890D01*
X29586Y-24624D02*
X29615Y-24662D01*
X29586Y-24700D01*
X29558Y-24662D01*
X29586Y-24624D01*
X29586Y-24700D01*
X29043Y-25424D02*
X29043Y-25005D01*
X29072Y-24929D01*
X29129Y-24890D01*
X29243Y-24890D01*
X29300Y-24929D01*
X29043Y-25386D02*
X29100Y-25424D01*
X29243Y-25424D01*
X29300Y-25386D01*
X29329Y-25310D01*
X29329Y-25233D01*
X29300Y-25157D01*
X29243Y-25119D01*
X29100Y-25119D01*
X29043Y-25081D01*
X28757Y-24890D02*
X28757Y-25424D01*
X28757Y-24967D02*
X28729Y-24929D01*
X28671Y-24890D01*
X28586Y-24890D01*
X28529Y-24929D01*
X28500Y-25005D01*
X28500Y-25424D01*
G54D12*
X24000Y-28500D03*
X24000Y-27500D03*
X26000Y-28500D03*
X26000Y-27500D03*
X28000Y-28500D03*
X28000Y-27500D03*
G54D13*
X20000Y-21500D03*
X20000Y-20500D03*
X20000Y-19500D03*
X20000Y-18500D03*
X20000Y-17500D03*
X20000Y-16500D03*
X36000Y-16500D03*
X36000Y-17500D03*
X36000Y-18500D03*
X36000Y-19500D03*
X36000Y-20500D03*
X36000Y-21500D03*
X36000Y-14500D03*
X36000Y-15500D03*
X20000Y-15500D03*
X20000Y-14500D03*
X36000Y-22500D03*
X36000Y-23500D03*
X20000Y-23500D03*
X20000Y-22500D03*
X36000Y-30000D03*
X36000Y-31000D03*
G54D14*
X19800Y-30900D03*
G54D15*
X19800Y-29900D03*
X20800Y-30900D03*
X20800Y-29900D03*
X21800Y-30900D03*
X21800Y-29900D03*
G54D12*
X35293Y-28000D03*
G54D10*
G36*
X36389Y-28707D02*
X36000Y-29096D01*
X35611Y-28707D01*
X36000Y-28318D01*
X36389Y-28707D01*
X36389Y-28707D01*
G37*
G54D12*
X36707Y-28000D03*
G54D16*
X28000Y-30000D03*
X28000Y-31000D03*
X26000Y-30000D03*
X26000Y-31000D03*
X24000Y-30000D03*
X24000Y-31000D03*
G54D17*
X27000Y-24000D03*
G54D12*
X27000Y-23000D03*
X27000Y-22000D03*
X27000Y-21000D03*
X27000Y-20000D03*
X27000Y-19000D03*
X27000Y-18000D03*
X27000Y-17000D03*
X27000Y-16000D03*
X27000Y-15000D03*
X24000Y-15000D03*
X24000Y-16000D03*
X24000Y-17000D03*
X24000Y-18000D03*
X24000Y-19000D03*
X24000Y-20000D03*
X24000Y-21000D03*
X24000Y-22000D03*
X24000Y-23000D03*
X24000Y-24000D03*
G54D17*
X32000Y-22000D03*
G54D12*
X32000Y-21000D03*
X32000Y-20000D03*
X32000Y-19000D03*
X32000Y-18000D03*
X32000Y-17000D03*
X32000Y-16000D03*
X32000Y-15000D03*
X29000Y-15000D03*
X29000Y-16000D03*
X29000Y-17000D03*
X29000Y-18000D03*
X29000Y-19000D03*
X29000Y-20000D03*
X29000Y-21000D03*
X29000Y-22000D03*
G54D15*
X31016Y-30287D03*
X31016Y-29500D03*
X31016Y-28713D03*
X32984Y-30287D03*
X32984Y-29500D03*
X32984Y-28713D03*
G54D18*
X25034Y-17812D03*
X33680Y-17943D03*
X21915Y-24615D03*
G54D19*
X22900Y-29900D02*
X21800Y-29900D01*
X24000Y-31000D02*
X22900Y-29900D01*
X20000Y-23500D02*
X20000Y-23040D01*
X20460Y-23040D02*
X20000Y-23040D01*
X23558Y-19942D02*
X20460Y-23040D01*
X23558Y-19590D02*
X23558Y-19942D01*
X23603Y-19545D02*
X23558Y-19590D01*
X24494Y-19545D02*
X23603Y-19545D01*
X26228Y-17811D02*
X24494Y-19545D01*
X26228Y-15772D02*
X26228Y-17811D01*
X27000Y-15000D02*
X26228Y-15772D01*
X35540Y-30540D02*
X36000Y-30540D01*
X35210Y-30210D02*
X35540Y-30540D01*
X35210Y-29497D02*
X35210Y-30210D01*
X36000Y-28707D02*
X35210Y-29497D01*
X36000Y-31000D02*
X36000Y-30540D01*
X32596Y-13853D02*
X35243Y-16500D01*
X27447Y-13853D02*
X32596Y-13853D01*
X25961Y-15339D02*
X27447Y-13853D01*
X25961Y-17537D02*
X25961Y-15339D01*
X24498Y-19000D02*
X25961Y-17537D01*
X24000Y-19000D02*
X24498Y-19000D01*
X36000Y-16500D02*
X35243Y-16500D01*
X24000Y-25000D02*
X27000Y-22000D01*
X24000Y-27500D02*
X24000Y-25000D01*
X20800Y-24200D02*
X24000Y-21000D01*
X20800Y-29900D02*
X20800Y-24200D01*
X32243Y-15500D02*
X35243Y-18500D01*
X31868Y-15500D02*
X32243Y-15500D01*
X29868Y-17500D02*
X31868Y-15500D01*
X28240Y-17500D02*
X29868Y-17500D01*
X27264Y-18476D02*
X28240Y-17500D01*
X26524Y-18476D02*
X27264Y-18476D01*
X24000Y-21000D02*
X26524Y-18476D01*
X36000Y-18500D02*
X35243Y-18500D01*
X28000Y-15000D02*
X27000Y-16000D01*
X29000Y-15000D02*
X28000Y-15000D01*
X35197Y-17500D02*
X36000Y-17500D01*
X32057Y-14360D02*
X35197Y-17500D01*
X31117Y-14360D02*
X32057Y-14360D01*
X29916Y-15561D02*
X31117Y-14360D01*
X28784Y-15561D02*
X29916Y-15561D01*
X27500Y-16845D02*
X28784Y-15561D01*
X27500Y-17155D02*
X27500Y-16845D01*
X27155Y-17500D02*
X27500Y-17155D01*
X26776Y-17500D02*
X27155Y-17500D01*
X26471Y-17805D02*
X26776Y-17500D01*
X26471Y-17932D02*
X26471Y-17805D01*
X24403Y-20000D02*
X26471Y-17932D01*
X24000Y-20000D02*
X24403Y-20000D01*
X34475Y-20500D02*
X36000Y-20500D01*
X31970Y-23005D02*
X34475Y-20500D01*
X29316Y-23005D02*
X31970Y-23005D01*
X27811Y-21500D02*
X29316Y-23005D01*
X25500Y-21500D02*
X27811Y-21500D01*
X24000Y-23000D02*
X25500Y-21500D01*
X24000Y-23008D02*
X24000Y-23000D01*
X21300Y-25708D02*
X24000Y-23008D01*
X21300Y-30400D02*
X21300Y-25708D01*
X20800Y-30900D02*
X21300Y-30400D01*
X27700Y-21000D02*
X27000Y-21000D01*
X28200Y-21500D02*
X27700Y-21000D01*
X31500Y-21500D02*
X28200Y-21500D01*
X32000Y-21000D02*
X31500Y-21500D01*
X20460Y-15960D02*
X20000Y-15960D01*
X22001Y-17501D02*
X20460Y-15960D01*
X24723Y-17501D02*
X22001Y-17501D01*
X25034Y-17812D02*
X24723Y-17501D01*
X20000Y-15500D02*
X20000Y-15960D01*
X33680Y-18320D02*
X33680Y-17943D01*
X32000Y-20000D02*
X33680Y-18320D01*
X26000Y-24000D02*
X26000Y-27500D01*
X27000Y-23000D02*
X26000Y-24000D01*
X28500Y-18500D02*
X27000Y-20000D01*
X29500Y-18500D02*
X28500Y-18500D01*
X32000Y-16000D02*
X29500Y-18500D01*
X29000Y-16000D02*
X27000Y-18000D01*
X21915Y-24085D02*
X24000Y-22000D01*
X21915Y-24615D02*
X21915Y-24085D01*
X34588Y-19500D02*
X36000Y-19500D01*
X33528Y-20560D02*
X34588Y-19500D01*
X25440Y-20560D02*
X33528Y-20560D01*
X24000Y-22000D02*
X25440Y-20560D01*
X32743Y-24000D02*
X35243Y-21500D01*
X27000Y-24000D02*
X32743Y-24000D01*
X36000Y-21500D02*
X35243Y-21500D01*
X36000Y-22500D02*
X36000Y-22960D01*
X35540Y-22960D02*
X36000Y-22960D01*
X35206Y-23294D02*
X35540Y-22960D01*
X35206Y-26784D02*
X35206Y-23294D01*
X35491Y-26784D02*
X35206Y-26784D01*
X36707Y-28000D02*
X35491Y-26784D01*
X28716Y-26784D02*
X28000Y-27500D01*
X35206Y-26784D02*
X28716Y-26784D01*
G54D10*
G36*
X23835Y-20500D02*
X23703Y-20555D01*
X23555Y-20702D01*
X23475Y-20895D01*
X23475Y-21058D01*
X20775Y-23758D01*
X20825Y-23634D01*
X20778Y-23550D01*
X20050Y-23550D01*
X20050Y-24046D01*
X20395Y-24046D01*
X20556Y-23982D01*
X20495Y-24073D01*
X20470Y-24200D01*
X20470Y-29454D01*
X20335Y-29589D01*
X20300Y-29673D01*
X20265Y-29589D01*
X20111Y-29435D01*
X19909Y-29351D01*
X19691Y-29351D01*
X19489Y-29435D01*
X19335Y-29589D01*
X19325Y-29613D01*
X19325Y-23891D01*
X19404Y-23967D01*
X19605Y-24046D01*
X19950Y-24046D01*
X19950Y-23600D01*
X19950Y-23550D01*
X19950Y-23450D01*
X20050Y-23450D01*
X20100Y-23450D01*
X20778Y-23450D01*
X20825Y-23366D01*
X20752Y-23183D01*
X20596Y-23033D01*
X20509Y-22998D01*
X20616Y-22955D01*
X20767Y-22804D01*
X20849Y-22607D01*
X20849Y-22394D01*
X20768Y-22197D01*
X20617Y-22046D01*
X20506Y-22000D01*
X20616Y-21955D01*
X20767Y-21804D01*
X20849Y-21607D01*
X20849Y-21394D01*
X20768Y-21197D01*
X20617Y-21046D01*
X20506Y-21000D01*
X20616Y-20955D01*
X20767Y-20804D01*
X20849Y-20607D01*
X20849Y-20394D01*
X20768Y-20197D01*
X20617Y-20046D01*
X20506Y-20000D01*
X20616Y-19955D01*
X20767Y-19804D01*
X20849Y-19607D01*
X20849Y-19394D01*
X20768Y-19197D01*
X20617Y-19046D01*
X20506Y-19000D01*
X20616Y-18955D01*
X20767Y-18804D01*
X20849Y-18607D01*
X20849Y-18394D01*
X20768Y-18197D01*
X20617Y-18046D01*
X20506Y-18000D01*
X20616Y-17955D01*
X20767Y-17804D01*
X20849Y-17607D01*
X20849Y-17394D01*
X20768Y-17197D01*
X20617Y-17046D01*
X20506Y-17000D01*
X20616Y-16955D01*
X20767Y-16804D01*
X20787Y-16754D01*
X21767Y-17734D01*
X21768Y-17734D01*
X21874Y-17806D01*
X21875Y-17806D01*
X21895Y-17809D01*
X22001Y-17831D01*
X23501Y-17831D01*
X23475Y-17895D01*
X23475Y-18104D01*
X23555Y-18297D01*
X23702Y-18445D01*
X23835Y-18500D01*
X23703Y-18555D01*
X23555Y-18702D01*
X23475Y-18895D01*
X23475Y-19104D01*
X23555Y-19297D01*
X23702Y-19445D01*
X23835Y-19500D01*
X23703Y-19555D01*
X23555Y-19702D01*
X23475Y-19895D01*
X23475Y-20104D01*
X23555Y-20297D01*
X23702Y-20445D01*
X23835Y-20500D01*
X23835Y-20500D01*
G37*
G54D20*
X23835Y-20500D02*
X23703Y-20555D01*
X23555Y-20702D01*
X23475Y-20895D01*
X23475Y-21058D01*
X20775Y-23758D01*
X20825Y-23634D01*
X20778Y-23550D01*
X20050Y-23550D01*
X20050Y-24046D01*
X20395Y-24046D01*
X20556Y-23982D01*
X20495Y-24073D01*
X20470Y-24200D01*
X20470Y-29454D01*
X20335Y-29589D01*
X20300Y-29673D01*
X20265Y-29589D01*
X20111Y-29435D01*
X19909Y-29351D01*
X19691Y-29351D01*
X19489Y-29435D01*
X19335Y-29589D01*
X19325Y-29613D01*
X19325Y-23891D01*
X19404Y-23967D01*
X19605Y-24046D01*
X19950Y-24046D01*
X19950Y-23600D01*
X19950Y-23550D01*
X19950Y-23450D01*
X20050Y-23450D01*
X20100Y-23450D01*
X20778Y-23450D01*
X20825Y-23366D01*
X20752Y-23183D01*
X20596Y-23033D01*
X20509Y-22998D01*
X20616Y-22955D01*
X20767Y-22804D01*
X20849Y-22607D01*
X20849Y-22394D01*
X20768Y-22197D01*
X20617Y-22046D01*
X20506Y-22000D01*
X20616Y-21955D01*
X20767Y-21804D01*
X20849Y-21607D01*
X20849Y-21394D01*
X20768Y-21197D01*
X20617Y-21046D01*
X20506Y-21000D01*
X20616Y-20955D01*
X20767Y-20804D01*
X20849Y-20607D01*
X20849Y-20394D01*
X20768Y-20197D01*
X20617Y-20046D01*
X20506Y-20000D01*
X20616Y-19955D01*
X20767Y-19804D01*
X20849Y-19607D01*
X20849Y-19394D01*
X20768Y-19197D01*
X20617Y-19046D01*
X20506Y-19000D01*
X20616Y-18955D01*
X20767Y-18804D01*
X20849Y-18607D01*
X20849Y-18394D01*
X20768Y-18197D01*
X20617Y-18046D01*
X20506Y-18000D01*
X20616Y-17955D01*
X20767Y-17804D01*
X20849Y-17607D01*
X20849Y-17394D01*
X20768Y-17197D01*
X20617Y-17046D01*
X20506Y-17000D01*
X20616Y-16955D01*
X20767Y-16804D01*
X20787Y-16754D01*
X21767Y-17734D01*
X21768Y-17734D01*
X21874Y-17806D01*
X21875Y-17806D01*
X21895Y-17809D01*
X22001Y-17831D01*
X23501Y-17831D01*
X23475Y-17895D01*
X23475Y-18104D01*
X23555Y-18297D01*
X23702Y-18445D01*
X23835Y-18500D01*
X23703Y-18555D01*
X23555Y-18702D01*
X23475Y-18895D01*
X23475Y-19104D01*
X23555Y-19297D01*
X23702Y-19445D01*
X23835Y-19500D01*
X23703Y-19555D01*
X23555Y-19702D01*
X23475Y-19895D01*
X23475Y-20104D01*
X23555Y-20297D01*
X23702Y-20445D01*
X23835Y-20500D01*
G54D10*
G36*
X29071Y-18000D02*
X29000Y-18071D01*
X28929Y-18000D01*
X29000Y-17929D01*
X29071Y-18000D01*
X29071Y-18000D01*
G37*
G54D20*
X29071Y-18000D02*
X29000Y-18071D01*
X28929Y-18000D01*
X29000Y-17929D01*
X29071Y-18000D01*
G54D10*
G36*
X30827Y-14183D02*
X29779Y-15231D01*
X29472Y-15231D01*
X29525Y-15105D01*
X29525Y-14896D01*
X29445Y-14703D01*
X29298Y-14555D01*
X29105Y-14475D01*
X28896Y-14475D01*
X28703Y-14555D01*
X28587Y-14670D01*
X28000Y-14670D01*
X27894Y-14691D01*
X27873Y-14695D01*
X27767Y-14767D01*
X27515Y-15018D01*
X27508Y-14870D01*
X27452Y-14733D01*
X27361Y-14710D01*
X27106Y-14965D01*
X27071Y-15000D01*
X27000Y-15071D01*
X26965Y-15106D01*
X26710Y-15361D01*
X26733Y-15452D01*
X26851Y-15493D01*
X26703Y-15555D01*
X26555Y-15702D01*
X26475Y-15895D01*
X26475Y-16104D01*
X26555Y-16297D01*
X26702Y-16445D01*
X26835Y-16500D01*
X26703Y-16555D01*
X26555Y-16702D01*
X26475Y-16895D01*
X26475Y-17104D01*
X26542Y-17266D01*
X26542Y-17267D01*
X26291Y-17518D01*
X26291Y-15475D01*
X26533Y-15232D01*
X26548Y-15267D01*
X26639Y-15290D01*
X26894Y-15035D01*
X26929Y-15000D01*
X27000Y-14929D01*
X27035Y-14894D01*
X27290Y-14639D01*
X27267Y-14548D01*
X27231Y-14535D01*
X27583Y-14183D01*
X30827Y-14183D01*
X30827Y-14183D01*
G37*
G54D20*
X30827Y-14183D02*
X29779Y-15231D01*
X29472Y-15231D01*
X29525Y-15105D01*
X29525Y-14896D01*
X29445Y-14703D01*
X29298Y-14555D01*
X29105Y-14475D01*
X28896Y-14475D01*
X28703Y-14555D01*
X28587Y-14670D01*
X28000Y-14670D01*
X27894Y-14691D01*
X27873Y-14695D01*
X27767Y-14767D01*
X27515Y-15018D01*
X27508Y-14870D01*
X27452Y-14733D01*
X27361Y-14710D01*
X27106Y-14965D01*
X27071Y-15000D01*
X27000Y-15071D01*
X26965Y-15106D01*
X26710Y-15361D01*
X26733Y-15452D01*
X26851Y-15493D01*
X26703Y-15555D01*
X26555Y-15702D01*
X26475Y-15895D01*
X26475Y-16104D01*
X26555Y-16297D01*
X26702Y-16445D01*
X26835Y-16500D01*
X26703Y-16555D01*
X26555Y-16702D01*
X26475Y-16895D01*
X26475Y-17104D01*
X26542Y-17266D01*
X26542Y-17267D01*
X26291Y-17518D01*
X26291Y-15475D01*
X26533Y-15232D01*
X26548Y-15267D01*
X26639Y-15290D01*
X26894Y-15035D01*
X26929Y-15000D01*
X27000Y-14929D01*
X27035Y-14894D01*
X27290Y-14639D01*
X27267Y-14548D01*
X27231Y-14535D01*
X27583Y-14183D01*
X30827Y-14183D01*
G54D10*
G36*
X33815Y-17538D02*
X33765Y-17518D01*
X33596Y-17518D01*
X33440Y-17582D01*
X33320Y-17702D01*
X33255Y-17858D01*
X33255Y-18027D01*
X33319Y-18183D01*
X33334Y-18198D01*
X32519Y-19013D01*
X32519Y-18074D01*
X32508Y-17870D01*
X32452Y-17733D01*
X32361Y-17710D01*
X32071Y-18000D01*
X32361Y-18290D01*
X32452Y-18267D01*
X32519Y-18074D01*
X32519Y-19013D01*
X32515Y-19017D01*
X32508Y-18870D01*
X32452Y-18733D01*
X32361Y-18710D01*
X32290Y-18781D01*
X32290Y-18639D01*
X32267Y-18548D01*
X32140Y-18503D01*
X32267Y-18452D01*
X32290Y-18361D01*
X32000Y-18071D01*
X31929Y-18142D01*
X31929Y-18000D01*
X31639Y-17710D01*
X31548Y-17733D01*
X31481Y-17926D01*
X31492Y-18130D01*
X31548Y-18267D01*
X31639Y-18290D01*
X31929Y-18000D01*
X31929Y-18142D01*
X31710Y-18361D01*
X31733Y-18452D01*
X31859Y-18496D01*
X31733Y-18548D01*
X31710Y-18639D01*
X32000Y-18929D01*
X32290Y-18639D01*
X32290Y-18781D01*
X32106Y-18965D01*
X32071Y-19000D01*
X32000Y-19071D01*
X31965Y-19106D01*
X31929Y-19142D01*
X31929Y-19000D01*
X31639Y-18710D01*
X31548Y-18733D01*
X31481Y-18926D01*
X31492Y-19130D01*
X31548Y-19267D01*
X31639Y-19290D01*
X31929Y-19000D01*
X31929Y-19142D01*
X31710Y-19361D01*
X31733Y-19452D01*
X31851Y-19493D01*
X31703Y-19555D01*
X31555Y-19702D01*
X31475Y-19895D01*
X31475Y-20104D01*
X31527Y-20230D01*
X29473Y-20230D01*
X29525Y-20105D01*
X29525Y-19896D01*
X29445Y-19703D01*
X29298Y-19555D01*
X29157Y-19496D01*
X29267Y-19452D01*
X29290Y-19361D01*
X29000Y-19071D01*
X28710Y-19361D01*
X28733Y-19452D01*
X28851Y-19493D01*
X28703Y-19555D01*
X28555Y-19702D01*
X28475Y-19895D01*
X28475Y-20104D01*
X28527Y-20230D01*
X27473Y-20230D01*
X27525Y-20105D01*
X27525Y-19941D01*
X28484Y-18982D01*
X28492Y-19130D01*
X28548Y-19267D01*
X28639Y-19290D01*
X28894Y-19035D01*
X28929Y-19000D01*
X29000Y-18929D01*
X29071Y-19000D01*
X29106Y-19035D01*
X29361Y-19290D01*
X29452Y-19267D01*
X29519Y-19074D01*
X29508Y-18870D01*
X29491Y-18830D01*
X29500Y-18830D01*
X29626Y-18805D01*
X29627Y-18805D01*
X29733Y-18733D01*
X31475Y-16991D01*
X31475Y-17104D01*
X31555Y-17297D01*
X31702Y-17445D01*
X31842Y-17503D01*
X31733Y-17548D01*
X31710Y-17639D01*
X32000Y-17929D01*
X32290Y-17639D01*
X32267Y-17548D01*
X32148Y-17506D01*
X32297Y-17445D01*
X32445Y-17298D01*
X32525Y-17105D01*
X32525Y-16896D01*
X32445Y-16703D01*
X32298Y-16555D01*
X32164Y-16499D01*
X32297Y-16445D01*
X32445Y-16298D01*
X32483Y-16206D01*
X33815Y-17538D01*
X33815Y-17538D01*
G37*
G54D20*
X33815Y-17538D02*
X33765Y-17518D01*
X33596Y-17518D01*
X33440Y-17582D01*
X33320Y-17702D01*
X33255Y-17858D01*
X33255Y-18027D01*
X33319Y-18183D01*
X33334Y-18198D01*
X32519Y-19013D01*
X32519Y-18074D01*
X32508Y-17870D01*
X32452Y-17733D01*
X32361Y-17710D01*
X32071Y-18000D01*
X32361Y-18290D01*
X32452Y-18267D01*
X32519Y-18074D01*
X32519Y-19013D01*
X32515Y-19017D01*
X32508Y-18870D01*
X32452Y-18733D01*
X32361Y-18710D01*
X32290Y-18781D01*
X32290Y-18639D01*
X32267Y-18548D01*
X32140Y-18503D01*
X32267Y-18452D01*
X32290Y-18361D01*
X32000Y-18071D01*
X31929Y-18142D01*
X31929Y-18000D01*
X31639Y-17710D01*
X31548Y-17733D01*
X31481Y-17926D01*
X31492Y-18130D01*
X31548Y-18267D01*
X31639Y-18290D01*
X31929Y-18000D01*
X31929Y-18142D01*
X31710Y-18361D01*
X31733Y-18452D01*
X31859Y-18496D01*
X31733Y-18548D01*
X31710Y-18639D01*
X32000Y-18929D01*
X32290Y-18639D01*
X32290Y-18781D01*
X32106Y-18965D01*
X32071Y-19000D01*
X32000Y-19071D01*
X31965Y-19106D01*
X31929Y-19142D01*
X31929Y-19000D01*
X31639Y-18710D01*
X31548Y-18733D01*
X31481Y-18926D01*
X31492Y-19130D01*
X31548Y-19267D01*
X31639Y-19290D01*
X31929Y-19000D01*
X31929Y-19142D01*
X31710Y-19361D01*
X31733Y-19452D01*
X31851Y-19493D01*
X31703Y-19555D01*
X31555Y-19702D01*
X31475Y-19895D01*
X31475Y-20104D01*
X31527Y-20230D01*
X29473Y-20230D01*
X29525Y-20105D01*
X29525Y-19896D01*
X29445Y-19703D01*
X29298Y-19555D01*
X29157Y-19496D01*
X29267Y-19452D01*
X29290Y-19361D01*
X29000Y-19071D01*
X28710Y-19361D01*
X28733Y-19452D01*
X28851Y-19493D01*
X28703Y-19555D01*
X28555Y-19702D01*
X28475Y-19895D01*
X28475Y-20104D01*
X28527Y-20230D01*
X27473Y-20230D01*
X27525Y-20105D01*
X27525Y-19941D01*
X28484Y-18982D01*
X28492Y-19130D01*
X28548Y-19267D01*
X28639Y-19290D01*
X28894Y-19035D01*
X28929Y-19000D01*
X29000Y-18929D01*
X29071Y-19000D01*
X29106Y-19035D01*
X29361Y-19290D01*
X29452Y-19267D01*
X29519Y-19074D01*
X29508Y-18870D01*
X29491Y-18830D01*
X29500Y-18830D01*
X29626Y-18805D01*
X29627Y-18805D01*
X29733Y-18733D01*
X31475Y-16991D01*
X31475Y-17104D01*
X31555Y-17297D01*
X31702Y-17445D01*
X31842Y-17503D01*
X31733Y-17548D01*
X31710Y-17639D01*
X32000Y-17929D01*
X32290Y-17639D01*
X32267Y-17548D01*
X32148Y-17506D01*
X32297Y-17445D01*
X32445Y-17298D01*
X32525Y-17105D01*
X32525Y-16896D01*
X32445Y-16703D01*
X32298Y-16555D01*
X32164Y-16499D01*
X32297Y-16445D01*
X32445Y-16298D01*
X32483Y-16206D01*
X33815Y-17538D01*
G54D10*
G36*
X36675Y-27475D02*
X36648Y-27475D01*
X35724Y-26551D01*
X35618Y-26479D01*
X35536Y-26462D01*
X35536Y-24018D01*
X35605Y-24046D01*
X35950Y-24046D01*
X35950Y-23600D01*
X35950Y-23550D01*
X35950Y-23450D01*
X36050Y-23450D01*
X36050Y-23550D01*
X36050Y-23600D01*
X36050Y-24046D01*
X36395Y-24046D01*
X36596Y-23967D01*
X36675Y-23891D01*
X36675Y-27475D01*
X36675Y-27475D01*
G37*
G54D20*
X36675Y-27475D02*
X36648Y-27475D01*
X35724Y-26551D01*
X35618Y-26479D01*
X35536Y-26462D01*
X35536Y-24018D01*
X35605Y-24046D01*
X35950Y-24046D01*
X35950Y-23600D01*
X35950Y-23550D01*
X35950Y-23450D01*
X36050Y-23450D01*
X36050Y-23550D01*
X36050Y-23600D01*
X36050Y-24046D01*
X36395Y-24046D01*
X36596Y-23967D01*
X36675Y-23891D01*
X36675Y-27475D01*
G54D10*
G36*
X36675Y-29604D02*
X36617Y-29546D01*
X36420Y-29464D01*
X36292Y-29464D01*
X36292Y-29157D01*
X36292Y-29070D01*
X36000Y-28778D01*
X35708Y-29070D01*
X35708Y-29157D01*
X35859Y-29307D01*
X35951Y-29345D01*
X36049Y-29345D01*
X36141Y-29307D01*
X36211Y-29237D01*
X36292Y-29157D01*
X36292Y-29464D01*
X36207Y-29464D01*
X35581Y-29464D01*
X35384Y-29545D01*
X35233Y-29696D01*
X35151Y-29893D01*
X35151Y-30106D01*
X35232Y-30303D01*
X35383Y-30454D01*
X35490Y-30498D01*
X35404Y-30533D01*
X35248Y-30683D01*
X35175Y-30866D01*
X35222Y-30950D01*
X35900Y-30950D01*
X35950Y-30950D01*
X36050Y-30950D01*
X36050Y-31050D01*
X35950Y-31050D01*
X35900Y-31050D01*
X35222Y-31050D01*
X35175Y-31134D01*
X35191Y-31175D01*
X33533Y-31175D01*
X33533Y-30396D01*
X33533Y-30178D01*
X33449Y-29976D01*
X33366Y-29893D01*
X33449Y-29811D01*
X33533Y-29609D01*
X33533Y-29391D01*
X33449Y-29189D01*
X33366Y-29106D01*
X33449Y-29024D01*
X33533Y-28822D01*
X33533Y-28604D01*
X33449Y-28402D01*
X33295Y-28248D01*
X33093Y-28164D01*
X32875Y-28164D01*
X32673Y-28248D01*
X32519Y-28402D01*
X32435Y-28604D01*
X32435Y-28822D01*
X32519Y-29024D01*
X32601Y-29106D01*
X32519Y-29189D01*
X32435Y-29391D01*
X32435Y-29609D01*
X32519Y-29811D01*
X32601Y-29893D01*
X32519Y-29976D01*
X32435Y-30178D01*
X32435Y-30396D01*
X32519Y-30598D01*
X32673Y-30752D01*
X32875Y-30836D01*
X33093Y-30836D01*
X33295Y-30752D01*
X33449Y-30598D01*
X33533Y-30396D01*
X33533Y-31175D01*
X31565Y-31175D01*
X31565Y-30396D01*
X31565Y-30178D01*
X31481Y-29976D01*
X31398Y-29893D01*
X31481Y-29811D01*
X31565Y-29609D01*
X31565Y-29391D01*
X31481Y-29189D01*
X31398Y-29106D01*
X31481Y-29024D01*
X31565Y-28822D01*
X31565Y-28604D01*
X31481Y-28402D01*
X31327Y-28248D01*
X31125Y-28164D01*
X30907Y-28164D01*
X30705Y-28248D01*
X30551Y-28402D01*
X30467Y-28604D01*
X30467Y-28822D01*
X30551Y-29024D01*
X30633Y-29106D01*
X30551Y-29189D01*
X30467Y-29391D01*
X30467Y-29609D01*
X30551Y-29811D01*
X30633Y-29893D01*
X30551Y-29976D01*
X30467Y-30178D01*
X30467Y-30396D01*
X30551Y-30598D01*
X30705Y-30752D01*
X30907Y-30836D01*
X31125Y-30836D01*
X31327Y-30752D01*
X31481Y-30598D01*
X31565Y-30396D01*
X31565Y-31175D01*
X28580Y-31175D01*
X28580Y-30116D01*
X28580Y-29885D01*
X28492Y-29672D01*
X28329Y-29509D01*
X28116Y-29420D01*
X27885Y-29420D01*
X27672Y-29508D01*
X27509Y-29671D01*
X27420Y-29884D01*
X27420Y-30115D01*
X27508Y-30328D01*
X27671Y-30491D01*
X27702Y-30503D01*
X27702Y-30504D01*
X27671Y-30600D01*
X28000Y-30929D01*
X28329Y-30600D01*
X28298Y-30504D01*
X28328Y-30492D01*
X28491Y-30329D01*
X28580Y-30116D01*
X28580Y-31175D01*
X28540Y-31175D01*
X28573Y-31086D01*
X28562Y-30861D01*
X28496Y-30702D01*
X28400Y-30671D01*
X28106Y-30965D01*
X28071Y-31000D01*
X28000Y-31071D01*
X27929Y-31000D01*
X27894Y-30965D01*
X27600Y-30671D01*
X27504Y-30702D01*
X27427Y-30914D01*
X27438Y-31139D01*
X27452Y-31175D01*
X26580Y-31175D01*
X26580Y-30116D01*
X26580Y-29885D01*
X26492Y-29672D01*
X26329Y-29509D01*
X26116Y-29420D01*
X25885Y-29420D01*
X25672Y-29508D01*
X25509Y-29671D01*
X25420Y-29884D01*
X25420Y-30115D01*
X25508Y-30328D01*
X25671Y-30491D01*
X25702Y-30503D01*
X25702Y-30504D01*
X25671Y-30600D01*
X26000Y-30929D01*
X26329Y-30600D01*
X26298Y-30504D01*
X26328Y-30492D01*
X26491Y-30329D01*
X26580Y-30116D01*
X26580Y-31175D01*
X26540Y-31175D01*
X26573Y-31086D01*
X26562Y-30861D01*
X26496Y-30702D01*
X26400Y-30671D01*
X26106Y-30965D01*
X26071Y-31000D01*
X26000Y-31071D01*
X25929Y-31000D01*
X25894Y-30965D01*
X25600Y-30671D01*
X25504Y-30702D01*
X25427Y-30914D01*
X25438Y-31139D01*
X25452Y-31175D01*
X24580Y-31175D01*
X24580Y-30116D01*
X24580Y-29885D01*
X24492Y-29672D01*
X24329Y-29509D01*
X24116Y-29420D01*
X23885Y-29420D01*
X23672Y-29508D01*
X23509Y-29671D01*
X23420Y-29884D01*
X23420Y-30115D01*
X23508Y-30328D01*
X23671Y-30491D01*
X23702Y-30503D01*
X23702Y-30504D01*
X23671Y-30600D01*
X24000Y-30929D01*
X24329Y-30600D01*
X24298Y-30504D01*
X24328Y-30492D01*
X24491Y-30329D01*
X24580Y-30116D01*
X24580Y-31175D01*
X24540Y-31175D01*
X24573Y-31086D01*
X24562Y-30861D01*
X24496Y-30702D01*
X24400Y-30671D01*
X24106Y-30965D01*
X24071Y-31000D01*
X24000Y-31071D01*
X23929Y-31000D01*
X23894Y-30965D01*
X23600Y-30671D01*
X23504Y-30702D01*
X23427Y-30914D01*
X23438Y-31139D01*
X23452Y-31175D01*
X22279Y-31175D01*
X22349Y-31009D01*
X22349Y-30791D01*
X22343Y-30776D01*
X22343Y-29979D01*
X22332Y-29766D01*
X22272Y-29619D01*
X22178Y-29592D01*
X21871Y-29900D01*
X22178Y-30208D01*
X22272Y-30181D01*
X22343Y-29979D01*
X22343Y-30776D01*
X22265Y-30589D01*
X22111Y-30435D01*
X22019Y-30397D01*
X22081Y-30372D01*
X22108Y-30278D01*
X21835Y-30006D01*
X21800Y-29971D01*
X21729Y-29900D01*
X21800Y-29829D01*
X21835Y-29794D01*
X22108Y-29522D01*
X22081Y-29428D01*
X21879Y-29357D01*
X21666Y-29368D01*
X21630Y-29382D01*
X21630Y-25844D01*
X23475Y-23999D01*
X23475Y-24104D01*
X23555Y-24297D01*
X23702Y-24445D01*
X23895Y-24525D01*
X24008Y-24525D01*
X23767Y-24767D01*
X23695Y-24873D01*
X23670Y-25000D01*
X23670Y-27087D01*
X23555Y-27202D01*
X23475Y-27395D01*
X23475Y-27604D01*
X23555Y-27797D01*
X23702Y-27945D01*
X23835Y-28000D01*
X23703Y-28055D01*
X23555Y-28202D01*
X23475Y-28395D01*
X23475Y-28604D01*
X23555Y-28797D01*
X23702Y-28945D01*
X23895Y-29025D01*
X24104Y-29025D01*
X24297Y-28945D01*
X24445Y-28798D01*
X24525Y-28605D01*
X24525Y-28396D01*
X24445Y-28203D01*
X24298Y-28055D01*
X24164Y-27999D01*
X24297Y-27945D01*
X24445Y-27798D01*
X24525Y-27605D01*
X24525Y-27396D01*
X24445Y-27203D01*
X24330Y-27087D01*
X24330Y-25136D01*
X26475Y-22991D01*
X26475Y-23059D01*
X25767Y-23767D01*
X25695Y-23873D01*
X25670Y-24000D01*
X25670Y-27087D01*
X25555Y-27202D01*
X25475Y-27395D01*
X25475Y-27604D01*
X25555Y-27797D01*
X25702Y-27945D01*
X25835Y-28000D01*
X25703Y-28055D01*
X25555Y-28202D01*
X25475Y-28395D01*
X25475Y-28604D01*
X25555Y-28797D01*
X25702Y-28945D01*
X25895Y-29025D01*
X26104Y-29025D01*
X26297Y-28945D01*
X26445Y-28798D01*
X26525Y-28605D01*
X26525Y-28396D01*
X26445Y-28203D01*
X26298Y-28055D01*
X26164Y-27999D01*
X26297Y-27945D01*
X26445Y-27798D01*
X26525Y-27605D01*
X26525Y-27396D01*
X26445Y-27203D01*
X26330Y-27087D01*
X26330Y-24136D01*
X26476Y-23990D01*
X26476Y-24324D01*
X26514Y-24416D01*
X26584Y-24486D01*
X26675Y-24524D01*
X26774Y-24524D01*
X27324Y-24524D01*
X27416Y-24486D01*
X27486Y-24416D01*
X27521Y-24330D01*
X27927Y-24330D01*
X27927Y-25970D01*
X33553Y-25970D01*
X33553Y-24110D01*
X33099Y-24110D01*
X35319Y-21890D01*
X35383Y-21954D01*
X35493Y-21999D01*
X35384Y-22045D01*
X35233Y-22196D01*
X35151Y-22393D01*
X35151Y-22606D01*
X35231Y-22801D01*
X34973Y-23061D01*
X34901Y-23167D01*
X34876Y-23294D01*
X34876Y-26454D01*
X28716Y-26454D01*
X28590Y-26479D01*
X28554Y-26503D01*
X28482Y-26551D01*
X28058Y-26975D01*
X27896Y-26975D01*
X27703Y-27055D01*
X27555Y-27202D01*
X27475Y-27395D01*
X27475Y-27604D01*
X27555Y-27797D01*
X27702Y-27945D01*
X27835Y-28000D01*
X27703Y-28055D01*
X27555Y-28202D01*
X27475Y-28395D01*
X27475Y-28604D01*
X27555Y-28797D01*
X27702Y-28945D01*
X27895Y-29025D01*
X28104Y-29025D01*
X28297Y-28945D01*
X28445Y-28798D01*
X28525Y-28605D01*
X28525Y-28396D01*
X28445Y-28203D01*
X28298Y-28055D01*
X28164Y-27999D01*
X28297Y-27945D01*
X28445Y-27798D01*
X28525Y-27605D01*
X28525Y-27441D01*
X28852Y-27114D01*
X35206Y-27114D01*
X35354Y-27114D01*
X36182Y-27941D01*
X36182Y-28104D01*
X36212Y-28178D01*
X36141Y-28107D01*
X36049Y-28069D01*
X35951Y-28069D01*
X35859Y-28107D01*
X35789Y-28177D01*
X35787Y-28178D01*
X35818Y-28105D01*
X35818Y-27896D01*
X35738Y-27703D01*
X35591Y-27555D01*
X35398Y-27475D01*
X35189Y-27475D01*
X34996Y-27555D01*
X34848Y-27702D01*
X34768Y-27895D01*
X34768Y-28104D01*
X34848Y-28297D01*
X34995Y-28445D01*
X35188Y-28525D01*
X35397Y-28525D01*
X35472Y-28493D01*
X35470Y-28496D01*
X35400Y-28566D01*
X35362Y-28658D01*
X35362Y-28756D01*
X35400Y-28848D01*
X35550Y-28999D01*
X35637Y-28999D01*
X35894Y-28742D01*
X35929Y-28707D01*
X36000Y-28636D01*
X36071Y-28707D01*
X36106Y-28742D01*
X36363Y-28999D01*
X36450Y-28999D01*
X36530Y-28918D01*
X36600Y-28848D01*
X36638Y-28756D01*
X36638Y-28658D01*
X36600Y-28566D01*
X36529Y-28494D01*
X36602Y-28525D01*
X36675Y-28525D01*
X36675Y-29604D01*
X36675Y-29604D01*
G37*
G54D20*
X36675Y-29604D02*
X36617Y-29546D01*
X36420Y-29464D01*
X36292Y-29464D01*
X36292Y-29157D01*
X36292Y-29070D01*
X36000Y-28778D01*
X35708Y-29070D01*
X35708Y-29157D01*
X35859Y-29307D01*
X35951Y-29345D01*
X36049Y-29345D01*
X36141Y-29307D01*
X36211Y-29237D01*
X36292Y-29157D01*
X36292Y-29464D01*
X36207Y-29464D01*
X35581Y-29464D01*
X35384Y-29545D01*
X35233Y-29696D01*
X35151Y-29893D01*
X35151Y-30106D01*
X35232Y-30303D01*
X35383Y-30454D01*
X35490Y-30498D01*
X35404Y-30533D01*
X35248Y-30683D01*
X35175Y-30866D01*
X35222Y-30950D01*
X35900Y-30950D01*
X35950Y-30950D01*
X36050Y-30950D01*
X36050Y-31050D01*
X35950Y-31050D01*
X35900Y-31050D01*
X35222Y-31050D01*
X35175Y-31134D01*
X35191Y-31175D01*
X33533Y-31175D01*
X33533Y-30396D01*
X33533Y-30178D01*
X33449Y-29976D01*
X33366Y-29893D01*
X33449Y-29811D01*
X33533Y-29609D01*
X33533Y-29391D01*
X33449Y-29189D01*
X33366Y-29106D01*
X33449Y-29024D01*
X33533Y-28822D01*
X33533Y-28604D01*
X33449Y-28402D01*
X33295Y-28248D01*
X33093Y-28164D01*
X32875Y-28164D01*
X32673Y-28248D01*
X32519Y-28402D01*
X32435Y-28604D01*
X32435Y-28822D01*
X32519Y-29024D01*
X32601Y-29106D01*
X32519Y-29189D01*
X32435Y-29391D01*
X32435Y-29609D01*
X32519Y-29811D01*
X32601Y-29893D01*
X32519Y-29976D01*
X32435Y-30178D01*
X32435Y-30396D01*
X32519Y-30598D01*
X32673Y-30752D01*
X32875Y-30836D01*
X33093Y-30836D01*
X33295Y-30752D01*
X33449Y-30598D01*
X33533Y-30396D01*
X33533Y-31175D01*
X31565Y-31175D01*
X31565Y-30396D01*
X31565Y-30178D01*
X31481Y-29976D01*
X31398Y-29893D01*
X31481Y-29811D01*
X31565Y-29609D01*
X31565Y-29391D01*
X31481Y-29189D01*
X31398Y-29106D01*
X31481Y-29024D01*
X31565Y-28822D01*
X31565Y-28604D01*
X31481Y-28402D01*
X31327Y-28248D01*
X31125Y-28164D01*
X30907Y-28164D01*
X30705Y-28248D01*
X30551Y-28402D01*
X30467Y-28604D01*
X30467Y-28822D01*
X30551Y-29024D01*
X30633Y-29106D01*
X30551Y-29189D01*
X30467Y-29391D01*
X30467Y-29609D01*
X30551Y-29811D01*
X30633Y-29893D01*
X30551Y-29976D01*
X30467Y-30178D01*
X30467Y-30396D01*
X30551Y-30598D01*
X30705Y-30752D01*
X30907Y-30836D01*
X31125Y-30836D01*
X31327Y-30752D01*
X31481Y-30598D01*
X31565Y-30396D01*
X31565Y-31175D01*
X28580Y-31175D01*
X28580Y-30116D01*
X28580Y-29885D01*
X28492Y-29672D01*
X28329Y-29509D01*
X28116Y-29420D01*
X27885Y-29420D01*
X27672Y-29508D01*
X27509Y-29671D01*
X27420Y-29884D01*
X27420Y-30115D01*
X27508Y-30328D01*
X27671Y-30491D01*
X27702Y-30503D01*
X27702Y-30504D01*
X27671Y-30600D01*
X28000Y-30929D01*
X28329Y-30600D01*
X28298Y-30504D01*
X28328Y-30492D01*
X28491Y-30329D01*
X28580Y-30116D01*
X28580Y-31175D01*
X28540Y-31175D01*
X28573Y-31086D01*
X28562Y-30861D01*
X28496Y-30702D01*
X28400Y-30671D01*
X28106Y-30965D01*
X28071Y-31000D01*
X28000Y-31071D01*
X27929Y-31000D01*
X27894Y-30965D01*
X27600Y-30671D01*
X27504Y-30702D01*
X27427Y-30914D01*
X27438Y-31139D01*
X27452Y-31175D01*
X26580Y-31175D01*
X26580Y-30116D01*
X26580Y-29885D01*
X26492Y-29672D01*
X26329Y-29509D01*
X26116Y-29420D01*
X25885Y-29420D01*
X25672Y-29508D01*
X25509Y-29671D01*
X25420Y-29884D01*
X25420Y-30115D01*
X25508Y-30328D01*
X25671Y-30491D01*
X25702Y-30503D01*
X25702Y-30504D01*
X25671Y-30600D01*
X26000Y-30929D01*
X26329Y-30600D01*
X26298Y-30504D01*
X26328Y-30492D01*
X26491Y-30329D01*
X26580Y-30116D01*
X26580Y-31175D01*
X26540Y-31175D01*
X26573Y-31086D01*
X26562Y-30861D01*
X26496Y-30702D01*
X26400Y-30671D01*
X26106Y-30965D01*
X26071Y-31000D01*
X26000Y-31071D01*
X25929Y-31000D01*
X25894Y-30965D01*
X25600Y-30671D01*
X25504Y-30702D01*
X25427Y-30914D01*
X25438Y-31139D01*
X25452Y-31175D01*
X24580Y-31175D01*
X24580Y-30116D01*
X24580Y-29885D01*
X24492Y-29672D01*
X24329Y-29509D01*
X24116Y-29420D01*
X23885Y-29420D01*
X23672Y-29508D01*
X23509Y-29671D01*
X23420Y-29884D01*
X23420Y-30115D01*
X23508Y-30328D01*
X23671Y-30491D01*
X23702Y-30503D01*
X23702Y-30504D01*
X23671Y-30600D01*
X24000Y-30929D01*
X24329Y-30600D01*
X24298Y-30504D01*
X24328Y-30492D01*
X24491Y-30329D01*
X24580Y-30116D01*
X24580Y-31175D01*
X24540Y-31175D01*
X24573Y-31086D01*
X24562Y-30861D01*
X24496Y-30702D01*
X24400Y-30671D01*
X24106Y-30965D01*
X24071Y-31000D01*
X24000Y-31071D01*
X23929Y-31000D01*
X23894Y-30965D01*
X23600Y-30671D01*
X23504Y-30702D01*
X23427Y-30914D01*
X23438Y-31139D01*
X23452Y-31175D01*
X22279Y-31175D01*
X22349Y-31009D01*
X22349Y-30791D01*
X22343Y-30776D01*
X22343Y-29979D01*
X22332Y-29766D01*
X22272Y-29619D01*
X22178Y-29592D01*
X21871Y-29900D01*
X22178Y-30208D01*
X22272Y-30181D01*
X22343Y-29979D01*
X22343Y-30776D01*
X22265Y-30589D01*
X22111Y-30435D01*
X22019Y-30397D01*
X22081Y-30372D01*
X22108Y-30278D01*
X21835Y-30006D01*
X21800Y-29971D01*
X21729Y-29900D01*
X21800Y-29829D01*
X21835Y-29794D01*
X22108Y-29522D01*
X22081Y-29428D01*
X21879Y-29357D01*
X21666Y-29368D01*
X21630Y-29382D01*
X21630Y-25844D01*
X23475Y-23999D01*
X23475Y-24104D01*
X23555Y-24297D01*
X23702Y-24445D01*
X23895Y-24525D01*
X24008Y-24525D01*
X23767Y-24767D01*
X23695Y-24873D01*
X23670Y-25000D01*
X23670Y-27087D01*
X23555Y-27202D01*
X23475Y-27395D01*
X23475Y-27604D01*
X23555Y-27797D01*
X23702Y-27945D01*
X23835Y-28000D01*
X23703Y-28055D01*
X23555Y-28202D01*
X23475Y-28395D01*
X23475Y-28604D01*
X23555Y-28797D01*
X23702Y-28945D01*
X23895Y-29025D01*
X24104Y-29025D01*
X24297Y-28945D01*
X24445Y-28798D01*
X24525Y-28605D01*
X24525Y-28396D01*
X24445Y-28203D01*
X24298Y-28055D01*
X24164Y-27999D01*
X24297Y-27945D01*
X24445Y-27798D01*
X24525Y-27605D01*
X24525Y-27396D01*
X24445Y-27203D01*
X24330Y-27087D01*
X24330Y-25136D01*
X26475Y-22991D01*
X26475Y-23059D01*
X25767Y-23767D01*
X25695Y-23873D01*
X25670Y-24000D01*
X25670Y-27087D01*
X25555Y-27202D01*
X25475Y-27395D01*
X25475Y-27604D01*
X25555Y-27797D01*
X25702Y-27945D01*
X25835Y-28000D01*
X25703Y-28055D01*
X25555Y-28202D01*
X25475Y-28395D01*
X25475Y-28604D01*
X25555Y-28797D01*
X25702Y-28945D01*
X25895Y-29025D01*
X26104Y-29025D01*
X26297Y-28945D01*
X26445Y-28798D01*
X26525Y-28605D01*
X26525Y-28396D01*
X26445Y-28203D01*
X26298Y-28055D01*
X26164Y-27999D01*
X26297Y-27945D01*
X26445Y-27798D01*
X26525Y-27605D01*
X26525Y-27396D01*
X26445Y-27203D01*
X26330Y-27087D01*
X26330Y-24136D01*
X26476Y-23990D01*
X26476Y-24324D01*
X26514Y-24416D01*
X26584Y-24486D01*
X26675Y-24524D01*
X26774Y-24524D01*
X27324Y-24524D01*
X27416Y-24486D01*
X27486Y-24416D01*
X27521Y-24330D01*
X27927Y-24330D01*
X27927Y-25970D01*
X33553Y-25970D01*
X33553Y-24110D01*
X33099Y-24110D01*
X35319Y-21890D01*
X35383Y-21954D01*
X35493Y-21999D01*
X35384Y-22045D01*
X35233Y-22196D01*
X35151Y-22393D01*
X35151Y-22606D01*
X35231Y-22801D01*
X34973Y-23061D01*
X34901Y-23167D01*
X34876Y-23294D01*
X34876Y-26454D01*
X28716Y-26454D01*
X28590Y-26479D01*
X28554Y-26503D01*
X28482Y-26551D01*
X28058Y-26975D01*
X27896Y-26975D01*
X27703Y-27055D01*
X27555Y-27202D01*
X27475Y-27395D01*
X27475Y-27604D01*
X27555Y-27797D01*
X27702Y-27945D01*
X27835Y-28000D01*
X27703Y-28055D01*
X27555Y-28202D01*
X27475Y-28395D01*
X27475Y-28604D01*
X27555Y-28797D01*
X27702Y-28945D01*
X27895Y-29025D01*
X28104Y-29025D01*
X28297Y-28945D01*
X28445Y-28798D01*
X28525Y-28605D01*
X28525Y-28396D01*
X28445Y-28203D01*
X28298Y-28055D01*
X28164Y-27999D01*
X28297Y-27945D01*
X28445Y-27798D01*
X28525Y-27605D01*
X28525Y-27441D01*
X28852Y-27114D01*
X35206Y-27114D01*
X35354Y-27114D01*
X36182Y-27941D01*
X36182Y-28104D01*
X36212Y-28178D01*
X36141Y-28107D01*
X36049Y-28069D01*
X35951Y-28069D01*
X35859Y-28107D01*
X35789Y-28177D01*
X35787Y-28178D01*
X35818Y-28105D01*
X35818Y-27896D01*
X35738Y-27703D01*
X35591Y-27555D01*
X35398Y-27475D01*
X35189Y-27475D01*
X34996Y-27555D01*
X34848Y-27702D01*
X34768Y-27895D01*
X34768Y-28104D01*
X34848Y-28297D01*
X34995Y-28445D01*
X35188Y-28525D01*
X35397Y-28525D01*
X35472Y-28493D01*
X35470Y-28496D01*
X35400Y-28566D01*
X35362Y-28658D01*
X35362Y-28756D01*
X35400Y-28848D01*
X35550Y-28999D01*
X35637Y-28999D01*
X35894Y-28742D01*
X35929Y-28707D01*
X36000Y-28636D01*
X36071Y-28707D01*
X36106Y-28742D01*
X36363Y-28999D01*
X36450Y-28999D01*
X36530Y-28918D01*
X36600Y-28848D01*
X36638Y-28756D01*
X36638Y-28658D01*
X36600Y-28566D01*
X36529Y-28494D01*
X36602Y-28525D01*
X36675Y-28525D01*
X36675Y-29604D01*
M02*
