G04 (created by PCBNEW (2011-nov-30)-testing) date Wed 12 Sep 2012 01:04:55 AM CST*
%MOIN*%
G04 Gerber Fmt 3.4, Leading zero omitted, Abs format*
%FSLAX34Y34*%
G01*
G70*
G90*
G04 APERTURE LIST*
%ADD10C,0.006*%
%ADD11C,0.012*%
%ADD12C,0.015*%
%ADD13C,0.008*%
%ADD14C,0.003*%
%ADD15C,0.01*%
%ADD16C,0.0035*%
G04 APERTURE END LIST*
G54D10*
G54D11*
X21343Y-17124D02*
X21743Y-17924D01*
X21743Y-17124D02*
X21343Y-17924D01*
X21971Y-17924D02*
X21971Y-17390D01*
X21971Y-17124D02*
X21942Y-17162D01*
X21971Y-17200D01*
X21999Y-17162D01*
X21971Y-17124D01*
X21971Y-17200D01*
X22257Y-17390D02*
X22257Y-17924D01*
X22257Y-17467D02*
X22285Y-17429D01*
X22343Y-17390D01*
X22428Y-17390D01*
X22485Y-17429D01*
X22514Y-17505D01*
X22514Y-17924D01*
X23143Y-17848D02*
X23114Y-17886D01*
X23028Y-17924D01*
X22971Y-17924D01*
X22886Y-17886D01*
X22828Y-17810D01*
X22800Y-17733D01*
X22771Y-17581D01*
X22771Y-17467D01*
X22800Y-17314D01*
X22828Y-17238D01*
X22886Y-17162D01*
X22971Y-17124D01*
X23028Y-17124D01*
X23114Y-17162D01*
X23143Y-17200D01*
X23400Y-17924D02*
X23400Y-17124D01*
X23657Y-17924D02*
X23657Y-17505D01*
X23628Y-17429D01*
X23571Y-17390D01*
X23486Y-17390D01*
X23428Y-17429D01*
X23400Y-17467D01*
X24171Y-17886D02*
X24114Y-17924D01*
X24000Y-17924D01*
X23943Y-17886D01*
X23914Y-17810D01*
X23914Y-17505D01*
X23943Y-17429D01*
X24000Y-17390D01*
X24114Y-17390D01*
X24171Y-17429D01*
X24200Y-17505D01*
X24200Y-17581D01*
X23914Y-17657D01*
X24628Y-17124D02*
X24628Y-17695D01*
X24600Y-17810D01*
X24543Y-17886D01*
X24457Y-17924D01*
X24400Y-17924D01*
X24914Y-17924D02*
X24914Y-17390D01*
X24914Y-17124D02*
X24885Y-17162D01*
X24914Y-17200D01*
X24942Y-17162D01*
X24914Y-17124D01*
X24914Y-17200D01*
X25457Y-17924D02*
X25457Y-17505D01*
X25428Y-17429D01*
X25371Y-17390D01*
X25257Y-17390D01*
X25200Y-17429D01*
X25457Y-17886D02*
X25400Y-17924D01*
X25257Y-17924D01*
X25200Y-17886D01*
X25171Y-17810D01*
X25171Y-17733D01*
X25200Y-17657D01*
X25257Y-17619D01*
X25400Y-17619D01*
X25457Y-17581D01*
X25743Y-17390D02*
X25743Y-17924D01*
X25743Y-17467D02*
X25771Y-17429D01*
X25829Y-17390D01*
X25914Y-17390D01*
X25971Y-17429D01*
X26000Y-17505D01*
X26000Y-17924D01*
G54D12*
X27500Y-29000D02*
G75*
G03X29500Y-29000I1000J1000D01*
G74*
G01*
X27200Y-27000D02*
X27200Y-29000D01*
X27200Y-29000D02*
X29800Y-29000D01*
X29800Y-29000D02*
X29800Y-27000D01*
X29800Y-27000D02*
X27200Y-27000D01*
X29500Y-16500D02*
G75*
G03X27500Y-16500I-1000J-1000D01*
G74*
G01*
X29800Y-18500D02*
X29800Y-16500D01*
X29800Y-16500D02*
X27200Y-16500D01*
X27200Y-16500D02*
X27200Y-18500D01*
X27200Y-18500D02*
X29800Y-18500D01*
X21586Y-26000D02*
G75*
G03X23000Y-27414I1414J0D01*
G74*
G01*
X22788Y-24374D02*
X21374Y-25788D01*
X21374Y-25788D02*
X23212Y-27626D01*
X23212Y-27626D02*
X24626Y-26212D01*
X24626Y-26212D02*
X22788Y-24374D01*
X34000Y-27414D02*
G75*
G03X35414Y-26000I0J1414D01*
G74*
G01*
X32374Y-26212D02*
X33788Y-27626D01*
X33788Y-27626D02*
X35626Y-25788D01*
X35626Y-25788D02*
X34212Y-24374D01*
X34212Y-24374D02*
X32374Y-26212D01*
G54D11*
X28646Y-19939D02*
X28646Y-22061D01*
X28646Y-22061D02*
X29000Y-22414D01*
X29000Y-22414D02*
X29707Y-22414D01*
X29707Y-22414D02*
X30414Y-21707D01*
X30414Y-21707D02*
X30414Y-20293D01*
X30414Y-20293D02*
X29707Y-19586D01*
X29707Y-19586D02*
X29000Y-19586D01*
X29000Y-19586D02*
X28646Y-19939D01*
G54D13*
X27500Y-22500D02*
X27500Y-22300D01*
X27500Y-19500D02*
X27500Y-19700D01*
X27500Y-19700D02*
X27100Y-19700D01*
X27100Y-19700D02*
X27100Y-22300D01*
X27100Y-22300D02*
X27900Y-22300D01*
X27900Y-22300D02*
X27900Y-19700D01*
X27900Y-19700D02*
X27500Y-19700D01*
X27300Y-22300D02*
X27100Y-22100D01*
G54D10*
X20500Y-25000D02*
X19500Y-25000D01*
X19500Y-25000D02*
X19500Y-23000D01*
X19500Y-23000D02*
X20500Y-23000D01*
X20500Y-23000D02*
X20500Y-25000D01*
X37500Y-25000D02*
X36500Y-25000D01*
X36500Y-25000D02*
X36500Y-23000D01*
X36500Y-23000D02*
X37500Y-23000D01*
X37500Y-23000D02*
X37500Y-25000D01*
G54D11*
X20500Y-23000D02*
X19500Y-23000D01*
X19500Y-23000D02*
X19500Y-17000D01*
X19500Y-17000D02*
X20500Y-17000D01*
X20500Y-17000D02*
X20500Y-23000D01*
X20500Y-22000D02*
X19500Y-22000D01*
X37500Y-23000D02*
X36500Y-23000D01*
X36500Y-23000D02*
X36500Y-17000D01*
X36500Y-17000D02*
X37500Y-17000D01*
X37500Y-17000D02*
X37500Y-23000D01*
X37500Y-22000D02*
X36500Y-22000D01*
G54D13*
X29250Y-23880D02*
X27750Y-23880D01*
G54D14*
X29207Y-24900D02*
G75*
G03X29207Y-24900I-707J0D01*
G74*
G01*
G54D15*
X27749Y-23900D02*
G75*
G03X29251Y-23900I751J-1000D01*
G74*
G01*
G54D10*
X28050Y-24900D02*
G75*
G03X28500Y-25350I450J0D01*
G74*
G01*
X28950Y-24900D02*
G75*
G03X28500Y-24450I-450J0D01*
G74*
G01*
X27850Y-24900D02*
G75*
G03X28500Y-25550I650J0D01*
G74*
G01*
X29150Y-24900D02*
G75*
G03X28500Y-24250I-650J0D01*
G74*
G01*
X27650Y-24900D02*
G75*
G03X28500Y-25750I850J0D01*
G74*
G01*
X29350Y-24900D02*
G75*
G03X28500Y-24050I-850J0D01*
G74*
G01*
G54D11*
X28043Y-27249D02*
X28043Y-27735D01*
X28071Y-27792D01*
X28100Y-27820D01*
X28157Y-27849D01*
X28271Y-27849D01*
X28329Y-27820D01*
X28357Y-27792D01*
X28386Y-27735D01*
X28386Y-27249D01*
X28986Y-27849D02*
X28643Y-27849D01*
X28815Y-27849D02*
X28815Y-27249D01*
X28758Y-27335D01*
X28700Y-27392D01*
X28643Y-27420D01*
X26287Y-28234D02*
X26630Y-28234D01*
X26459Y-28834D02*
X26459Y-28234D01*
X26801Y-28805D02*
X26887Y-28834D01*
X27030Y-28834D01*
X27087Y-28805D01*
X27116Y-28777D01*
X27144Y-28720D01*
X27144Y-28662D01*
X27116Y-28605D01*
X27087Y-28577D01*
X27030Y-28548D01*
X26916Y-28520D01*
X26858Y-28491D01*
X26830Y-28462D01*
X26801Y-28405D01*
X26801Y-28348D01*
X26830Y-28291D01*
X26858Y-28262D01*
X26916Y-28234D01*
X27058Y-28234D01*
X27144Y-28262D01*
X27515Y-28234D02*
X27629Y-28234D01*
X27687Y-28262D01*
X27744Y-28320D01*
X27772Y-28434D01*
X27772Y-28634D01*
X27744Y-28748D01*
X27687Y-28805D01*
X27629Y-28834D01*
X27515Y-28834D01*
X27458Y-28805D01*
X27401Y-28748D01*
X27372Y-28634D01*
X27372Y-28434D01*
X27401Y-28320D01*
X27458Y-28262D01*
X27515Y-28234D01*
X28030Y-28834D02*
X28030Y-28234D01*
X28258Y-28234D01*
X28316Y-28262D01*
X28344Y-28291D01*
X28373Y-28348D01*
X28373Y-28434D01*
X28344Y-28491D01*
X28316Y-28520D01*
X28258Y-28548D01*
X28030Y-28548D01*
X28944Y-28834D02*
X28601Y-28834D01*
X28773Y-28834D02*
X28773Y-28234D01*
X28716Y-28320D01*
X28658Y-28377D01*
X28601Y-28405D01*
X29287Y-28491D02*
X29229Y-28462D01*
X29201Y-28434D01*
X29172Y-28377D01*
X29172Y-28348D01*
X29201Y-28291D01*
X29229Y-28262D01*
X29287Y-28234D01*
X29401Y-28234D01*
X29458Y-28262D01*
X29487Y-28291D01*
X29515Y-28348D01*
X29515Y-28377D01*
X29487Y-28434D01*
X29458Y-28462D01*
X29401Y-28491D01*
X29287Y-28491D01*
X29229Y-28520D01*
X29201Y-28548D01*
X29172Y-28605D01*
X29172Y-28720D01*
X29201Y-28777D01*
X29229Y-28805D01*
X29287Y-28834D01*
X29401Y-28834D01*
X29458Y-28805D01*
X29487Y-28777D01*
X29515Y-28720D01*
X29515Y-28605D01*
X29487Y-28548D01*
X29458Y-28520D01*
X29401Y-28491D01*
X29715Y-28234D02*
X30086Y-28234D01*
X29886Y-28462D01*
X29972Y-28462D01*
X30029Y-28491D01*
X30058Y-28520D01*
X30086Y-28577D01*
X30086Y-28720D01*
X30058Y-28777D01*
X30029Y-28805D01*
X29972Y-28834D01*
X29800Y-28834D01*
X29743Y-28805D01*
X29715Y-28777D01*
X30429Y-28491D02*
X30371Y-28462D01*
X30343Y-28434D01*
X30314Y-28377D01*
X30314Y-28348D01*
X30343Y-28291D01*
X30371Y-28262D01*
X30429Y-28234D01*
X30543Y-28234D01*
X30600Y-28262D01*
X30629Y-28291D01*
X30657Y-28348D01*
X30657Y-28377D01*
X30629Y-28434D01*
X30600Y-28462D01*
X30543Y-28491D01*
X30429Y-28491D01*
X30371Y-28520D01*
X30343Y-28548D01*
X30314Y-28605D01*
X30314Y-28720D01*
X30343Y-28777D01*
X30371Y-28805D01*
X30429Y-28834D01*
X30543Y-28834D01*
X30600Y-28805D01*
X30629Y-28777D01*
X30657Y-28720D01*
X30657Y-28605D01*
X30629Y-28548D01*
X30600Y-28520D01*
X30543Y-28491D01*
X28043Y-17537D02*
X28043Y-18023D01*
X28071Y-18080D01*
X28100Y-18108D01*
X28157Y-18137D01*
X28271Y-18137D01*
X28329Y-18108D01*
X28357Y-18080D01*
X28386Y-18023D01*
X28386Y-17537D01*
X28929Y-17737D02*
X28929Y-18137D01*
X28786Y-17508D02*
X28643Y-17937D01*
X29015Y-17937D01*
X26287Y-16552D02*
X26630Y-16552D01*
X26459Y-17152D02*
X26459Y-16552D01*
X26801Y-17123D02*
X26887Y-17152D01*
X27030Y-17152D01*
X27087Y-17123D01*
X27116Y-17095D01*
X27144Y-17038D01*
X27144Y-16980D01*
X27116Y-16923D01*
X27087Y-16895D01*
X27030Y-16866D01*
X26916Y-16838D01*
X26858Y-16809D01*
X26830Y-16780D01*
X26801Y-16723D01*
X26801Y-16666D01*
X26830Y-16609D01*
X26858Y-16580D01*
X26916Y-16552D01*
X27058Y-16552D01*
X27144Y-16580D01*
X27515Y-16552D02*
X27629Y-16552D01*
X27687Y-16580D01*
X27744Y-16638D01*
X27772Y-16752D01*
X27772Y-16952D01*
X27744Y-17066D01*
X27687Y-17123D01*
X27629Y-17152D01*
X27515Y-17152D01*
X27458Y-17123D01*
X27401Y-17066D01*
X27372Y-16952D01*
X27372Y-16752D01*
X27401Y-16638D01*
X27458Y-16580D01*
X27515Y-16552D01*
X28030Y-17152D02*
X28030Y-16552D01*
X28258Y-16552D01*
X28316Y-16580D01*
X28344Y-16609D01*
X28373Y-16666D01*
X28373Y-16752D01*
X28344Y-16809D01*
X28316Y-16838D01*
X28258Y-16866D01*
X28030Y-16866D01*
X28944Y-17152D02*
X28601Y-17152D01*
X28773Y-17152D02*
X28773Y-16552D01*
X28716Y-16638D01*
X28658Y-16695D01*
X28601Y-16723D01*
X29287Y-16809D02*
X29229Y-16780D01*
X29201Y-16752D01*
X29172Y-16695D01*
X29172Y-16666D01*
X29201Y-16609D01*
X29229Y-16580D01*
X29287Y-16552D01*
X29401Y-16552D01*
X29458Y-16580D01*
X29487Y-16609D01*
X29515Y-16666D01*
X29515Y-16695D01*
X29487Y-16752D01*
X29458Y-16780D01*
X29401Y-16809D01*
X29287Y-16809D01*
X29229Y-16838D01*
X29201Y-16866D01*
X29172Y-16923D01*
X29172Y-17038D01*
X29201Y-17095D01*
X29229Y-17123D01*
X29287Y-17152D01*
X29401Y-17152D01*
X29458Y-17123D01*
X29487Y-17095D01*
X29515Y-17038D01*
X29515Y-16923D01*
X29487Y-16866D01*
X29458Y-16838D01*
X29401Y-16809D01*
X29715Y-16552D02*
X30086Y-16552D01*
X29886Y-16780D01*
X29972Y-16780D01*
X30029Y-16809D01*
X30058Y-16838D01*
X30086Y-16895D01*
X30086Y-17038D01*
X30058Y-17095D01*
X30029Y-17123D01*
X29972Y-17152D01*
X29800Y-17152D01*
X29743Y-17123D01*
X29715Y-17095D01*
X30429Y-16809D02*
X30371Y-16780D01*
X30343Y-16752D01*
X30314Y-16695D01*
X30314Y-16666D01*
X30343Y-16609D01*
X30371Y-16580D01*
X30429Y-16552D01*
X30543Y-16552D01*
X30600Y-16580D01*
X30629Y-16609D01*
X30657Y-16666D01*
X30657Y-16695D01*
X30629Y-16752D01*
X30600Y-16780D01*
X30543Y-16809D01*
X30429Y-16809D01*
X30371Y-16838D01*
X30343Y-16866D01*
X30314Y-16923D01*
X30314Y-17038D01*
X30343Y-17095D01*
X30371Y-17123D01*
X30429Y-17152D01*
X30543Y-17152D01*
X30600Y-17123D01*
X30629Y-17095D01*
X30657Y-17038D01*
X30657Y-16923D01*
X30629Y-16866D01*
X30600Y-16838D01*
X30543Y-16809D01*
X23208Y-25145D02*
X22865Y-25489D01*
X22844Y-25549D01*
X22845Y-25589D01*
X22865Y-25650D01*
X22945Y-25731D01*
X23007Y-25751D01*
X23046Y-25751D01*
X23107Y-25732D01*
X23451Y-25388D01*
X23592Y-25610D02*
X23633Y-25610D01*
X23693Y-25630D01*
X23794Y-25732D01*
X23815Y-25792D01*
X23815Y-25833D01*
X23794Y-25893D01*
X23754Y-25933D01*
X23674Y-25974D01*
X23188Y-25974D01*
X23451Y-26236D01*
X20765Y-27730D02*
X21007Y-27488D01*
X21311Y-28033D02*
X20886Y-27609D01*
X21532Y-27771D02*
X21613Y-27730D01*
X21714Y-27629D01*
X21734Y-27568D01*
X21735Y-27528D01*
X21714Y-27468D01*
X21673Y-27427D01*
X21613Y-27407D01*
X21573Y-27407D01*
X21512Y-27427D01*
X21412Y-27488D01*
X21350Y-27508D01*
X21310Y-27508D01*
X21249Y-27488D01*
X21209Y-27448D01*
X21189Y-27387D01*
X21188Y-27346D01*
X21210Y-27286D01*
X21310Y-27185D01*
X21391Y-27144D01*
X21633Y-26862D02*
X21714Y-26781D01*
X21774Y-26760D01*
X21856Y-26761D01*
X21956Y-26822D01*
X22098Y-26963D01*
X22158Y-27064D01*
X22158Y-27144D01*
X22138Y-27206D01*
X22057Y-27286D01*
X21997Y-27306D01*
X21916Y-27306D01*
X21815Y-27246D01*
X21673Y-27105D01*
X21613Y-27003D01*
X21613Y-26922D01*
X21633Y-26862D01*
X22421Y-26922D02*
X21997Y-26498D01*
X22158Y-26337D01*
X22219Y-26315D01*
X22260Y-26316D01*
X22320Y-26336D01*
X22381Y-26397D01*
X22401Y-26458D01*
X22402Y-26498D01*
X22380Y-26559D01*
X22219Y-26720D01*
X23068Y-26276D02*
X22825Y-26518D01*
X22947Y-26397D02*
X22523Y-25973D01*
X22543Y-26074D01*
X22542Y-26155D01*
X22522Y-26215D01*
X23068Y-25791D02*
X23006Y-25811D01*
X22967Y-25811D01*
X22906Y-25792D01*
X22885Y-25771D01*
X22866Y-25710D01*
X22865Y-25670D01*
X22886Y-25609D01*
X22967Y-25528D01*
X23027Y-25508D01*
X23068Y-25508D01*
X23128Y-25528D01*
X23148Y-25549D01*
X23169Y-25609D01*
X23168Y-25649D01*
X23148Y-25710D01*
X23068Y-25791D01*
X23047Y-25852D01*
X23047Y-25892D01*
X23067Y-25953D01*
X23148Y-26034D01*
X23209Y-26054D01*
X23249Y-26054D01*
X23310Y-26033D01*
X23391Y-25953D01*
X23411Y-25892D01*
X23411Y-25852D01*
X23391Y-25792D01*
X23310Y-25710D01*
X23250Y-25690D01*
X23209Y-25690D01*
X23148Y-25710D01*
X23189Y-25306D02*
X23451Y-25044D01*
X23471Y-25347D01*
X23532Y-25286D01*
X23592Y-25266D01*
X23633Y-25266D01*
X23694Y-25287D01*
X23795Y-25388D01*
X23815Y-25448D01*
X23814Y-25488D01*
X23795Y-25549D01*
X23673Y-25671D01*
X23612Y-25690D01*
X23573Y-25690D01*
X23875Y-24983D02*
X23814Y-25004D01*
X23774Y-25004D01*
X23713Y-24984D01*
X23693Y-24963D01*
X23673Y-24903D01*
X23672Y-24862D01*
X23694Y-24802D01*
X23774Y-24721D01*
X23834Y-24700D01*
X23875Y-24700D01*
X23935Y-24721D01*
X23956Y-24741D01*
X23976Y-24802D01*
X23976Y-24842D01*
X23956Y-24903D01*
X23875Y-24983D01*
X23855Y-25045D01*
X23855Y-25084D01*
X23875Y-25145D01*
X23956Y-25227D01*
X24017Y-25246D01*
X24056Y-25246D01*
X24118Y-25226D01*
X24198Y-25145D01*
X24218Y-25084D01*
X24219Y-25044D01*
X24198Y-24984D01*
X24117Y-24903D01*
X24057Y-24882D01*
X24017Y-24883D01*
X23956Y-24903D01*
X33145Y-25792D02*
X33489Y-26135D01*
X33549Y-26156D01*
X33589Y-26155D01*
X33650Y-26135D01*
X33731Y-26055D01*
X33751Y-25993D01*
X33751Y-25954D01*
X33732Y-25893D01*
X33388Y-25549D01*
X33550Y-25387D02*
X33812Y-25125D01*
X33832Y-25428D01*
X33893Y-25367D01*
X33954Y-25347D01*
X33995Y-25347D01*
X34055Y-25367D01*
X34156Y-25469D01*
X34176Y-25529D01*
X34176Y-25569D01*
X34156Y-25630D01*
X34034Y-25751D01*
X33973Y-25771D01*
X33934Y-25771D01*
X32601Y-27730D02*
X32843Y-27488D01*
X33147Y-28033D02*
X32722Y-27609D01*
X33368Y-27771D02*
X33449Y-27730D01*
X33550Y-27629D01*
X33570Y-27568D01*
X33571Y-27528D01*
X33550Y-27468D01*
X33509Y-27427D01*
X33449Y-27407D01*
X33409Y-27407D01*
X33348Y-27427D01*
X33248Y-27488D01*
X33186Y-27508D01*
X33146Y-27508D01*
X33085Y-27488D01*
X33045Y-27448D01*
X33025Y-27387D01*
X33024Y-27346D01*
X33046Y-27286D01*
X33146Y-27185D01*
X33227Y-27144D01*
X33469Y-26862D02*
X33550Y-26781D01*
X33610Y-26760D01*
X33692Y-26761D01*
X33792Y-26822D01*
X33934Y-26963D01*
X33994Y-27064D01*
X33994Y-27144D01*
X33974Y-27206D01*
X33893Y-27286D01*
X33833Y-27306D01*
X33752Y-27306D01*
X33651Y-27246D01*
X33509Y-27105D01*
X33449Y-27003D01*
X33449Y-26922D01*
X33469Y-26862D01*
X34257Y-26922D02*
X33833Y-26498D01*
X33994Y-26337D01*
X34055Y-26315D01*
X34096Y-26316D01*
X34156Y-26336D01*
X34217Y-26397D01*
X34237Y-26458D01*
X34238Y-26498D01*
X34216Y-26559D01*
X34055Y-26720D01*
X34904Y-26276D02*
X34661Y-26518D01*
X34783Y-26397D02*
X34359Y-25973D01*
X34379Y-26074D01*
X34378Y-26155D01*
X34358Y-26215D01*
X34904Y-25791D02*
X34842Y-25811D01*
X34803Y-25811D01*
X34742Y-25792D01*
X34721Y-25771D01*
X34702Y-25710D01*
X34701Y-25670D01*
X34722Y-25609D01*
X34803Y-25528D01*
X34863Y-25508D01*
X34904Y-25508D01*
X34964Y-25528D01*
X34984Y-25549D01*
X35005Y-25609D01*
X35004Y-25649D01*
X34984Y-25710D01*
X34904Y-25791D01*
X34883Y-25852D01*
X34883Y-25892D01*
X34903Y-25953D01*
X34984Y-26034D01*
X35045Y-26054D01*
X35085Y-26054D01*
X35146Y-26033D01*
X35227Y-25953D01*
X35247Y-25892D01*
X35247Y-25852D01*
X35227Y-25792D01*
X35146Y-25710D01*
X35086Y-25690D01*
X35045Y-25690D01*
X34984Y-25710D01*
X35025Y-25306D02*
X35287Y-25044D01*
X35307Y-25347D01*
X35368Y-25286D01*
X35428Y-25266D01*
X35469Y-25266D01*
X35530Y-25287D01*
X35631Y-25388D01*
X35651Y-25448D01*
X35650Y-25488D01*
X35631Y-25549D01*
X35509Y-25671D01*
X35448Y-25690D01*
X35409Y-25690D01*
X35711Y-24983D02*
X35650Y-25004D01*
X35610Y-25004D01*
X35549Y-24984D01*
X35529Y-24963D01*
X35509Y-24903D01*
X35508Y-24862D01*
X35530Y-24802D01*
X35610Y-24721D01*
X35670Y-24700D01*
X35711Y-24700D01*
X35771Y-24721D01*
X35792Y-24741D01*
X35812Y-24802D01*
X35812Y-24842D01*
X35792Y-24903D01*
X35711Y-24983D01*
X35691Y-25045D01*
X35691Y-25084D01*
X35711Y-25145D01*
X35792Y-25227D01*
X35853Y-25246D01*
X35892Y-25246D01*
X35954Y-25226D01*
X36034Y-25145D01*
X36054Y-25084D01*
X36055Y-25044D01*
X36034Y-24984D01*
X35953Y-24903D01*
X35893Y-24882D01*
X35853Y-24883D01*
X35792Y-24903D01*
G54D13*
X28408Y-19754D02*
X28367Y-19768D01*
X28314Y-19768D01*
X28233Y-19768D01*
X28192Y-19782D01*
X28165Y-19809D01*
X28246Y-19862D02*
X28205Y-19876D01*
X28152Y-19876D01*
X28084Y-19836D01*
X27990Y-19741D01*
X27949Y-19674D01*
X27949Y-19620D01*
X27963Y-19580D01*
X28017Y-19525D01*
X28058Y-19512D01*
X28111Y-19512D01*
X28178Y-19552D01*
X28273Y-19647D01*
X28314Y-19714D01*
X28314Y-19768D01*
X28300Y-19808D01*
X28246Y-19862D01*
X28637Y-19471D02*
X28475Y-19633D01*
X28555Y-19553D02*
X28272Y-19270D01*
X28286Y-19337D01*
X28286Y-19391D01*
X28272Y-19431D01*
X29893Y-23166D02*
X29610Y-22883D01*
X29907Y-22990D01*
X29799Y-22694D01*
X30081Y-22977D01*
X29987Y-22506D02*
X30041Y-22451D01*
X30081Y-22438D01*
X30135Y-22438D01*
X30202Y-22478D01*
X30297Y-22573D01*
X30337Y-22640D01*
X30337Y-22694D01*
X30324Y-22734D01*
X30269Y-22789D01*
X30229Y-22802D01*
X30175Y-22802D01*
X30108Y-22762D01*
X30014Y-22667D01*
X29973Y-22600D01*
X29973Y-22546D01*
X29987Y-22506D01*
X30485Y-22546D02*
X30539Y-22519D01*
X30607Y-22451D01*
X30620Y-22411D01*
X30620Y-22384D01*
X30607Y-22344D01*
X30580Y-22317D01*
X30540Y-22304D01*
X30512Y-22303D01*
X30472Y-22316D01*
X30404Y-22357D01*
X30364Y-22371D01*
X30337Y-22371D01*
X30296Y-22357D01*
X30269Y-22330D01*
X30256Y-22290D01*
X30256Y-22263D01*
X30269Y-22223D01*
X30337Y-22155D01*
X30391Y-22128D01*
X30728Y-22033D02*
X30633Y-22128D01*
X30781Y-22277D02*
X30499Y-21994D01*
X30634Y-21859D01*
X30875Y-21886D02*
X30970Y-21791D01*
X31159Y-21899D02*
X31024Y-22034D01*
X30741Y-21751D01*
X30876Y-21616D01*
X30957Y-21536D02*
X31119Y-21374D01*
X31320Y-21738D02*
X31037Y-21455D01*
X31455Y-21657D02*
X31671Y-21441D01*
X31711Y-21347D02*
X31428Y-21064D01*
X31873Y-21185D01*
X31590Y-20902D01*
X27223Y-21119D02*
X27223Y-21357D01*
X27485Y-21381D01*
X27458Y-21357D01*
X27432Y-21309D01*
X27432Y-21190D01*
X27458Y-21143D01*
X27485Y-21119D01*
X27537Y-21095D01*
X27668Y-21095D01*
X27720Y-21119D01*
X27746Y-21143D01*
X27773Y-21190D01*
X27773Y-21309D01*
X27746Y-21357D01*
X27720Y-21381D01*
X27458Y-20810D02*
X27432Y-20857D01*
X27406Y-20881D01*
X27354Y-20905D01*
X27327Y-20905D01*
X27275Y-20881D01*
X27249Y-20857D01*
X27223Y-20810D01*
X27223Y-20714D01*
X27249Y-20667D01*
X27275Y-20643D01*
X27327Y-20619D01*
X27354Y-20619D01*
X27406Y-20643D01*
X27432Y-20667D01*
X27458Y-20714D01*
X27458Y-20810D01*
X27485Y-20857D01*
X27511Y-20881D01*
X27563Y-20905D01*
X27668Y-20905D01*
X27720Y-20881D01*
X27746Y-20857D01*
X27773Y-20810D01*
X27773Y-20714D01*
X27746Y-20667D01*
X27720Y-20643D01*
X27668Y-20619D01*
X27563Y-20619D01*
X27511Y-20643D01*
X27485Y-20667D01*
X27458Y-20714D01*
G54D10*
X19371Y-24222D02*
X19071Y-24222D01*
X19071Y-24107D01*
X19086Y-24079D01*
X19100Y-24064D01*
X19129Y-24050D01*
X19171Y-24050D01*
X19200Y-24064D01*
X19214Y-24079D01*
X19229Y-24107D01*
X19229Y-24222D01*
X19371Y-23764D02*
X19371Y-23936D01*
X19371Y-23850D02*
X19071Y-23850D01*
X19114Y-23879D01*
X19143Y-23907D01*
X19157Y-23936D01*
X36371Y-24222D02*
X36071Y-24222D01*
X36071Y-24107D01*
X36086Y-24079D01*
X36100Y-24064D01*
X36129Y-24050D01*
X36171Y-24050D01*
X36200Y-24064D01*
X36214Y-24079D01*
X36229Y-24107D01*
X36229Y-24222D01*
X36071Y-23950D02*
X36071Y-23764D01*
X36186Y-23864D01*
X36186Y-23822D01*
X36200Y-23793D01*
X36214Y-23779D01*
X36243Y-23764D01*
X36314Y-23764D01*
X36343Y-23779D01*
X36357Y-23793D01*
X36371Y-23822D01*
X36371Y-23907D01*
X36357Y-23936D01*
X36343Y-23950D01*
G54D13*
X19312Y-20295D02*
X18912Y-20295D01*
X18912Y-20142D01*
X18931Y-20104D01*
X18950Y-20085D01*
X18988Y-20066D01*
X19045Y-20066D01*
X19083Y-20085D01*
X19102Y-20104D01*
X19121Y-20142D01*
X19121Y-20295D01*
X18950Y-19914D02*
X18931Y-19895D01*
X18912Y-19857D01*
X18912Y-19761D01*
X18931Y-19723D01*
X18950Y-19704D01*
X18988Y-19685D01*
X19026Y-19685D01*
X19083Y-19704D01*
X19312Y-19933D01*
X19312Y-19685D01*
X36312Y-20295D02*
X35912Y-20295D01*
X35912Y-20142D01*
X35931Y-20104D01*
X35950Y-20085D01*
X35988Y-20066D01*
X36045Y-20066D01*
X36083Y-20085D01*
X36102Y-20104D01*
X36121Y-20142D01*
X36121Y-20295D01*
X36045Y-19723D02*
X36312Y-19723D01*
X35893Y-19819D02*
X36179Y-19914D01*
X36179Y-19666D01*
G54D16*
X27121Y-25222D02*
X26821Y-25222D01*
X26821Y-25150D01*
X26836Y-25107D01*
X26864Y-25079D01*
X26893Y-25064D01*
X26950Y-25050D01*
X26993Y-25050D01*
X27050Y-25064D01*
X27079Y-25079D01*
X27107Y-25107D01*
X27121Y-25150D01*
X27121Y-25222D01*
X27121Y-24764D02*
X27121Y-24936D01*
X27121Y-24850D02*
X26821Y-24850D01*
X26864Y-24879D01*
X26893Y-24907D01*
X26907Y-24936D01*
X30121Y-25193D02*
X30121Y-25336D01*
X29821Y-25336D01*
X29964Y-25093D02*
X29964Y-24993D01*
X30121Y-24950D02*
X30121Y-25093D01*
X29821Y-25093D01*
X29821Y-24950D01*
X30121Y-24822D02*
X29821Y-24822D01*
X29821Y-24750D01*
X29836Y-24707D01*
X29864Y-24679D01*
X29893Y-24664D01*
X29950Y-24650D01*
X29993Y-24650D01*
X30050Y-24664D01*
X30079Y-24679D01*
X30107Y-24707D01*
X30121Y-24750D01*
X30121Y-24822D01*
M02*
