G04 (created by PCBNEW-RS274X (2011-05-25)-stable) date Sat 14 Jul 2012 03:59:57 PM CST*
G01*
G70*
G90*
%MOIN*%
G04 Gerber Fmt 3.4, Leading zero omitted, Abs format*
%FSLAX34Y34*%
G04 APERTURE LIST*
%ADD10C,0.006000*%
%ADD11C,0.075000*%
%ADD12R,0.080000X0.080000*%
%ADD13C,0.080000*%
%ADD14R,0.075000X0.075000*%
G04 APERTURE END LIST*
G54D10*
G54D11*
X24000Y-28500D03*
X24000Y-27500D03*
X26000Y-28500D03*
X26000Y-27500D03*
X28000Y-28500D03*
X28000Y-27500D03*
G54D12*
X19800Y-30900D03*
G54D13*
X19800Y-29900D03*
X20800Y-30900D03*
X20800Y-29900D03*
X21800Y-30900D03*
X21800Y-29900D03*
G54D11*
X35293Y-28000D03*
G54D10*
G36*
X36530Y-28707D02*
X36000Y-29237D01*
X35470Y-28707D01*
X36000Y-28177D01*
X36530Y-28707D01*
X36530Y-28707D01*
G37*
G54D11*
X36707Y-28000D03*
G54D14*
X27000Y-24000D03*
G54D11*
X27000Y-23000D03*
X27000Y-22000D03*
X27000Y-21000D03*
X27000Y-20000D03*
X27000Y-19000D03*
X27000Y-18000D03*
X27000Y-17000D03*
X27000Y-16000D03*
X27000Y-15000D03*
X24000Y-15000D03*
X24000Y-16000D03*
X24000Y-17000D03*
X24000Y-18000D03*
X24000Y-19000D03*
X24000Y-20000D03*
X24000Y-21000D03*
X24000Y-22000D03*
X24000Y-23000D03*
X24000Y-24000D03*
G54D14*
X32000Y-22000D03*
G54D11*
X32000Y-21000D03*
X32000Y-20000D03*
X32000Y-19000D03*
X32000Y-18000D03*
X32000Y-17000D03*
X32000Y-16000D03*
X32000Y-15000D03*
X29000Y-15000D03*
X29000Y-16000D03*
X29000Y-17000D03*
X29000Y-18000D03*
X29000Y-19000D03*
X29000Y-20000D03*
X29000Y-21000D03*
X29000Y-22000D03*
G54D13*
X31016Y-30287D03*
X31016Y-29500D03*
X31016Y-28713D03*
X32984Y-30287D03*
X32984Y-29500D03*
X32984Y-28713D03*
M02*
